<mxfile host="app.diagrams.net" agent="Mozilla/5.0 (Windows NT 10.0; Win64; x64) AppleWebKit/537.36 (KHTML, like Gecko) Chrome/126.0.0.0 Safari/537.36" version="24.7.6">
  <diagram name="Page-1" id="KaMhn1aO4DgCaY8e1XBl">
    <mxGraphModel dx="1235" dy="1783" grid="1" gridSize="10" guides="1" tooltips="1" connect="1" arrows="1" fold="1" page="1" pageScale="1" pageWidth="827" pageHeight="1169" math="0" shadow="0">
      <root>
        <mxCell id="0" />
        <mxCell id="1" parent="0" />
        <mxCell id="5Oz1r2imxajkxTDogwbM-38" value="" style="rounded=0;whiteSpace=wrap;html=1;" parent="1" vertex="1">
          <mxGeometry x="60" y="-85" width="1250" height="640" as="geometry" />
        </mxCell>
        <mxCell id="5Oz1r2imxajkxTDogwbM-43" value="" style="rounded=0;whiteSpace=wrap;html=1;strokeColor=#3399FF;" parent="1" vertex="1">
          <mxGeometry x="827" y="90" width="433" height="440" as="geometry" />
        </mxCell>
        <mxCell id="5Oz1r2imxajkxTDogwbM-33" style="edgeStyle=orthogonalEdgeStyle;rounded=0;orthogonalLoop=1;jettySize=auto;html=1;exitX=1;exitY=0.5;exitDx=0;exitDy=0;entryX=0;entryY=0.5;entryDx=0;entryDy=0;strokeColor=#FF3399;" parent="1" source="5Oz1r2imxajkxTDogwbM-1" target="5Oz1r2imxajkxTDogwbM-31" edge="1">
          <mxGeometry relative="1" as="geometry" />
        </mxCell>
        <mxCell id="5Oz1r2imxajkxTDogwbM-1" value="class file" style="whiteSpace=wrap;html=1;" parent="1" vertex="1">
          <mxGeometry x="190" y="205" width="120" height="60" as="geometry" />
        </mxCell>
        <mxCell id="5Oz1r2imxajkxTDogwbM-2" value="class name" style="swimlane;fontStyle=0;align=center;verticalAlign=top;childLayout=stackLayout;horizontal=1;startSize=30;horizontalStack=0;resizeParent=1;resizeParentMax=0;resizeLast=0;collapsible=0;marginBottom=0;html=1;whiteSpace=wrap;" parent="1" vertex="1">
          <mxGeometry x="190" y="300" width="140" height="158" as="geometry" />
        </mxCell>
        <mxCell id="5Oz1r2imxajkxTDogwbM-3" value="field1" style="text;html=1;strokeColor=none;fillColor=none;align=center;verticalAlign=middle;spacingLeft=4;spacingRight=4;overflow=hidden;rotatable=0;points=[[0,0.5],[1,0.5]];portConstraint=eastwest;whiteSpace=wrap;" parent="5Oz1r2imxajkxTDogwbM-2" vertex="1">
          <mxGeometry y="30" width="140" height="20" as="geometry" />
        </mxCell>
        <mxCell id="5Oz1r2imxajkxTDogwbM-4" value="field 2" style="text;html=1;strokeColor=none;fillColor=none;align=center;verticalAlign=middle;spacingLeft=4;spacingRight=4;overflow=hidden;rotatable=0;points=[[0,0.5],[1,0.5]];portConstraint=eastwest;whiteSpace=wrap;" parent="5Oz1r2imxajkxTDogwbM-2" vertex="1">
          <mxGeometry y="50" width="140" height="20" as="geometry" />
        </mxCell>
        <mxCell id="5Oz1r2imxajkxTDogwbM-5" value="field 3" style="text;html=1;strokeColor=none;fillColor=none;align=center;verticalAlign=middle;spacingLeft=4;spacingRight=4;overflow=hidden;rotatable=0;points=[[0,0.5],[1,0.5]];portConstraint=eastwest;fontColor=#808080;whiteSpace=wrap;" parent="5Oz1r2imxajkxTDogwbM-2" vertex="1">
          <mxGeometry y="70" width="140" height="20" as="geometry" />
        </mxCell>
        <mxCell id="5Oz1r2imxajkxTDogwbM-6" value="..." style="text;html=1;strokeColor=none;fillColor=none;align=left;verticalAlign=middle;spacingLeft=4;spacingRight=4;overflow=hidden;rotatable=0;points=[[0,0.5],[1,0.5]];portConstraint=eastwest;whiteSpace=wrap;" parent="5Oz1r2imxajkxTDogwbM-2" vertex="1">
          <mxGeometry y="90" width="140" height="20" as="geometry" />
        </mxCell>
        <mxCell id="5Oz1r2imxajkxTDogwbM-7" value="" style="line;strokeWidth=1;fillColor=none;align=left;verticalAlign=middle;spacingTop=-1;spacingLeft=3;spacingRight=3;rotatable=0;labelPosition=right;points=[];portConstraint=eastwest;" parent="5Oz1r2imxajkxTDogwbM-2" vertex="1">
          <mxGeometry y="110" width="140" height="8" as="geometry" />
        </mxCell>
        <mxCell id="5Oz1r2imxajkxTDogwbM-8" value="method1" style="text;html=1;strokeColor=none;fillColor=none;align=center;verticalAlign=middle;spacingLeft=4;spacingRight=4;overflow=hidden;rotatable=0;points=[[0,0.5],[1,0.5]];portConstraint=eastwest;whiteSpace=wrap;" parent="5Oz1r2imxajkxTDogwbM-2" vertex="1">
          <mxGeometry y="118" width="140" height="20" as="geometry" />
        </mxCell>
        <mxCell id="5Oz1r2imxajkxTDogwbM-9" value="method2" style="text;html=1;strokeColor=none;fillColor=none;align=center;verticalAlign=middle;spacingLeft=4;spacingRight=4;overflow=hidden;rotatable=0;points=[[0,0.5],[1,0.5]];portConstraint=eastwest;whiteSpace=wrap;" parent="5Oz1r2imxajkxTDogwbM-2" vertex="1">
          <mxGeometry y="138" width="140" height="20" as="geometry" />
        </mxCell>
        <mxCell id="5Oz1r2imxajkxTDogwbM-10" value="object" style="whiteSpace=wrap;html=1;" parent="1" vertex="1">
          <mxGeometry x="530" y="690" width="120" height="60" as="geometry" />
        </mxCell>
        <mxCell id="5Oz1r2imxajkxTDogwbM-11" value="object name" style="swimlane;fontStyle=0;align=center;verticalAlign=top;childLayout=stackLayout;horizontal=1;startSize=30;horizontalStack=0;resizeParent=1;resizeParentMax=0;resizeLast=0;collapsible=0;marginBottom=0;html=1;whiteSpace=wrap;" parent="1" vertex="1">
          <mxGeometry x="530" y="800" width="140" height="158" as="geometry" />
        </mxCell>
        <mxCell id="5Oz1r2imxajkxTDogwbM-12" value="field1" style="text;html=1;strokeColor=none;fillColor=none;align=center;verticalAlign=middle;spacingLeft=4;spacingRight=4;overflow=hidden;rotatable=0;points=[[0,0.5],[1,0.5]];portConstraint=eastwest;whiteSpace=wrap;" parent="5Oz1r2imxajkxTDogwbM-11" vertex="1">
          <mxGeometry y="30" width="140" height="20" as="geometry" />
        </mxCell>
        <mxCell id="5Oz1r2imxajkxTDogwbM-13" value="field 2" style="text;html=1;strokeColor=none;fillColor=none;align=center;verticalAlign=middle;spacingLeft=4;spacingRight=4;overflow=hidden;rotatable=0;points=[[0,0.5],[1,0.5]];portConstraint=eastwest;whiteSpace=wrap;" parent="5Oz1r2imxajkxTDogwbM-11" vertex="1">
          <mxGeometry y="50" width="140" height="20" as="geometry" />
        </mxCell>
        <mxCell id="5Oz1r2imxajkxTDogwbM-14" value="field 3" style="text;html=1;strokeColor=none;fillColor=none;align=center;verticalAlign=middle;spacingLeft=4;spacingRight=4;overflow=hidden;rotatable=0;points=[[0,0.5],[1,0.5]];portConstraint=eastwest;fontColor=#808080;whiteSpace=wrap;" parent="5Oz1r2imxajkxTDogwbM-11" vertex="1">
          <mxGeometry y="70" width="140" height="20" as="geometry" />
        </mxCell>
        <mxCell id="5Oz1r2imxajkxTDogwbM-15" value="..." style="text;html=1;strokeColor=none;fillColor=none;align=left;verticalAlign=middle;spacingLeft=4;spacingRight=4;overflow=hidden;rotatable=0;points=[[0,0.5],[1,0.5]];portConstraint=eastwest;whiteSpace=wrap;" parent="5Oz1r2imxajkxTDogwbM-11" vertex="1">
          <mxGeometry y="90" width="140" height="20" as="geometry" />
        </mxCell>
        <mxCell id="5Oz1r2imxajkxTDogwbM-16" value="" style="line;strokeWidth=1;fillColor=none;align=left;verticalAlign=middle;spacingTop=-1;spacingLeft=3;spacingRight=3;rotatable=0;labelPosition=right;points=[];portConstraint=eastwest;" parent="5Oz1r2imxajkxTDogwbM-11" vertex="1">
          <mxGeometry y="110" width="140" height="8" as="geometry" />
        </mxCell>
        <mxCell id="5Oz1r2imxajkxTDogwbM-17" value="method1" style="text;html=1;strokeColor=none;fillColor=none;align=center;verticalAlign=middle;spacingLeft=4;spacingRight=4;overflow=hidden;rotatable=0;points=[[0,0.5],[1,0.5]];portConstraint=eastwest;whiteSpace=wrap;" parent="5Oz1r2imxajkxTDogwbM-11" vertex="1">
          <mxGeometry y="118" width="140" height="20" as="geometry" />
        </mxCell>
        <mxCell id="5Oz1r2imxajkxTDogwbM-18" value="method2" style="text;html=1;strokeColor=none;fillColor=none;align=center;verticalAlign=middle;spacingLeft=4;spacingRight=4;overflow=hidden;rotatable=0;points=[[0,0.5],[1,0.5]];portConstraint=eastwest;whiteSpace=wrap;" parent="5Oz1r2imxajkxTDogwbM-11" vertex="1">
          <mxGeometry y="138" width="140" height="20" as="geometry" />
        </mxCell>
        <mxCell id="5Oz1r2imxajkxTDogwbM-41" style="edgeStyle=orthogonalEdgeStyle;rounded=0;orthogonalLoop=1;jettySize=auto;html=1;exitX=1;exitY=0.5;exitDx=0;exitDy=0;entryX=0.5;entryY=1;entryDx=0;entryDy=0;strokeColor=#FF66B3;" parent="1" source="5Oz1r2imxajkxTDogwbM-31" target="5Oz1r2imxajkxTDogwbM-35" edge="1">
          <mxGeometry relative="1" as="geometry" />
        </mxCell>
        <mxCell id="5Oz1r2imxajkxTDogwbM-31" value="&lt;font color=&quot;#ae0909&quot;&gt;compiler&lt;/font&gt;" style="whiteSpace=wrap;html=1;" parent="1" vertex="1">
          <mxGeometry x="420" y="190" width="120" height="60" as="geometry" />
        </mxCell>
        <mxCell id="5Oz1r2imxajkxTDogwbM-32" value="" style="shape=image;verticalLabelPosition=bottom;labelBackgroundColor=default;verticalAlign=top;aspect=fixed;imageAspect=0;image=data:image/png,iVBORw0KGgoAAAANSUhEUgAAA4kAAAJFCAIAAAD/ESV5AAAgAElEQVR4Aeyd8W8c13Xv+2f0t9tQLEBYjmACFh4F8UWwVTMNXa4U0YaxKbGlZQlxuaoSOTXbRs66dFPHENywTuMuWse0Y0eJkrXjRq69UVDZzkrWhuL8US+PJ/6+886dOXNnSK1J7pcwjDsz93zvuZ97Z+a7d2ZXf/THn/0dPnw48G/HBNrrP//5envHMhQYewIXOJPGfg4QAAmQAAmMJYE/+sya/jG96W5MgG1remE3lKgx3gT4IWe8x5+9JwESIIHxJUBvurOx/+raj//fKunptY2f/3xj7fTOJBk9lgROr22omfT8j3/+8x+vfXUsSbDTJEACJEAC402A3nSH4/9/l7f+3x+N6Q5xjnH4/z+TaEzHeCqw6yRAAiQw3gToTcd7/Nl7EiABEiABEiABEthLBOhN99JoMBcSIAESIAESIAESGG8C9KbjPf7sPQmQAAmQAAmQAAnsJQL0pntpNJgLCZAACZAACZAACYw3AXrT8R5/9p4ESIAESIAESIAE9hIBetO9NBrMhQRIgARIgARIgATGmwC96XiPP3tPAiRAAiRAAiRAAnuJAL3pXhoN5kICJEACJEACJEAC402gvjc9fPjwW5/9tdv8F+THex6x9yRAAiRAAiRAAiSwGwQqe9OTJ08eOXIkhNBoNLIs+7u/+7vXXnvtrbfekmQef/zxL3zhC7uRGDVIgARIgARIgARIgATGjkA1b3ry5Mlbt2598sknX/va1775zW/+93//dwjh1KlTn3766Re/+MXXXnsty7JXX32V9nTs5hE7TAIkQAL7n0Cj0RgMBlmW9fv92dnZqh3qdrvZ9l+n06kay/okQAIgUMGbzs3N3bp1a2Nj49vf/vbdu3dv3779yiuvhBDuv//+LMtu3779wQcfrKys3L59+wc/+MH42NOJiYkXXnjh448/3traunv37o0bNy5dugS+jUbj2rVrm5ubWZbduXPnjTfeOH78OI4WFYqiJiYmTp8+/fLLL9+4cUM0E6+ATpITExN/8zd/0+/3RfDWrVvf+973pqaminLD/qIkQwi9Xk8u0FmWbW5uvv/++61WC4FFBSdJhDz99NN37tzJsmw4HKa8SeIkibsIUk3RLE2y2WxevXr11q1bW1tbWZb1ej0kX1QoSrLdbg+HQ6SHQuld00/y0qVLmD/D4fDatWuNRqMoN+wvSjKE8Psp/cYbb9y6dUuG+/r160888QQCiwp+kiGE733ve9Lljz766Ctf+UqRjt5flCQMhwhubW399re/TZnnfpITExPf+ta3APPWrVuvvPKKPFbSWZlyUZJmQn766afXrl177LHHTHi86SRpOi7dL50/8lis6MJl8hTNxAtRnHwIoWied7vd3Pr3dCeIpVCKMwEcA2R2drbf7wur+P8pV564Le4hgQNMoII3XV5ezrLsxIkTIYRjx46tr6+fPn1a0PzjP/7j3/7t3x46dCiEcOXKlffff39ycvIAU0PXJiYmut2uuBBccTY3N59//vkQwhNPPPHxxx9jvxQ++OAD/+O4E/XVr371t7/9rRY0V0Akpgt+ki+99NLdu3e15tbW1vr6ulaIy06SxpuK8s2bNx999NFYB3v8JKXa0aNHr1+/LoIpV3M/SdxF0PdSzdIk19bWxOJDs9SbOkkW3bM//PDDmZkZoDMFP0mYe2SYskTkJPnQQw99+OGHWi3Lso8++ujMmTMmMb3pJymfeN97773f/e53t2/f3tzcfOaZZ3R4btlJEoZD57m1tfXiiy/mSslOP8mJiYlXX33VnDulU8hJMp6Q8oH2woULtZPM7Xip63KSDCHk5plyISrqRdE8T/8IWqRcYz+IlVLKFQccA+SeetNut1s68XKz5U4S2LMEKnjTEMLVq1ffeecdZ030y1/+8u+XD+fn5/dsh3c3saeeeur27dtbW1uvv/760aNHjx8//vbbb29tbb3//vszMzNvv/12lmWffPLJ+fPnJyYmvvGNbwwGg7t3716+fLkojYmJCSdqYmLixz/+8VtvvbWysiIPnswVMFfWSfLo0aMPPfTQu++++0//9E9Hjhw5ceLEL3/5yyzLSt2Pk6TOQRaWhtt//jKnn6RovvTSS1tbWzdv3rxz507ptdgniVtspbUZP8m//Mu/lMnw05/+9PTp0xMTExpFbrk0SR316KOP/t7il35y8JOUe+c777wj6/fnz5+/devWYDBwlk79JF988cWtra07d+4888wzExMTX//612Vm+mD9JEMI8jGs3+9vbGxkWbaxsaFRxGU/STEcmDOPPvror3/96yzLdpLkN77xjd/97ndZlr3zzjsLCwshhIWFhddee+38+fNxerLHT1KGRizRkSNHvv3tbwvJ69evHz16tEjTJ2k6XiSi9/tJ4sQp/dClNf0yvCk0tZPzJ6evXOPoPfKmOpNOpyOfkfzpp0Occm/7IRXmtlOTh0hgHxGo4E0nJiaeeOKJLMtgMg4fPvzUU0/JSmoI4U/+5E8++OCDt9566/Dhw/sIwU5S/f73v59l2Y0bNx566KEQwmOPPSZrSMPh8Pnnn//oo4+wNjM1NfXyyy/Lotq1a9eKGv3KV76SEoULaIo3dZL8+te/bjLRN0hzCJuJSYYQjhw58p3vfGc4HJYupJUm+cQTT3zyySd37tx57rnnBoNB6bW4NEnpaaXbg5+kHH3//fcdJwGGUihNUtd/5ZVXsiz7zW9+Mzc3p/ebckqS169fl9P2hRde2NzcxAQ2UrLpJykY33nnHXhxcZPvvffe/fffnysYQvCTDCE8//zzW1tbGxsbzzzzzObmZukilp+ksWjNZvPGjRs4N+sl+ZOf/CRlOLS4n2R86onv//TTT5988kmto8s+SdNxHVhU9pMcjTcNIWh7WukkLepX4n5cWkunXK6gDGKWZc6Vmd40Fx13koAmkOpN33vvPfFVN27ckFegZmZmPvnkkw8//HBzc/PKlSsiur6+fvv2bXmop5s5qOVr165lWfaTn/xkYmLin//5n+VVSPlMvLGxMRwO5b7SaDT+67/+C4/+nave17/+9ZQoXECdKyCYO0ma8Pvvv//dd9/NsuwXv/gFrAZ0UEhJEtfo378H8vHHH//VX/0VwnMLfpJHjhy5du3a1tbWq6++mni7LU1SZygvxToOQHL2k+xtL2C8//778qJe/PJx3PHSJBGysLAgH1peeukl7Mwt+EniEfxwOPz1r3999+7dwWDw9NNP50rJTj/J119/PcuywWAgn3Meeuihn/70p6XvCfhJTkxMXL16dWtr6/nnnxerVPpRxE/y3LlzsgaJZ/qbm5v//u//7r8b6iT58ssvy+uDpQu6Gqyf5Jtvvmm4Pfnkk59++qn/SoOTZKfTwYUCHS99B9pPcnZ2Vp84IrvDpc143VSgwcPpC6acZdIu1lmlvulsUVRsHHWP1tfXZarocGQYv2agG8Uyf9yEngbol/HcOg20jv6iswi/ceOGeR+99DTRabBMAnuZQKo3zbLsm9/8pv6KzMsvv/zmm29+4Qtf+PKXv7y5ufnFL34R/Tx69Og777yDzQNckAvHG2+80ev1tra2Njc3//M//1MeF7755pvD4fDWrVtXrlwRv37jxo1/+7d/M7cfA0cugqVRuCB2Er4N6iRpwmUV7c6dO75ZSUlSX2ezLLt586b//Rg/yd97lM3NTXlVV/peehUuTdJkmPJun5PklStX4tcu5TuCTz31lBllbJYmiZqJi6Z42Td3TspwN5tN/Rr0tWvX8OgDzemCn+Szzz4r01u7H3+SlyYpfvT27dtf+9rXJiYm3nnnnSzL5JuXOjFd9pOMval8bWttbU2LmLIz3PCmxl4YBbPpJxl705TT3Emynjf1kxylN5VM5JNPY/vPfMDQ0wyODfNQ7B0YYr/xtQLQHNXK8YUC1hMZxuFyrpkJIJtIFZNHLxJDShw/DskVD93p9/uXL1+mN80lzJ0HgEB9b/riiy++/PLL8r2oLMv0c8zx8aayaCFXk//5n/9ptVp4Ivb666/jwrG5udntdo8cOSIP4Jy3OWXRQgSdKFyhnCsgZqeT5HPPPYdq8j2e4XCod+KoLiQmGUKYmpp6+umnP/rooyzL3n33Xechr5PkK6+8Iu+YimOWvpd600pJttvtTz75JMsy53WL33fHSfLKlSuykDYYDJ599tmJiYknn3xSNH/4wx9qerqcmORjjz32ySefbG1tlS6a+kk+99xz58+fHwwG8iHq+9//vqz0f/jhh/JSis4N5dIkn3766Rs3bty9e3dzc/OXv/yl3Oz9Z/oOyeeee06e41+/fv3BBx/ECwDYRGK64Cf55JNP6vdA5ubmxO/6LzM4SWK4/+M//kOn4Zf9JN944w1tiUIIUt+f6k6Szz33XOLJotP2k5yZmRGvhmU8HVuvDIdnNHGVE5cm8wprtIjqdDooa1br6+uzs7MSpd8txh4dCFk4UbG2UIaPlHA5Cik5ioRhXnOBxN5UGkXy0BFZ5NDr9UxNfMxDbG6L3EkC+45AqjfFM/1f//rX8kz/S1/60u3bt995551bt27hvP3Xf/3X2+P0TP+HP/xhlmV379597bXXxJ3LNyQ+/fTT73znO2JNPvroI/l6BJ6Y/+QnPymaKAsLCylRuHh1EtZNnSTlKfbExMSVK1c2Nzdv37797LPPFuWG/YlJor5cT/GUCvt1wUnyRz/6EdYSTMHRrJqk3GbM3VFnGEJwknzyySdFQT/klT04O4yafHsmZbgFYOmbpqLvJPnUU0/94he/yLLs9ddfl3c25Ptbd+/e/fu///s4PdlTieT999//3nvvaSuQK+sk+eSTT8obq2as/dcu/STlfNH3b/EHcCRVk/zrv/5r6aYzA2NNP8n4NLly5UqWZb/97W+/+tWvxmqyxycZd7xIB/v9JEf2vqn+bal+v5+78i0zpLv9hzI6Ir+E5Tygh9XTVhKXVhlZGRQzFWUp99KlS7E46jtXZuNNsTIat4LLEWTjbspFRs9tTYBlEtinBFK9aQgB34XCb5rMzs6urq622+0//dM/Hc/vQp07d+7OnTu/+93vXnjhhampqccee0we6F+/fn1mZubq1atZll2/fv3RRx/Fd6E2Nzf/4R/+oWi6yJt2pVG4gDpXQDThJHn06NGpqalut3v37t3f/OY3/mN3CCYmKeumrVZLmPjvsDpJvvTSS/FVW/Y4ziA9ySNHjjz33HOygug/OHaSPHr0qCyKy8u1ExMTzzzzzJ07d/wv3KQkWWnRNITgJPkXf/EX8uLBj370I1mSlMXdra0tZ7E8JUm5Pvz+R+XeeOMN+fFj500GP8nFxcUbN27kjvj3vvc9TEJT8JM0Fu3RRx+VHyP7zW9+c/LkSSOFTYfk0aNH5YtKW1tbP/3pTxcWFuTy+Oabb349+n4hBP0ktTd98MEHr1y5Ig9e3n77beflbz9J03Fk4hT8JEfpTeHher0ernjxxMi1mNJBROkLRbwMWcObDofDF1988V57U6St/av5QEVv6kxmHtq/BCp405TfkPrzP//z37+353+PeP/CijO///77f/azn5nL5Z07d8S+5/6W5LVr1/xvYDhR+gqlG8UlLM5QfirSSfIHP/gBvqSlNX3X6ySJ+4FWu337tnPPLk1S9yv9duskmUvSf7RdmuSZM2fk7QXd8VJNJ0nptViWxEXT0iRfffXVeLh3kmRMcnNz84UXXtBDFpedE0esg/m9fflSvP+egEMyd07evXv3X/7lX+LcsMdJUn6DQj9Pl0EvXb5ykjRrYyJYOjR+krkd9y8XIQQnyZF5Uz2v9IuzuckDnblqofs6qp43NcpFi7JFmWBShRDgueWJCnpqTKcOgazMCqyn8pm+psTyQSJQwZsub//2/pe+9CX89v6pU6eEhfnt/V/96lfyO/wHiVRRX44cOfLKK6/ofxRH/xtIrVbr+vXr+CeXUv7ZmBBCURSuYtr9mHfUcvN0kjRXPSjH12KjXJQk7gdZlm1tbd26deutt95yfj4Tsk6SqINbQqkJkJCiJDXJu3fv3rx588qVK/qdad2iLvtJPvbYY++++64M9507d958803/a0Z+kiGEZrMp/8RUypumyNNJcmpq6rvf/a78M2ZZlt26dWuHSYKkjPXPfvaz0t9kkDyLkpQJaVbZ5Selbt261Ww20c24UDTcek7Kt6Bu3LjxrW99y1mP9JOUowLz5s2bd+/e3dra+vjjj7/73e/qL4zGGTpntz4TNzc3d2VOmo7L2a2NWm6GTpKj8aY6bfiw3mf/2hxekpmdnd3Y2JidnYXdxGUBhxCFC5reA5sIJjgqe6CsjWNn+w8zH8uuqIw9uXjRKDqCoUdnQwivv/66XDYh29v+k0HM7U5uc9xJAvuRQAVv+uUvf/n27ds/+tGPLl++rP/N0i9+8Ytyk/vggw+efvpp+TdLSy/6+xEWcyYBEiABEthdAvBe+GCMAiyjfv0UR/XHctg7HJVYbXNxCD+kpf2lPqqV4VZ1BbGGcJn6kJThHWNWiII3zU1S3DAylE2wAhndcVjzuFHuIYH9RaCCNw0hzM3N3blz55NPPvna1772zW9+8/r16yGEU6dO3blz58iRI6+99lqWZa+++qrzD0ftLzrMlgRIgARI4J4SgN/SDi/XZsGooaa2gEZHr0Eaf6mj8Fhcfru00+nEb5HCTUq78IXGMTtvvmqAUIM3laMmyW63q/uLyqiGDmJPLjTdNMsksF8IVPOmIYQ/+7M/k9clG41GlmXPPvvsa6+99vbbb0uHH3/8cRrT/TL2zJMESIAESIAESIAE9hqByt4UHTh8+PBbn/3hXzHFURZIgARIgARIgARIgARIoCqB+t60akusTwIkQAIkQAIkQAIkQAI+AXpTnw+PkgAJkAAJkAAJkAAJjI4AvenoWLMlEiABEiABEiABEiABnwC9qc+HR0mABEiABEiABEiABEZHgN50dKzZEgmQAAmQAAmQAAmQgE+A3tTnw6MkQAIkQAIkQAIkQAKjI0BvOjrWbIkESIAESIAESIAESMAnQG/q8+FREiABEiABEiABEiCB0RGgNx0da7ZEAiRAAiRAAiRAAiTgE6A39fnwKAmQAAmQAAmQAAmQwOgI0JuOjjVbIgESIAESIAESIAES8AnQm/p8eJQESIAESIAESIAESGB0BOhNR8eaLZEACZAACZAACZAACfgEUr3p1NR95y+sXlxdu7i6tnLp8gPTD2rdufnTcuji6tpic1kf8gMfmH5w5dJliT1/YXVq6j4du9hchuzc/Gl9yJd18gkhOLK6iarldrs9HA6zLOt0OhLb6/Uy9TccDtvtdqlso9EYDAYq7v8WoSnh3W43y7LBYNBoNEoFpUKn04Fmr9czUTrVbrdrjhZtOlGgUSnPoijDJJGkpD2yJEubK8IYQhhxkjrVfr8/Ozvr5IZDI07SaQ4pxQUnqmh2xSLYo88aOX0w92ZnZ/v9Ps4pKcRnFqSk4Ec5zRkds+l3zWFidPSmE+U3p0VqlKXdzmdXURDDniLNmF6WZRivoijuJwES2IMEkrypOEiYzsXmsranetPUNJu6Zgjh2PETF1fXxHQeOjS5dHYF9tRs6pohBF9Wt2Jq+rI7GR5cQLWP7PV6+sYvhrLU+YkPc6pJW1evXh0MBqXXa+lUt9vFNVrCkZhswubK9d1pXQT9KC1iajqQ06N6vR664wiaprV+CEFvmpqOphNlRHRNR9CP0iKmpqOZEiV1sizDTHAETdNa/8CTLJppwqTUjBqqflSn0ylqzujoTT0cZqTMpq6pFUzZj9IipqbRqbcp3hRg4YMTr3VoVHKDDvazQAIksPcJJHnTxeby0tmVQ4cmpT/i8MSqivk7dvwEunrs+Ak4VydQi0isLIWKVdUicnRu/jScqyPr5+PLogs1CnJTWV9fHw6HuIYabyrLY6X3nlJv2m63B4NBu93ubf+VZisXd2QFMyF74ttht9uFVS0Sd6LiW0Jpj0IIlaLiHuXmOeIkneZy05OdTlQlJmgiJQp14ikKHV0YcZJOczorU3ai0F+EpMxJOVOKTthYE+JOwY+Ku+BIyaFYUHctFvxczu7SXqCCdOfq1av9fl8eCnW73UqfwyGV0lNUZoEESGBPESj3ptoySuqyiilOUVvGEII4TlkN9QNjEykP4sUEG/eJJ/jHjp/wZZ185Gm+NtladiejgpuB8UzxjV8q+KuSUCtKqdvtylpXp9MpNZG591fdhElSDunV39w0nCgDIYQgC8b++lylqLjyXkjSYZKbnux0ouJu7hZJ3LZN60V5mmp6ktyLJJ3mijKUD356ju08ydxzBwnEphCHnIIfFVtJR0oO+fz3DsnSjkgF4dPtdnu9XrfbbTQa/X6/1Wr1+33/smn0YyymAjdJgAT2MoFyb2pMpJi/hx+Zl8VRbSLF6s2fenzp7Mpic9kPNEuYojN/6vHzF1YP339EFASc6Dz8yPz5C6tz86d9WScfs1JrZHcySLgBmAsi9kNcKviPmXBPxatseskT1+4QgmkOrZhCXE2a6PV65k4pNdfX1weDgXMn8KPM/VUgbGxs+DY6PUpa1y7E9Fc2R5zkuXPn+v0+RnYvk9TzIZ6iMcyxJbkvvKlz4uydORlPqqI9Mtm63W6n0+n3+y+++CIuU84VKVZLmdhxFPeQAAnsEQIVvKn2dnCW8ILYg2owkdgj75iKqUV9vQ4qxld7U6yDopov6+Sj04hla4+HvtPrcryQE0KAKUxvzryligf6uc/Bc2Xlcq+tYW/7S1q46IujwlqaJOncCbRZiaNws9Q6qJaboTYBRVHSqPh13ZciwREnqX0AOqv7kpvniJOUh6T6tq3LuRmaaRZ3bdeHe++QlGmJj4hSwIciPSFRR3+MzOXpR8mrnFBLeRvY4b+nSObSiHfKKdPpdGZnZ3/1q1/JK/UCzbkiGR0wMfu5SQIksF8IpHpTLFtKx+As9XqnfMseFjB3YRKBUpD1V7yuarwpjGYIwXjTGvkgsVzZegOmvUW8kBnf+MW8YnUtpVFpAndEmAOJ1V9yctTMHREro8hfp5ruqHKj5MZgXr01acepVorS38aIpWSP37VKzaEJJwo+IJcJFExhxEk2Gg3pAn4vQmdrcsPmiJPcOyT1RybQQAFYsCel4EeZ0UkR3BdzMqUjUgfeVN4FkuueD82Il16+TH1ukgAJ7EEC5d5UTOHF1TU4yBAC1h31S6LSPZhIP1CcK741JbFwjfIzT/hlAHw3H++b1sgHvx6VK1tvbIzlKl03FVNVurhikun1erJSKNdovawi5fQVBVHWeWINFY3qo9hpCk6UhJtvkJR6oKpRpYL4YSb9SQBdq9qc5lbUNYeJoac3nahdT/LcuXPmbY0UjGNLcl94U3+SOLNLT0JTdqL85oxOjU3tTRFeyZuaazJEWCABEthHBMq9afwVIixAasuIPmNl1A/UIhILU6sf/UMWbtiXxRN/BOp8dFkqaFmEJBaKnKL4xU6nY278Uj/lebROQC7WYrDkxtD57Jf/8LwVq6o60Cnj21S5d9+Ui3u8wIOo+EaSspJRNcqwze3siJN0mstNT3Y6UVWZiKATFT8yxuccfwqNMsm9MydzM8FQxpxxyCn4UTFnR0oOxYL6dIsFcZ46yk6U35yjmXgovsThKqc/ZBap5YYXVY73z8zMtFqtM2fOTE7+4Udp4jq5e6anp5eWlprN5tTUVG6Fop2Tk5NnzpxptVozMzNFdYr2LywstFqtkydPFlUo2s9uFpGR/RxNn89ojiZ5UzF8+PX7xeYyfs5JnCI2TU2zaQLl+/6yHCtWFV+iN5u6JgxxjXx82Z0TN1dG7Z/kml76/XeTg0TBzubeVxIf64uyEcR1H9YkcWVXdIqitIipaTqoN9Oj5B1c7dG1Dsqmaa0vtgPDYWpCIS5oERNlNnXNWAd7/CgtYmpCIS6kR+kpGutgj2la6x94kmaZ3DBJMUwIwelWFBWbQh1bVNbDYUbKbOqaRWpIcnfPbqc5fchcQnEocaImVoOsKYjbW1pamp6eNof8zZMnT7a2/6paTLFBrVZrYWHBb8IcnZqaajab9Zw0u2lgmk2OpgHyuWwmeVPYwRr/gJPY06JAMZ1yFMZUQIiPxL8Lpd8o2Ek+vuwOx8BcWOXRGJamim5IplERiaPkNhOLSH3/sb7OJK4pymix1PNJwn6U3AVFEzc509N4syjKMEkXHGWSuKnvZZKGefq9fDxJOmZRgMTnoyFsNv0opzmjYzaLTpw9NSdNzrmb5hKKOikTVUPAOYjPn5ByClxQdOCEELig6PMZk1VwH8JuHU31prvVHnVIgARIgARIgARIgARIoIgAvWkRGe4nARIgARIgARIgARIYNQF601ETZ3skQAIkQAIkQAIkQAJFBOhNi8hwPwmQAAmQAAmQAAmQwKgJ0JuOmjjbIwESIAESIAESIAESKCJAb1pEhvtJgARIgARIgARIgARGTYDedNTE2R4JkAAJkAAJkAAJkEARAXrTIjLcTwIkQAIkQAIkQAIkMGoC9KajJs72SIAESIAESIAESIAEigjQmxaR4X4SIAESIAESIAESIIFRE6A3HTVxtkcCJEACJEACJEACJFBEgN60iAz3kwAJkAAJkAAJkAAJjJoAvemoibM9EiABEiABEiABEiCBIgL0pkVkuJ8ESIAESIAESIAESGDUBOhNR02c7ZEACZAACZDA+BCYnZ3t9/vZ9l+/35+dnR2fvrOn9QjQm9bjxigSIAESIAESIIESAo1GYzAYdLtdqdftdmlPS5DxcAip3nRq6r7zF1Yvrq5dXF1buXT5gekHNb25+dNy6OLq2mJzWR/yAx+YfnDl0mWJPX9hdWrqPh272FyG7Nz8aX3Ilw0hSKxJRhQcWd1ESll/HJQPhYPBoNFoINZUSD8ne72eCGZZhrNaZNvt9nA4zLzQaS4AACAASURBVG0O7cYFP8ppLpbCHifKbw4KpuBHOc0ZHb3pRPnNaRFd9qOc5rSIKTtRfnNGx2wittPp6ENOc7qaKTtRaCjLMnMKGBG96Uc5zWkRU3ai/OaMDjb9KKc5KMQFJ8pvLpaSPX6U01yRYAjBifKbczR5aNwIyB1Q38LiPePGhP1NIZDkTcVBwuctNpe1PdWbpqbZ1DVDCMeOn7i4uiam89ChyaWzK7CnZlPXDCGkyD78yPz5C6vIWVj4sim8TB05zXq9nuyXTdyb5fMijspmqT01Ip1OR9tTvWlqmtz0phNlRHRNrWDKfpQWMTWNjt50ooyIrqkVTNmP0iKmptHRm06UEdE1tYIp+1FaxNQ0OvGm1JfPMJ3PvKkR0fqxAvb4UVrE1IRCXHCijIiuGetgjx+lRUxNKMQFJ8qI6JqxDvb4UVrE1IRCXHCijIiuGetgjx+lRUxNKLBAAkKg0+nghggm3W4Xt0XsZIEENIEkb7rYXF46u3Lo0KREisMT2yc28djxExA9dvwEnKsTqEUkVpZCxapqETk6N38aztWRfWD6weWvf3Nq6j5RM97Ul0UX0gtyadanWafTGQ6H7XY7hKDLotntduMT1TTnRMXNmcclRko2/SinuVw12elE+c0VafpRTnNFgj5/v7kiTT9qjySJ5CWf9fX14XAIb7pHktwXJJkk5hIuXD4T1GeBBIRAr9fTi6ayM9ewkhgJaALl3lRbRomUVUxxitoyhhDEccpqqB8Ym1p5MUBMsHGfInVxde3Y8RO+LPom1Yw3dWQRWKkQX6n1vV8WGGAL5DFZ6bppr9fTdcR9ZlnW6XTkUZoW7Ha7WZbp+nH+fpTTXCyFPU6U3xwUTMGPcpozOnrTifKb0yK67Ec5zWkRU3ai/OaMjtnEhxYj4jRnFPSmE2X0QwickxqdKY8nSQOBm2NCoNFo3Lx5U1Zqep+9pdbv95999tmbN2/ql9/GBAi7mU6g3JsaEylm9OFH5mVxVLs9sYPzpx5fOruy2Fz2A80SpujMn3r8/IXVw/cfEQXphujIM/q5+dO+LHoee1OzUmtkEVipYLypGAK9jConpHxw7PV6WFItasUIyo1/fX1d3iXXxhdOd2Njw1+LdaLOnTvX7/eRsGmOSRoC+4Kk5AwPpL2jP7tMZ7HpRzlMnHuPE8U5qUfwYJzdmEssjBWBdrstHhTff+pt/2H/WNFgZysRqOBNtbeDs4Q3xR5Ug4nEHnnHVEwt6ut1UDG+2ptiXRbVfFl03vemsSwCKxXkto0vLeUuYcrqaeJ3RLQPwHM0rIHhjo49skyV6E3jKO0D4uaKUDDJvUwyhKD9qC77A8fhNgSc040nTnwKOB9FDFhujgmBTqfT7/cbjUa/3+92u3L96Xa79KZjMgF20s1Ub4plS2kMzlKvd8q37OFEcxcmESgFWX/F66rGm8L4hhCMNy3KBywcb5ori8BKBX2zl0CzOCrrpp1OR2rqbzXlNgRBrHuFEHAbkJuleYMQnjJXEK9d5kbhFpvbXJEgk9RvcAr/vUMSoyPDl+tNOdzpH+p44uz8ElR0JeH+g01AvvOES5DcyOTlND7TP9hDv/PelXtTMXnyrifaw7qjfklUjsJE+oHiXPGtKYmFa4x/AQrLpb4sMpRq8fum5leuIIvASgXjA3ARl6fk8uKdfj3UONfctsTO4jm7XgaTk9y8GKB9Rq6gH+U0l6smO50ov7kiTT/Kaa5IED+CM24kzWcVAdv57Hv6JIkJwxMHKEzBmST+eWp0uDnmBOBNB4NBe/tPPtW32+1f/epX/AX+MZ8efvfLvan8Vuh++Z4+epvrTbFqi2ow2dhTqVDkTYteMI3datwcniTiENyG3xzqm4If5TRndPSmE+U3p0V02Y9ymtMipuxE+c0ZHWz6UU5zUIgLTpTfXCwVQpAQ/ZKJLne2/8xnG8yuXEHZubtJIk/9sQEPB7DSL1+hkASYZNHo+JPEGbgiQZ+/35yjWfXQ5OTkmTNnWq3WzMxM1diFhYVWq3Xy5MmqgTMzM61W68yZM5OTf/hRmkSF6enppaWlZrM5NTWVGCLVDnY3Y28qJrXT6ehz3yfG0fT5jH7S+vns1tEkbyqLi/j1+8XmMn7OSZwrNk1Ns2kC5fv+8kBf3gSAAzabuiZ+37QoH0GT60192RpM4yu1XhmVN01xEsrd1383FLdtfPXefNlfb0rrqOnk70QZEV3TEfSjtIip6Wg6UUZE13QE/SgtYmo6mk6UEdE1HUE/SouYmo6mPmTWTY2I1tdRpuxHaRFT0+joTSfKiOiaWsGU/SgtYmoaHb3pRBkRXVMrmLIfpUVMTaOjN50oI6JragVT9qO0iKlpdHayKW6v1WotLCxU0pmammo2m/UsptigpaWl6enpSo2ePHmytf1X1Ukf7G7Cm8pyKW6OvV4PT3J8zhxNn08IYfSTtjSlXamQ5E1hB2v8A05iT4sCxXTKURhT6Zj4SPy7UHgnVY4WyeKJPwKlgHBftipTuTTrpSnjFOU6jgrmaFFzRtacxlozUVDWQorS8JtjkoaAw3/vkETOxpviww8mg5ldCDQFv2sOE6OjN50ovzktost+lNOcFjFlJ8pvzuhg049ymoNCXHCi/OZiKdnjRznNFQlW3X+wFxRB42B3U74LNTs7K2+JiFXNsgzrNeDgFLhu6sAJIYz1uqmPhkdJgARIgARIgARIQBPg9/E1DZYrEUhdN60kysokQAIkQAIkQALjTEBW3+N/F2qcmbDviQToTRNBsRoJkAAJkAAJkEAFAvL6B14carfbV69erRDPquNKgN50XEee/SYBEiABEiCBe0xAv51sfiTkHrdM+X1MgN50Hw8eUycBEiABEiABEiCBA0aA3vSADSi7QwIkQAIkQAIkQAL7mAC96T4ePKZOAiRAAiRAAiRAAgeMAL3pARtQdocESIAESIAESIAE9jEBetN9PHhMnQRIgARIgARIgAQOGAF60wM2oOwOCZAACZAACZAACexjAvSm+3jwmDoJkAAJkAAJkAAJHDAC9KYHbEDZHRIgARIgARIgARLYxwToTffx4DF1EiABEiABEiABEjhgBOhND9iAsjskQAIkQAIkQAIksI8J0Jvu48Fj6iRAAiRAAiRAAiRwwAjQmx6wAWV3SIAESIAESIAESGAfE6A33ceDx9RJgARIgARIgARI4IARSPWmU1P3nb+wenF17eLq2sqlyw9MP6hBzM2flkMXV9cWm8v6kB/4wPSDK5cuS+z5C6tTU/fp2MXmMmTn5k/rQ46sPnRxde3Y8RM6MITgyJqaiZvtdns4HGbbf4PBoNFo6MBeryeHsizrdrv6kFN2ovzmijT9KKe5IsEQghPlN1ek6Uc5zRUJMsksyzgnZXr4s6toCvlRnJPx7Coiyf0kQAIkkEggyZuKg4TpXGwua3uqN01Ns6lrhhCOHT9xcXVNTOehQ5NLZ1dgT82mrhlCcGTFmMKPimnGpi+biMxU63Q6MJ2zs7P9fh8Xa7OpaxoRvelHaRFTU4uYshNlRHRNI6I3/SgtYmpqEVN2ooyIrmlE9KYfpUVMTS1iyk6UEdE1jYje9KO0iKmpRUzZiTIiuqYR0Zt+lBYxNbWIKTtRRkTXNCJ604/SIqamFjFlJ8qI6JpGRG/6UVrE1NQipuxEGRFd04joTT9Ki5iaWoRlEiABEqhNIMmbLjaXl86uHDo0Kc2IwxOrKjYR5k8cJ5yrE6hFRFZspVjVY8dPQESOzs2fhnN1ZA0I0YSr9mVNbMqmXJp7vR4qNxqNwWAg66OdTmc4HLbbbRztdrtwrthpCk6U35zRwaYf5TQHhbjgRPnNxVKyx49ymisSDCE4UX5zRZp+lNNckSCTBBmeOP7sAihT8KP2yJw0OXOTBEiABHwC5d5UW0bRklVMcYraMoYQxHHKaqgfGJtaWeMUE2zcp0jJA3pf1vRWKsObOrImMHFTnvd1Oh3U73a7WZb1+/3Z2dlerycFOSp33yzLdH0EouBE+c1BwRT8KKc5o6M3nSi/OS2iy36U05wWMWUnym/O6GDTj3Kag0JccKL85mIp2eNHOc0VCcp7EUUz2W+uSNOPYpLCTV9M9jXJouS5nwRIgARyCZR7U2MixYw+/Mi8rGtqtydGcP7U40tnVxaby36gWcIUnflTj5+/sHr4/iOiIBmLzsOPzJ+/sDo3f9qXNZ2Uyvq1AfhUI2sCEzfNsoTcUzc2NgaDwblz5/r9PpZU5Wa8vr6OVdXcJswqiIlymjMvuWpxJ4pJCig9cCSpJ08IgXMyniQ8cWImzoljZhQ3SYAESMAnUMGb6qfwcJbwptiDajCR2KOf+KO+XgcV46u9KdZlUc2X1b2VdvFugE4jltWB6WXYPv1EUh7c67sXHuXrarmtaB8QRznNOTcGJ4pJ6hEB8Nyh0c/f4yiSjJlwTpqJNLZnt+HATRIgARLwCaR6UyxbihycpV7vlG/ZwwLmLkwiUAqy/orXVY03hfENIRhvWpQPeitp6O/pI7FcWQRWKojtW19fHw6HeFJvvKl+QKnv37kN4e6VG+U0V+oDmGQIAfxJEs/owSR3Qup1U87JEALP7uFwmHsxcS5BRVOL+0mABEggl0C5NxVTqE1eCAHrjvolUWkAJtIPFOeKRU2JhWuUn3nC83d8N//Y8RO+LDopCuaXpxxZBFYqyDN384Un3MLl92XwWD+EEL9mFzfnRPnNxVKyx49ymisSxA8z5XbNb65I049ikuCG2YU9pkCSACIoOp2OzwT1TcGP4pwErtI5iZoskAAJkEAKgXJvKj8Iur++p59rTPUbBUADk409lQpY5kSUXoXCw3QcLX1qrB8cx1F+c6hvCn4UkxRceuAMQGySJFBgJvtMUN8U/CjOScF1YOakGf2UzcnJyTNnzrRarZmZmZT6us7CwkKr1Tp58qTemVKemZlptVpnzpyZnPzDj9KkRIUQpqenl5aWms3m1NRUYohUYzdLcXE0fUSjn7R+Prt1NMmbyhon1iAXm8v4OSdxrtg0Nc2mCZTv+8sDfXngDgdsNnVNrKE6+eBnUw0mX9ZUTtyUX/vrbH9VX+64eFpqNnVNR9yP0iKmpqPpRBkRXdMR9KO0iKnpaDpRRkTXdAT9KC1iajqaTpQR0TUdQT9Ki5iajqYTZUR0TUfQj9Iipqaj6UQZEV3TEfSjtIip6Wg6UUZE13QE/SgtYmo6mk6UEdE1HUE/SouYmo5m1UPi9lqt1sLCQqXYqampZrNZz2KKDVpaWpqenq7U6MmTJ1vbf1WdNLvpc+Zo+nxCCKOftKUp7UqFJG8KO1jjH3ASe1oUKKZTjsKYSsfER+LfhcI7qXK0SFbvR6x+IcGXrcdULtbyjz/BmIqUXLvx70KJhS1txY9ymnOUnSi/uSJNP8pprkhQ1ozBiiQFFEmW/uwaZhTnJH7ALpEJqpnCvSBpmvA3uaDo84Ep4fJwEajRLyiOyaQtAr67+1O96e62SjUSIAESIAESIAESIAESiAnQm8ZMuIcESIAESIAESIAESODzIUBv+vlwZ6skQAIkQAIkQAIkQAIxAXrTmAn3kAAJkAAJkAAJkAAJfD4E6E0/H+5slQRIgARIgARIgARIICZAbxoz4R4SIAESIAESIAESIIHPhwC96efDna2SAAmQAAmQAAmQAAnEBOhNYybcQwIkQAIkQAIkQAIk8PkQ+KP/9b/+t/x3+PDhzycFtkoCJEACJEACJEACJEAC2wToTTkRSIAESIAESIAESIAE9goBetO9MhLMgwRIgARIgARIgARIgN6Uc4AESIAESIAESIAESGCvEKA33SsjwTxIgARIgARIgARIgAToTTkHSIAESIAESIAESIAE9goBetO9MhLMgwRIgARIgARIgARIgN6Uc4AESIAESIAESIAESGCvEEj1plNT952/sHpxde3i6trKpcsPTD+oezA3f1oOXVxdW2wu60N+4APTD65cuiyx5y+sTk3dp2MXm8uQnZs/rQ8VyR46NLl0dgVRF1fXjh0/oQNDCI6sqZm42W63h8Nhtv03GAwajYYO7PV6cijLsm63qw85ZSfKb65I049ymisSDCE4UX5zRZp+lNNckSCTzLKMc1Kmhz+7cqdQt9vFySuF4XDYbrel8uzsbL/fR4V+vz87O5urY3Y6M7lGkiEEP8ppziSmN50ovzktwjIJkAAJ1CCQ5E3FQcJ0LjaXtT3Vm6am2dQ1QwjHjp+4uLomplM8Jeyp2dQ1Qwi+rKYgphn21JfVgenlTqcD0yn3KlgBs6lrOvp+lBYxNR1NJ8qI6JqOoB+lRUxNR9OJMiK6piPoR2kRU9PRdKKMiK7pCPpRWsTUdDSdKCOiazqCfpQWMTUdTSfKiOiajqAfpUVMTUez2+1qM6prNhqNwWDQ6/Vkp2yW2lPTtM4qhKA3TU3dtCk7UUZE1zQietOP0iKmphZhmQRIgARqE0jypovN5aWzK4cOTUoz4vDEqopNhPkTxwnn6gRqEZGVpVCxqseOn4CIHJ2bPw3n6sgaEFrT5BbLmtiUTbk04/4UQpBblKyPdjodc2PrdrtwrkX6TpTfXJGgH+U0VyQoN9GirvnNFWn6UUxSuOnZRZKGgDNJ/NlldPSm402d5rSCKTtR9ZL0o5zmTGJ604nym9MiLJMACZBAbQLl3tTYO6x3ilPUljGEII5TVkP9wNjUyhqnmGDjPkVKHtD7sgaEqezImsDETXm21el0UF8eAsrySa/X0+soYiyyLNP1EYiCE+U3BwVT8KOc5oyO3nSi/Oa0iC77UU5zWsSUnSi/OaODTT/KaQ4KccGJ8puLpWSPH+U0VyQo70UUzWS/uSJNP2qPJBlC8L2pOZdN2rl9N3X0NcFnkquGp/n6krIHL0FFyXM/CZAACeQSKPemxkSKGX34kXlZ19RuT4zg/KnHl86uLDaX/UCzMio686ceP39h9fD9R0RBMhadhx+ZP39hdW7+tC9rOrnYXMZqq1mpNbImMHHTLDDIjWdjY2MwGJw7d67f72NJVW486+vrg8HAeevULEuYKKc585Krzt+JYpICSg8cSerJE0IY2znpe1O8yiync6/XM08SDMYxJxnT4B4SIAESKCJQwZtqbwdnCW+KPagGE4k9+qk66uulTTG+2ptiXRbVfFnpJ77tpF8M0GnEskWA/P2wffphqzy417YPj/J1tVxl7QPiKKe5FEelW2eS4iRiJiRpZubYzknxpviqkxTMOzny8mXuF84MRuNNx+rsjlFwDwmQAAk4BFK9KZYtRQvOUq93yrfsYQFzFyYRKAVZf8XrqsabwviGEIw3LcrHdFVykFdjkViurAlM3BSzuL6+PhwO8VjN2D79FE87odwm4ANyo5zmSh0Vk9RvA5MkntFzTuaeibLTeaaPddNOpyOnLb4TWSQ4tmd3ERDuJwESIIFcAuXeVEyh+TEmrDvql0SlAZhIP1Bco17XlF93wvum5ueosFzqy8adRKr49Sj84AC+8g9zHIf7e+SZu3mWB1vZ2/71KDzWz305LNZ3ovzmYinZ40c5zRUJ4q6c2zW/uSJNP4pJghtmF/aYAkkCiKDodDo+E9SPC443ldc6O+pd85TH+s5MrpekH+U0F3cWe5wovzkosEACJEACOyFQ7k21ZZSWsACZ6+2wMuoHahGRhanVj/7RN2Mxi343APVR0IE6N6mgjyIkvYCFEIToVSg8gsdRPMjDnrjgRPnNxVKyx49ymisS5Pf0QYbD7c8ugDIFP2qPzEn/fdPYicZu1fR6bE+cmEPpnsnJyTNnzrRarZmZmdLKpsLCwkKr1Tp58qTZX7o5MzPTarXOnDkzOfmHH6UpDZEK09PTS0tLzWZzamoqMUSqsZuluDiaPqLRT1o/n906muRNZc0Sv36vv2AkBhTfNzI1zaYJlF8tlTVLsapwnGZT14QhLspHozE/jOrL6sD0srxwJssncsfF01KzqWs6+n6UFjE1HU0nyojomo6gH6VFTE1H04kyIrqmI+hHaRFT09F0ooyIrukI+lFaxNR0NJ0oI6JrOoJ+lBYxNR1NJ8qI6JqOoB+lRUxNR9NZNxVBPDqQTynmbdRY2TSts8Lvm+ZeTGIp7NEiRt9s6poIjwt+lBYxNWOp2nvE7bVarYWFhUoiU1NTzWaznsUUG7S0tDQ9PV2p0ZMnT7a2/6o6aXbT58zR9PmEEEY/aUtT2pUKSd4UdrDGP+Ak9rQoULyjHIUxlY6Jj8S/8GQeuxfJ4ol/UYu+bD2mcrGWr0rAmIqUXLvxdQq565S24kc5zTnKTpTfXJGmH+U0VySIezNJakQkaX6qScMx5V2fk7IUivM3yzL9Ao8emizLzLlvcsPmrie5X04cEEgpcEGxlBIXFH1Eo19QHJNJ62PfraOp3nS32qMOCZAACZAACZAACZAACRQRoDctIsP9JEACJEACJEACJEACoyZAbzpq4myPBEiABEiABEiABEigiAC9aREZ7icBEiABEiABEiABEhg1AXrTURNneyRAAiRAAiRAAiRAAkUE6E2LyHA/CZAACZAACZAACZDAqAnQm46aONsjARIgARIgARIgARIoIkBvWkSG+0mABEiABEiABEiABEZNgN501MTZHgmQAAmQAAmQAAmQQBGBP/rjz/4OHz5cVIn7SYAESIAESIAESIAESGAEBOhNRwCZTZAACZAACZAACZAACSQRoDdNwsRKJEACJEACJEACJEACIyBAbzoCyGyCBEiABEiABEiABEggiQC9aRImViIBEiABEiABEiABEhgBAXrTEUBmEyRAAiRAAiRAAiRAAkkE6E2TMLESCZAACZAACZBAPQK9Xm84HLbb7XrhBz6q2+1mWdbpdEbQ0263OxgMGo3GCNqq3QS9aW10DCQBEiABEiABEign0Ov19r4fKu/GPavR7XZH5t0PlDedmrrv/IXVi6trF1fXVi5dfmD6QT1Gc/On5dDF1bXF5rI+5Ac+MP3gyqXLEnv+wurU1H06drG5DNm5+dP6kC8rNSWrSrK6ifRyu90eDofZ9p8+/RqNxmAwkP34f6/XS1GenZ3t9/tZlnW7XV2/0+lASgqlExpSCNRJijhSNc3ppuNyr9eDpg6Uj4A4lGVZaZIiXkRSjhY1Fycme2JWOklEodHEz6yon2WZIalRJ3ZZ0tCa+PRsdmZZljh5QgiaVRyFPHOBgAwKpSRNhZ2TDCFUTRLZovv9fn92djbeLzMzPqpr6rKGiSi9M32GhxD0sOZOEoFpppbOx5Tj0w1J6pqScO4hXU2XdR87akWn3nBrZZbHjcC+8KZyH4wvmCMYrKreND7r5bKWct04ON5UHCRM52JzWdtTvWlqmk1dM4Rw7PiJi6trYjoPHZpcOrsCH2k2dc0Qgi8r00jqXFxdg2YIwZetN//kMi33eLmbYnLUnugyTdfX14fDoXEPnU4n937mJC9Z4XwzSUpgp9MZDAZXr15NvHUZEQ0hhFD1NEMO8OJG32ya5or6bljlRomynNX67utoFiVphluaS9GUq4we6Ndff73RaIiJgYLoY3YVZSjODMMtItjE6OTOriJNn6QZbukO0nY0i0jWSxINCfksy/Rkjum12+319XVE5RacqF6vp/XjQcwVbLfbg8EATzbNg05MoUo38pQ7TS6T3AxlZzxtULnecCOchfEkkDJLP3cyOAFHn4m5xqYnIDnr20dp7L4Yi6Rn+ovN5aWzK4cOTUqfxeGJVRULeOz4CeA4dvwEnKsTqEUkVpZCxapqETk6N38aLtORRRpSZ/7U44gSN4zcYlnEphfE2egbv54o9SZ6p9ORe57cHsycqzGD4yRjkd72n7lxOhxiBT3dzd3L0cGhOElN0m8OIqZgouImQghSR4xaqZ2KFXSSxqxIZW1fTHqymTvK+pDOynEMueKyUxsdf3YViTgkfSZFgn5UvSSlLSib4dAQirKK9ztRRl8+ElT93KhHXzKX4XbajZPUp158FCvQco6XTkhdP1YDXhzSpwB2skAChkDpLDX1P5fNerfsXUnVXGPTNWucgDIWKysreK5rbEZ66/euZrk31ZZR8pBVTPF82jJiYVJWQ/3A2NTKI3gxwcZ94gn+seMnfFlkKB7UpOfI1kMstxbtHmT5RG4AO5zo+r6F9GrM4Ph2YkQkz06nIzVTpqm5MYsCHkbX8KY+Sb85wDEF082YA87quHUjJZtxNQz3Y4891u/39acUWfwrXeZ0WMXNiQEq1TTJ5xodEU8Zazh4rPZpklLWjic3bZNSXAck9VP4SklKE7gF6jlT70z0o7S+nh6JSP2Q3CEzDLGJLmOPKaBCnLOpKZvmxNF16g23VmB5PAlgEu7l7vun/D3N3Dnp/HZxF/Or6aNyscX9unbTWnPXy+Xe1JhIcXsPPzIv5k+7PXGN86ceXzq7sthc9gPNyqhe5jx8/xFRkN6KzsOPzJ+/sDo3f9qXDSFo86q9qVmpNbL1yJpBlUv/xsaGuIcdTvTcG7NpMSVt7SRCCHFW8kBfvrWXcvcygpLn+vr6YDCQG7Pjt4oSNv3SJM+dO6dtX9xcomacFTormvozRq6mk2Sj0YAaYuMWcUgK8Z1eV8jNyjwF1vVzy0VNiHiikTIdN/0SKZnzUjYePU7MCOrh1t8erZQkXuXE0iMcc/r7FTpVPyoe7sS+pzRR1Zvqd7vRa2lIsoqZ6DRMWWzE+vo6ZLWmCFYabqPPzTEkQG/qD7q5JPqV9dHa3hT3uxoKOoF7VK7gTbW3g7OEN8UeVIOJxB79VB31YyupvSnMJar5siEEhJiyTgN1IFuPL+aTHl2chLIT13cpJLoB3GhNfbw3Bll928jthbgT1Dfv4ZnXE9GjXCnZqb2p6Sy8qW4u/s5QLI52Y5Lam+Y2F6vJnpgVzkbglT36/l2kppcP4yQbjYY0h/ESTf8hb5FxlBxyszK+0MlWDslHTRZLDQAAIABJREFUZGSF+iIe70cFXfBJ4ilw+gx3hnsn3lT7RV2W/PXo694Vlf0orS8KMitKfTmak/q5q+CVvCkE8clTa+o8dVlHmXJv+zuO6Ijkqa8z+pKSOIVME9wcNwK4dO/ljlc9hXexL7gkVtWUnCudhmYsaihUTbJG/VRvimVLaQPOUq93yrfsYQFzFyYRKAVZf8XrqmIZ4U1hfPVqqC8L5yp5woPifYPF5nKubA12MCvmbUUM/A4neq57qDGDtZWUbuq1NzMvU3KGoL7VaZ2q/sknCW9a1FzR2BlWwlPuuOiCxOa6wFhWBIuGW3oBU97v97GCHkvJHklD3/V1zdys9NjpyrllMaYwGbpO7uzSFXTZIQmXL70QP6e9kdZBuZSk1NxJknq2+C4TWZmCH6X1dba5tI0yTGTRR5fa3hSTUIy4Gbg45zix3PdGtI4MSqXhzm2FO8eKQLfbLbrQ7R0OKbe/e5StfnpZqQl9500MhEWR+jUUEhvaSbVybyorixdX1+Ag9XqkfklU8sBKpB8oJtJ8MwmuUX49Cr8MgO/m433T3HxgakFEe9MQgiOLkEoFuUybGwxuADuc6Lk3Zn2TSEzV+DDcF+UmKjdgOCoplHoLs7ICgyJ3xBre1CfpN1fEIWaFxMzJKa1L8kVq6GPRcMeBmAnxIexxvGacle9loSkFGdmi+0Hu7DIK2HRIyiTXrYiyb9GkTinJ9CTjy6uGn5ISOouCH6X1JcT3spDVy8xFU24n3hTQfCY6H1M2Zwc+Orbb7XrDbfS5OYYE6E39Qac3NXzKvalYun3xPX3xu/hJVF2Qb25h1RYUjHnF/sRCke2TBXa5jvs3aach3GN0ndgl6KO5ZT/JerfYOA19P4MFzM0nd6efpN9crqC+oaKCJCkLscaOY7PILsBS6AGNb/9oSw45alJTDE3uExmZAFrBqYx2tay2jKZC7uwydbDp8BedmInTdDrJ9CSFDAZRF/r9vnxTrfQTF/orBZmTRVHmxPEra2WpiS8i6EMo78Sb4uzzmejvnKFdKez6cBv9lM3JyckzZ860Wq2ZmZmU+rrOwsJCq9U6efKk3plSnpmZabVaZ86cmZz8w4/SpESFEKanp5eWlprN5tTUVGKIVBuTblZiYiqPcjR3eMveyWiaXqdvOvegIhF9s8ZaVe49qEhhBPuTvKl4Pvz6/WJzWf8wk940Nc2mronfN5XlWHkTAA7YbMovA2Dh1pfV1Iz19GV1YHpZbgBiIOSug7vyDid67o05vm2UpipZafeAtbrcaZ2StumphoAfp8TXukszlApaxOibTV3TETesYheFWDmkXSAOmYJu2mSla0q1xLO9t/16n66c+/umoonZpZsz5ZSaubPL6GDTISkQ9Apo0RuuUJNCCslKSRp94x1FShvNlN83daK0vkDw7aakl1iztjf1J57O2eDSm2Zi61GoPdxaP6Usbq/Vai0sLKTUR52pqalms1nPYooNWlpamp6ehmBK4eTJk63tv6pOeky6GU+bFKrb7/KNdDRT7n1O5rVHU16kSbmAxK3n3sTjanrPwfGmeKRe4x9wEh9ZFCimU47CmApE8ZFY+4QxlaO+LIbBeFO8dVoki8BKBbkfyFKNtg4yafQSTso/7SN3AhOFe79xCSl54nYITSRZpJZyazSy2tjhJyrQIvL3Ey4iiZU2COrmijS1mgQWRQnzoqNGX8uCJJ74S0PaA5nw3E2tiSuUmQmJDM24gJh8ODGacrRU2aSHDKUvcYu7SBL5lyZpwMY+zOSpx87E6s2iqJ76R9FSzmvRjEnqf1PKaErf9adKnRjKOsqnFDOBiCmYXusBNYfMZDA6tTd3sgQ1ypU26SDXTf2BljnjT84ihVGOZr1bNjLfyaSVs1ifaJD1C+PuTX06PEoCJEACJEACJEACJEACOyeQ9Ex/581QgQRIgARIgARIgARIgARKCdCbliJiBRIgARIgARIgARIggRERoDcdEWg2QwIkQAIkQAIkQAIkUEqA3rQUESuQAAmQAAmQAAmQAAmMiAC96YhAsxkSIAESIAESIAESIIFSAvSmpYhYgQRIgARIgARIgARIYEQE6E1HBJrNkAAJkAAJkAAJkAAJlBKgNy1FxAokQAIkQAIkQAIkQAIjIkBvOiLQbIYESIAESIAESIAESKCUAL1pKSJWIAESIAESIAESIAESGBEBetMRgWYzJEACJEACJEACJEACpQToTUsRsQIJkAAJkAAJkAAJkMCICNCbjgg0myEBEiABEiABEiABEiglQG9aiogVSIAESIAERkpgdna23+9nWdbpdEbaMBsjARLYAwToTffAIDAFEiABEiABRYDeVMFgkQTGjkCqN52auu/8hdWLq2sXV9dWLl1+YPpBjWpu/rQcuri6tthc1of8wAemH1y5dFliz19YnZq6T8cuNpchOzd/Wh8qkj10aHLp7AqipGBiHVndRKVyu90eDofZ9l+/35+dnZVwXGGzLBsOh+12u1S21+uJjv4/Yrvdrt7f6/VKBaWClo2j9NFut1uqqesjHyQZQtBABoNBo9HwNXV9CGZZhlR1Bd2QLxv3vfPZMkyn09ENpQ+Q6R2Gu5RJbqqlUboCaORKmZ2aGJKUOpiWKWOtZXUynW2SuhXhmZ6kVouj9NFKeepASTKEUPvEKRruXScZJ7nzOdloNAaDgZnnMWo9xLqcS3InJ44WZ5kESIAEiggkeVNxkDCdi81lbU/1pqlpNnXNEMKx4ycurq6JcRRPCXtqNnXNEIIjK4FI1XTblzWV0zd7vV6uW5IbA+4Eck3HzbKSvvEWEiu2APqOYG/7LzdKbArsoyRZyQqIbK/XQ5JaxOg7SZpD0jvB1W63B4MBnH0RcKMAV5GLqNPp5I5aLGL2pLeumRgRZ1NHOQPnKIQQnCS73e5wOFxfXx8Oh+kDXTTZ9DCFEGTOYzo5STpdM3NGTydH0B9uHVjUF10H5ZGRFG+6u3PSXILQqdKCg6j2iVPaKCuQAAmQgBBI8qaLzeWlsyuHDk1KjPZ/YhOPHT8BoMeOn4BzdQK1iMTKUqhYVS0iR+fmT8O5VpJFYuKGkVssq2uml50rtTYZIQS548LAJTYhN4kiD2GaSNTs9XpwD3H+3W4XRxMFdZLSTW0H5QZZ1IWiJnSSpo5uzhzSm3Em+mjccX20qJwelZikaciPcphoHSfJTqcjM9BvSKth6uoxRQXR0Z+4ZE9uZUTFBd21OP+UOekPt2kx8cSJM4HOrpOs7U2dJOt5U5+k0xzg7KQgrctabw2nrhfIq07CGml3u91+v99qtbA+nXihw1VRPnpJf/V55CdTu5u6OWk05WqPQe999lgvJUq6oAc0y7JEPvLZVbrZ6/XkqjKa9481ovQpVK+bMg06nQ4GNB2sIAKZSnCk3dpnmT85d+VouTfVllGalFVMcYraMoYQxHHKaqgfGJtaeTFATLBxn3iCf+z4CV82trwakyOrq6WXnYt47qGUW6xpXd+zzSFZHqtqdiUKJ4C5SWPKpl8ljWBsVuSsq5SniBRdxfyjoITrKfbogn9U10Q5d0xx1BT8gTOVselH+UdFJDHJRIai6bCKh9vMB3TNL+iu1ZuTTpJx06aJuILvyHX93SJZz5v6wy2nc/r9Vfrlk/SPajI7LNdoSJ4J4AFLt9utdB2rkTAshTQktialUVxpcSk2yRclIyOOKNFJvLrq9GoE4iUrySGx0atXr2JEJIGiC7vuslwQrl69KtPg5s2bzz77bL/frzqZtWZKubdtvjGCne2/lMB63cQ0kH5VAiupYiYkzp8QghkFmcPockpnR1Cn3JsaEylm9OFH5mUBUrs9cY3zpx5fOruy2Fz2A83KqOjMn3r8/IXVw/cfEQXpv+g8/Mj8+Qurc/OnfVmYY7xyipdNjW01svVYy8Ta2NiQr5Saz77x/S999kg+/m1PX2jS89ezX8o426W59fX1wWCQcvnITdLcUQTCxsYGTqGUVLVTiesndlw+Cayvr8u4ZFmmL6Ymz7iVeI8/3Lq+P3C6pi77UXrgdJQpJybpt2U0HZKiY65rznNwoyybumu156STpGk0cf6MmGQ9b+onKUdxghsORZs+yRonTlFD/v4aDcWXXL+JnR8193Uzex19GRp9Rco9lWKFGEvifI7XMtLvR9KEvinIJCn9IoHJX5/p5pDZxDUETafHGqn0zcQhKBVMTzWeBulggUjySUw+nqLp2ZZ2fBcrVPCm2tvBWcKbYg+qwURij36qjvp6HVSMr/amWJdFNV/WoJElXnn9VKcRy5rAxE2ZDfrBk75U4aQStbhyaSu5Fk1kxW/pi0WpmlSQDCVQT1OcEnK2pCubJHHp1DoQT0lSQBUlILIpTlc+VuLGbK4CGqPA1PeJ3DzjEdTDrUMME33IKftReuAckcQkfchG3yEpOsabpt/zpCHdtdpz0klSWtEjXjS7dMdHTFK8KT5HSaF0nvtJypw3mqV990lqjIknjqaaXsaVJD1EJlLpiZwuWFozvrIl+mMZGlydShtChfgqIVKlwxpbkDh5tGIKMujmNDd1EjcT+aAamo7zT2wxvVo6kFJN5O/XjMcuPQfTRO6lOG5dqpnZkt5oLHiP9qR6UyxbSh5wlnq9U75lDwuYuzCJQCnI+iteVzXeFMY3hGC8aVE+MabF5rK8foDEcmXjwJQ98TDrOysWz3EFr7R8GIublKSt0ruXjpJrNy6IyFbP8vhs0QqmHCcpdxT5qg2uZZWmfnzxRaOSm/4wgENxIdbRdztdjmNz98SdBUBdP66mjxaV/SgzcEUi+D6QvvTsPEmHpKSNgZbEzAd6J1sYsp3PSSdJk0DiiROPyD0lWW/d1E9SzhewNRyKNn2SNU6coob8/fUa0ta5asf9fHKPxlc2fS3NDZGd9YYmXvvEFxBTOgufVykKNzJzmju904dkiuoPSCkfHoAROcvZlxKrW69URqOVoqRyvW7Gd9t4RhUlY7KVBErHKLda1dWEopR2cX+5NxVTeHF1DQ4yhIB1R/2SqKQFE+kHinM130yCa5SfedJft8dyqS8bo5mbP41WHNk4MGVPPLFy716QMpMJ+3ML8R0irpY7z+JqskdOcnNu97Zfr9HXtUqacZISbuxjesclXFsrdEfYpr/xHZ/k+m6ny2jCLyQOd8zEl5WjTlTuwBVpJibpcI6VHZLxbKl0C8ntWr056SQZ9yhOO64zYpL1vKmfpBzVZ3fczXiPT7LGiRM3kbJnhw3Fsyil0ap1YlaJ17p6Q+N409xrpumOfMSFTUyfGDCIRrB0U0403VAiH1RD05UuLKWJ5VaIRzO3Wryzdjfj8zc9ByCSfFKuaVi8MBY2vdG47/doT7k3DSHAMkoSWIDEzzlp24qVUT9Qi4gsTK1+9I9uww37sqivU8WPDOjcpIKWNbEpm7ETjacadOSQmRM4agoyz0ovN4nTER98jTGV/cZHpk/T3CQrMTG9dr5GI7LpxrS0azXufCldy2USd9PscaJy3ZsJ15spSeIKVTrBRDlmhUkSz0BJOEW5qGtOc7qnplwpKk7bqOV+Fyr37HbGLtb0k6yxeuEPtySsnUGcUrzHTzI+Givsyp6dN2Ru3ruSlRHBiSD7c2eICdE1qw5N7mUtEVR6bnHCMIjxIX9PPKUTBwXV0LRM9fgW5idQ6SjaqhSV+6kS+ftS8aCYGeWEmyZSrmm5l7X4GuI0OrJDSd5U1izxpSI8JZcs9aapaTZ1Tfy+qfhasaowkWZTXhuFA/ZlNTvzi6q+rA5ML5vZXLT6JdVSbtjSdJGOTkymdcq5Kq3n1jQnvOmObi4uFyWpRYx+LKL3FN3mRaSSMcVJiF4b8cQLuk4PFh8fMGIC8R6jkLtZFOUMXK6O7NT8i+y+oeGo+STNBTE9YaemmTOmO0Wpmiing1VPHGe4q7p8P8n4Rl7UWb3f8NFzSXpa1QD5SdY7cXTCieWqDc3OzvZ6PXw7p17fE3NDNeMkNHzUyS3UTs+MTrqOBFadDJK8mWO5PcrdKYFy45MEzHdSc6P08jCaNh0vCtzJfmlCL9Ykfk+/djdl+LQxMDPK6U49bxrfxepddpzEduVQkjfF+qh8+R2/M4oMnH9pSXxkUaCYTjkKYyqy4iPxdXsYUzlaJIsn/rma+leupIKRRY8qFWRe4qVS/KNQcneU/ZXeCpXA3ItI77OflxNZ3DWdhHFFwKMcKUDfVEjRxC0ZIiaBIiammtksek9Rq6EX+gpidLDpdK3qnQ+aOhkYXznqDBzC40JRlEkeHS9irpWLktRzEoI7IWkEU6RgdpEACuia6XvinHSiapw4wnNkJPHqLWik/7tQRUnKnU8L4meA9GyJyw7J2idO3EruHjOjJHlzouUG4h1K9Fff8otCdrjfPCVPzBOpYsJXSsOMTno3Y7aJJ6xMsMTT0PRFI+p0OsZRmcrYRDU0Lb1OJwypqgV9rUgfoHrd/Fy8KeypnCmVzElVmLXrp3rT2g0wkARIgARIgAQOJIH0Va7PvftiTLXZEre3N63J546LCXy+BOhNP1/+bJ0ESIAESGC/EthH3hQLkJp1+ksIOoplErjXBOhN7zVh6pMACZAACRxMAvvIm8brpuJW9UrqwRwk9mofEqA33YeDxpRJgARIgAT2AIF95E3xJQG8j1v126V7gDdTGBcC9KbjMtLsJwmQAAmQAAmQAAnsfQL0pnt/jJghCZAACZAACZAACYwLAXrTcRlp9pMESIAESIAESIAE9j4BetO9P0bMkARIgARIgARIgATGhQC96biMNPtJAiRAAiRAAiRAAnufAL3p3h8jZkgCJEACJEACJEAC40KA3nRcRpr9JAESIAESIAESIIG9T4DedO+PETMkARIgARIgARIggXEhQG86LiPNfpIACZAACZAACZDA3idAb7r3x4gZkgAJkAAJkAAJkMC4EKA3HZeRZj9JgARIgARIgARIYO8ToDfd+2PEDEmABEiABO4hgV6v1+/3Z2dn72EblK5FoNfrZVnW7XZrRTNovxKgN92vI8e8SYAESOCgEhixWRxxcwd11O5Fv+hN7wXVva+Z6k2npu47f2H14uraxdW1lUuXH5h+UPdtbv60HLq4urbYXNaH/MAHph9cuXRZYs9fWJ2auk/HLjaXITs3f1of8mVDCDolE+vI6iZSyu12ezgcZtFfr9cz4XKCJX4017LD4bDdbms1fXQwGDQaDX3UKetAnYneHzfnCIYQpF8CoNPpSOVut2uQ6OYcQa1WxFCUUz5GazXkozuoK8TNxXlqUBDMskxiG43GYDDQ+7MsA5NYzezRySAqJqnzNwp6U6vFXdNHU0hCWQciyRBCp9NBx+PmEB4XNFJMklySKbJaLQalj1Y6cUIIiNW9RncEC/LHfr8QR2mMwjPuRawZTxJkYkimqIk++ptlWRylj1YlGeefu2fEZnHEzeV2mTv3LwE5l3ENjE8Zv2v6FE650EFNXzHu0ZmItkZcSPKm4iBhOheby9qe6k1T02zqmiGEY8dPXFxdE+N46NDk0tkV2FOzqWuGEHxZsa1LZ1cOHZo0NH1ZU7neply1zQ0MEwj3DEe83W4PBgP40V6vpye6SImfmJ2d7ff7iTPS6CABvzlUiwvS09wTqdvtJmalZXvbf7LHiJueaghaobSs70BOc6U6qKCHW3xAJasnOqazEA8hdLtdPfr6kFN2ulabZGKSop8yz+WDTW7vhGTu1HJ67c9kPWcMBEdTDkl9ufGYU1v78sRei2buNaHT6eQC8TNMP92KLgJG/96RNA05m/pUdart1qERN7dbaVNnjxAw80e8Zsq9wFyL5NKXeCWRVnBFajQavV7vwLyXkuRNF5vL2uqJwxOrKjbx2PETmCLHjp+Ac3UCtYjEiqcUq6pF5Ojc/Gk4V0c2hGCOIjFxw8gtltU1a5d7vZ6xZTL5xC4kzjndungCbUb1PTvRD6Xf83RzOg1TRqfMftlMv1nmhstOTTLOv0YTftd0c05W5pCOShwLo1BKsoZZMU3oJOuRdJIUqrg+wqvpPSYf2YwzQbV63hThUtDDHedfabAk1fX19eFwaPoFZXNzMsmYzaIoh4lR0Jvp50I8WFqnqLyLJIuawH5pC+tPKNS4ckIzpSDD9+yzz+I5mBloR0RGU1Ld+dnqNCSHMHk0qxQbJJ8GNcn0+dDtdvv9fqvVwqOhxBZLu+NU6G2/aVr0mdAP7PV6mk/6aDqyzqH49E/8HBif8pJ2Kd5duUg6PfrcD5V7U20ZJV1ZxRSnqC1jCEEcp6yG+oGxqZWn8GKCjb8UqYura8eOn6gqqxE7srpa7XLurMKdI56+KQ1pTSnr00w+OenLTayJa1l8KN6jm4uPYk98RuGQrPYZg66PJpa1ozLo5LSs9MRcrstOVrq5xAwNq0p2B02Uktz53U53rR5JJ8n4UAoHf07uymVXj069E0fGCN2JRfRUN2AxvrmFomtCDDM33OyEmtkfb+Z2Ia5m9uwWSSPrb1bi6UulHJVzBA+s0p9XmLmaHpiSVW4dWGFcGWQNXt8XcgN36E312x3pLRZlkr6/xqQVU4ur/QgGJZ6u+qwp6qwMpbl95+6MFWTimdi42v7dU+5NjYkUM/rwI/OyAKndnrjG+VOPL51dWWwu+4FmZVR05k89fv7C6uH7j4iCYBWdhx+ZP39hdW7+dIqspGdeYzUrtUZ2V4ZQmwAR1OdVPH1TGtVXAXPrEsGNjQ2chLmCMok3Njb6/T7WIYouZLq5XDXZKbfD9fV1COqTRL89k2WZPuRo6kP6/JQyVosF6fr6+mAwKP1wCU3/SqGbQ0hpwQy3cAaQROtcShJ3oNJ8civortUm6SSpZ7gkYO7WuVn5czJFIVdW79Qzud6JI2o4beOe6j2opnPILTtRJs/c8Hhn4ummZ0Is4uzZLZJOE/GhdJ5xbI09ZpUrfQaaDwbmFKuRSWmINKGv+ZJtysXQUNVT0W83fnxc6fLri/tH05OEjhnNGgqQSiwYsHhDHbetXJ2igYvVcsNx4qcMfa7CXt5ZwZtqbwdnCW+KPagGE4k9+qk66ut1UDG+2ptiXRbVfFm9+Ip1XFni1WnEsjsfJDkBzCzRk0yXE5uTuYvLEG5dek6bi2OsLIlpi2MuNAgxzWF/XJAPpjjxJDDXg6Zr6lYkQ4GpL/forCagA4vKxkeaaro5c6hoM3e4deVETZ+kiGi/i8mg23LKOo3aJJ0k4zulqZybmz8nZXB1r6v+iIyZdfVOHNxgOttf8pOcpSyd0me0Lud2GTt1TV3G6xC647nnFKTigul4CEEGSDSrTp4QghGsTTJO1d9jyPiVd37UNCfQSuHrEwo5GCns361CYm65zZnc4imdG6WfD0gFmRXmZlcUu8P96UmiodrdhELVgmkRJw5ukbmCRRj9u5WWEgU5u0unqw7c++VUb4plS+kSnKVe75Rv2cMC5i5MIlAKssCJ11WNN4XxDSEYb1qUz9z8afNGaexlc2V3PlTxfMJ1XMTj6es3KtNOe0oRNO+9wa4Vqcm5ra8juZfUuLkiwdzn46azOlavu+j9RWWxUzirka0GWHRW52rGBHQ105w+5JTj4TaVE28hsY4mucOnUaZrtUn6SYosHFXKknY8Isgt8bJuaOvNeCbXO3F0Ssanio/U56aenDoZU9aDGz9jNUdNbOKmc7rJIX0p8DV3i6TfSu7RRJ65sTV2xs3Fe2JZ4YOZj8I9dQkyLes1YTqVbvvMXabS5TfmVmlPepKQrd1NKFQtmBZxucBdLFewCGOslhuud8qlXl+R9NH9WC73pmIK5V1P9BDrjmadUptIP1Aso/GRcI3yM0/4ZQB8Nx/vmxblA++LVOFN5WtS5leu9FGE1CjE99p42lWacLjf63UaacXMv1LZOBNz09WLK7o5h4O5VMW3ah0bw9FHTVlun+bK29t+KV6f55UuWLG1QqO5zeFoUSGxR067UPZJ7sSb5natHkk/SfRFCilD489JOaqH2zThbO7iiWN6rfsV5196GsJza2toonbFm/qT07Q4GpJOK0WH0vMsUqi03zQXXyFz1RKr5cbW3imNmitkoprppp7SvoI5F+L574fv5Gh6kmildjehULVgWsQzEP9+mjt/cnem5COg6l02U/RHXKfcm8bffMfKqLaMyFu7Q3hNOaoDdVmOYmVUP/qHLNzwTvLRuYmylkVbNQqxCxFngE/SulB6WZHZGb+wGM/alGtEaVRRcw6H+CZqLl46Nt1g5dqpXOPrNKebxudXbQhQoag5VCgqxMMd10w0WD7JdHQmgaKu+c0ZEWxWipKv9Po/ZeLPyUR0SA+FopnsN4dwXYCUPnNR/vnPf46yKThnd+k1IeasU0os+3MmvonmyqL75uZag2SufunO9BO8VCqlgsHi+3staAL1oXtUliFwppnTrslWFtvMEOeGm+FIue/k6tTYuR+9qYxRyis08dlao79CdRy9qSwu4hfsF5vL+DkncYrYNDXNpgmU7/vLA32xqvilKrOpa8IQp+Qjfhfrr75sjdNGz4lc96M1zXVBH9LloruC1JHbm1xN0i9SOso8kfeb04npsmnauZRL06Vw8EEz95prmjPd0YnF5SIfKSK5zcUieo/TWVSThFOuTaZrRjy+cqEJp+B0zTSXSNJEmSSRSXqvMdy4L+phqudNpfX4E52kp3tquoP8/YL0Ggmbyolntx+1c28q3Sw63RK9yL0maSDkbvodyQ3ZyU49fJWmh8yKUS5WVUrPMNHXE5kMRedLHKivZvSmhk88fxLBCknchtIvfe12++rVqzoN8w0wfWg/lpPWTWEHzTff0WHnX1oSe1oUKKZTjsKYiqz4SDlknuDvJB9fFj2qVEicE3r6OvpyUTaLMfo5vq6AOe0IyqGiKL0fjermipRxA5Mofc/uqd+lS5HSLxUgByngou80V5QhFk0hgppGDY2RzI1RAAAgAElEQVTGNRGCQtFwy12qkpRommQ0Sdw/IFvK06ghEF0zFXRz6GNccKL0cBe5olgQ9lQy1DNZLtDIXArIP1fKqCFW49JTXTdXJGj271lvqvnr/mL+g0ZirzUoxGplXSFR08BM2dST/961IpnoHuFfektJEq9qAFSiKUkUj6vJmVgbCGYLfq805Qow+nXT3IuA9scxGewxt1r/zEXUTgqgKtOg9GKl2zKX1vRLqJm0taeETmbvlFO96d7JmJmQAAmQAAmQAAmQAAkcVAL0pgd1ZNkvEiABEiABEiABEth/BOhN99+YMWMSIAESIAESIAESOKgE6E0P6siyXyRAAiRAAiRAAiSw/wjQm+6/MWPGJEACJEACJEACJHBQCdCbHtSRZb9IgARIgARIgARIYP8RoDfdf2PGjEmABEiABEiABEjgoBKgNz2oI8t+kQAJkAAJkAAJkMD+I0Bvuv/GjBmTAAmQAAmQAAmQwEElQG96UEeW/SIBEiABEiABEiCB/UeA3nT/jRkzJgESIAESIAESIIGDSoDe9KCOLPtFAiRAAiRAAiRAAvuPAL3p/hszZkwCJEACJEACJEACB5UAvelBHVn2iwRIgARIgARIgAT2HwF60/03ZsyYBEiABEjg3hHodDrD4bDdbt+7JsZQudvt9vv92dnZMew7u1yVAL1pVWKsTwIkQAIkcJAJ0Jvei9Htbf/dC2VqHjwCqd50auq+8xdWL66uXVxdW7l0+YHpBzWLufnTcuji6tpic1kf8gMfmH5w5dJliT1/YXVq6j4du9hchuzc/Gl9qEhWZ4LYi6trx46fQLgjizpVC+12ezgcZtt/+GjY6/Vkj/y/6gdxHd7pdCSlTqejNbMsS5fNTVL3VFpE/vpQUTk3yW63a5JM1NRqvV4PjTYajcFgYDR1BdSMC1qz2+1KBY1CZBPVQgg6djAYNBoN0dQNVRqXEIKORZLoi/DUbeFQUUELFnVN6iQOjZ9kEZOi9GS/H6W7EDMpUnai/OaKBP0op7kiwbEl6QDZa4foTXdxROKrd+ez29kutkKpA0YgyZuKg4TpXGwua3uqN01Ns6lrhhCOHT9xcXVNTOehQ5NLZ1dgT82mrhlC8GXNCM3Nn06UNYHpm71eL9cg9no9feMXh5Fyl5XbYa6lqH3RLEoS3YTr1TnjaFxwkux2u5WMlIjrT9VGXK5uuUDixLBndna23+8jE+mg8Bd9XCJFHzWhEBe0iNGvN9xGROtL61Lh6tWrg8EACceJ6T0OSVSrNNx+kjpnUxPNxQUnyojomrEO9vhRWsTUhEJccKKMiK4Z62CPH6VFTE0oxAUnyojomrEO9vhRWsTUhMJ+L9S+zO73ju96/riSyzU28Qq262lQcN8RSPKmi83lpbMrhw5NSvfEOIpVFZuoVyWPHT8B5+oEahGRlaVQsapaRI5qi+nImgEQTbhqX9bEJm46VzFjVmS9JNfF6rbkcl/kw5zmtIgpl0ah0ThnIyWbqJ97tJ43NVK9Xg9msZ43jXuNxIw3xWpoEfaiXkti4ndjdKWfB0IITpLSaLvdHgwG7XZbO07Dyt/UJE1H4pxzpZwk45mgmeSqhRD8KKe5IkGfpN9ckaYfxSSFW8pwFxGO9wvzbrfb237o1O12xQqXXjYhpR/a+KczQqQg1wQ8nElvUXKWwPQo0/pB3ex2u8Kk0WjcvHmTr/Ae1IHe9X6Ve1NtGaV5WcWUxUhtGUMI4jhlNdQPjE2tPI4XE2zcp0jJo3lf1gCamz8NoxxCcGRNYOJmfPfSgfGNXy5//tJpfM/Tmv5RXRNlP0mpBtMW5wwdXfDTgJoOqVrWjqqeNzV9EZEsyzqdTuxN5ZMD3HButnGU3Ahlpdk0B7/rD7eJ0klKDvgCQafT8dPLzTm3Xxgg07qjoFfTdZI+kyJBP8pkpZsrEpRuMskQgjMnPy+SzqiZQ3KxunnzZnf7bzAY3Lx5c2VlZTAY+OcRPvDgHJHO6ilh2tKb4oCxqudf33SgtAITDCum64xzWWajXHLlM/Y402Df0wmUe1NjIsWMPvzIvHg+7fbENc6fenzp7Mpic9kPNEuYojN/6vHzF1YP339EFKQbovPwI/PnL6zOzZ/2ZXXPJR8smpqVWiOrA9PLcmHa2Njo9/v4wI0LnLnFwqzgQpbbkPiG9fV1COrLa/pFE+J+kshK0o5zho4u+EnqpYssy3T+WsQpyy0KgeYG4ATikHHkYobW19flJhd7o5RVbQNfWG1sbMjtMEYnrTjD7SeJ263clXNzRn+LCoZkjeH2k/SZFGXlRJ07d67f7wOaGbgiQSYpZPSc3Dski0Yt3i/jKCcUbE3i6W8mlSyly2fRuCG9x0ye3DV4XV+X8TFPdsZSuvIYlmXs5F6Gjw1jyIFdrkqggjfV3g7OEt4Ue1ANJhJ75B1TMbWor9dBxfhqb4p1WVTzZXX/zaKpTiOW1YHpZblx6uc4uJ7GCzkhhJSLrDzMwr1ZQuDS5PM9bGuK8/OTNHnGBiuXhp+kDpH8q16VBCNWSvQFDn3HUd0cyvomgfuH6HS73VyfV7rmgZsfdGSZqsibSjUMJXJDwU9SfCQWG3RlKJQWDMkaw63bjUn6TIrSc6K0o4qbKxJkkvGc3Dski0Yt3m/GEY+DB4OBcx6Jjn7SIns0k7gt7ImvBpifqJNb0NmiQuIlFPXHoSBXIbl0Y+1mHDrOPtYmkOpNsWwpLcFZ6vVO+ZY9LGDuwiQCpSDrr3hd1XhTGN8QgvGmRfkAhFk0xfsGi83lXFkEVirIRU2bJH21ii9SUt+/yMZXWH2h1OXEVP0kjWCcc24rfpImxDwvM0fjTbmQaUqlJi8WwUDoHuFeFd+N0tdN19fXh8MhrrDwT7ohyad0uP0ktfEVwVL3bDjEJGsMt5+kCBYxMflg04mCo9I8MXBQMAUmGc/JvUPSDJaziXGUyV/Vm+IzvDSReN2IrwbmNClKWPTxaRkFk0ZR+Fjtl9NZfm5FX9vHCgI7m06g3JuKyTM/w4R1R/2SqLQKE+kHinPVL4Pq90HlZ57wOB7fzT92/IQvi56bRVPZ78gisFIhvmXqa6u+uYpsikuD10Em+kKpy6jgF5wk40NxzrnifpImJDbHpoLeFETm4i55Vr2imcVd/Tg7vhvJwJl2dWII18vkehkyRpcy3E6SkhJueCjoz0ImQ70Zk6w93E6SQrKIic5Hl/0opzktYspOlN+c0cGmH+U0B4W44ET5zcVSssePcporEpQpnWWZPt2kFbyoXXW4nbbMIX39xCexxNM/PgHjCW+ak030DkcTL7M6W8SyEBMQUHLhSvmGaKzAPeNGoNybassodLAyqi0jwGFl1A/UIhILU6sf/UMWbtiX1VLa2sp+nZvs0bJoK70QX5v01dBcK6Vy6dPt+LKojWB8tDRbJ0mxLzA9uuC7tDgNnaRJCfcYsz/ejO2U1Em8ORlBJ8ncu1GWZb7tc0hqkypp7Hy44yRF0x8aaT2X5L0Ybp+JGRFs+lHOwEEhLjhRfnOxlOzxo5zmigRzX2TEieM3V6TpR+2RJIuSj/fr7uC6kXj6x52N98Qt4lUrnPuSg/HfuYHxWV9UrWi/tJXyUmyssLCw0Gq1Tp48GR/y98zMzLRarTNnzkxO/uG3d/z6ODo9Pb20tNRsNqemprAzpSDd7Gz/rCmGNSUwhLCPujk5OXnmzJlWqzUzM5PYO1TbR91Ezve0kORNZY0Tv36/2FzGL4aKU8SmqWk2TaB8318e6ItVxS9VmU1dE4a4KJ8QQu6iKR7roxUjWw+03O/lrJNLFdyn9qbp1yCpCf8hBgXXzcSrremLk6SpqXM2h/Smn6SuKU0jf33IlKUmOq6PJt6cdAi+SARBDcHYPqdpo6lFDASNrvZwa324Fp1DypU9vTs6Z92KKZue6iTNN05MTaOjN7WIiTKbuqZWMGU/SouYmkZHbzpRRkTX1Aqm7EdpEVPT6OhNJ8qI6JpawZT9KC1iahqdGpsiKEu2mOqJp79JJjFKktQvKUkZ73n7vZAriV5j9uuboxJuVqlNndzNqampZrNZz2KKDVpaWpqens4VL9p58uTJ1vZfVe8lY4F193Rc+6ub4t1brdbCwkIRw9z9+6ubuV3Y9Z1J3hR2sMY/4CT2tChQ3KEchWWUToo9xb/thHdS5agjK+uvRg3gfFlUq1SQi7UsOsIJ4dEYFiPTT0i5yCIQxjd33SUx1aIkTXiiWYHzy01SniTKocTlB9NlyAo0ubRhpxRSeBpZkMQtoVKSwqqIpO51pZtNbpKyM+6jZO54faMGaLFUpVUfIwuSPhMzu8xmEUl/dhkRvckk4y9H+kw0PV32o5yB0yI1ytKuzNWq3jSeNs5pYnLT/ZXvSiZ6Uyy74kSrtAiKds0JZdLL3dwXK23mqlj6bCru6b7opqTNddN4+GrvSfWmtRtgIAmQAAmQAAmQwNgSqP3bzGNLjB2nN+UcIAESIAESIAESuFcE8A+I3KsGqHvgCNCbHrghZYdIgARIgARIgARIYN8SoDfdt0PHxEmABEiABEiABEjgwBGgNz1wQ8oOkQAJkAAJkAAJkMC+JUBvum+HjomTAAmQAAmQAAmQwIEjQG964IaUHSIBEiABEiABEiCBfUuA3nTfDh0TJwESIAESIAESIIEDR4De9MANKTtEAiRAAiRAAiRAAvuWAL3pvh06Jk4CJEACJEACJEACB44AvemBG1J2iARIgARIgARIgAT2LQF60307dEycBEiABEiABEiABA4cAXrTAzek7BAJkAAJkAAJkAAJ7FsC9Kb7duiYOAmQAAmQAAmQAAkcOAL0pgduSNkhEiABEiABEiABEti3BOhN9+3QMXESIAESIAESIAESOHAE6E0P3JCyQyRAAiRAAiRAAiSwbwmketOpqfvOX1i9uLp2cXVt5f+w9/66bSzb9u6jVGAFhPe6+1qAAxkWYMCCHRCQbEjHAQGCEIxlXED0Fe5KmBggoCdgyGg7W1E/AKOdMGHCh7o4GvuM3zyzumcXWxRFiUOBUV1d8099Vd01WN2k//r15vit7fLn/lecup3cXQ2u7anY8M3x25u/fsH2x89Jr/fa2l4Nrun2c/+rPRW7tYYbubUhCsvz+Xz9v/8Wi8Xp6SnNLy4ulsvler2ez+esLClUVUXH0+kUJi5cVVUlrlJK0+mU3nIrG6skT+sNbq1Vfna1Wo3H45JUYbtcLi8uLtieDNmF9Xqd94LtbSHomj1V6C3oWrckS6xsnm522Z66skjmk0QkcyZu2qSUHm9O5rHyGneLwyXvbgi5lWpEQAReEoEibQoFSdF5Nbi28tQeupbu0LZMKb17/+F2cgfR+erV0fD7DXWkO7QtU0qBWxgOv9+8enWUUnJ+3KFz221c5/N5fN+cTqfL5fLvv/8uVxXj8Xi1WrWqpcJmKaX5fE51eHp6urj/g4DGIbsAQWOFZi2W6XRKhxS+tHJnaz3klVgRq/s/5oNmPJVbBTVx1xAI5uUkg651SzK2wllLYzwez2azoNfUFiJpKYmkpRGXH2NOxhGDs0iG95agpU6JgAi8GAJF2vRqcE21R8EHqQqZ+O79BxJ59/4DlWtgCJlIvZtSwlYopKp1As+f+1+pXAO3cT6xW3Zho0KrNoVEGI/Hy+WyZO8QiqpVmCLJqqpaJS+E1/R/dl4pJVGTi63WHsGD1aYu59xnK1J4QEpVVVk1ZsVWqx/bIE8j6Foe1LpiOffJU/GKzmauEFsVZmV9iqSlwbJIEkVrYetzsjVi0KDkFmfNMf+x22rvUbaNyiIgAntOoF2bWsmIzmC7EUrRSkbKVuyGxoa5iMSLARDBTn3yCf679x9K3NoXAGyGgdvO4xTIHYqq6XSKO2bJp/9A/eRJlty4c4d2K8J5wKn1em21bB7X+UTvqKfd2dw8rsllRLxYNnnbqGt50Fq3Qde6JRlYBadqc8sr80518ymSIonZ1W3+5DOzsCa43Go94HM4P66fnp7+/v3bvmFVa6VKERCBfSPQrk2diITU+/ipj81Rq/agGvtfvg2/31wNrmNDt4UJP/0v3378nPzjj3/CA2DBz8dP/R8/J5/7X2O3KSVoXOzIooxtXbdT69x2Hhj3dhRvi3CIB/p4ddIt8E0RIXZnsxnfrXQ+aYjn77GITCnl+6ZcYJymRMvZbLZcLmMZ7dYM+85AvqvKhAsLW9EBG3UNjZs427Rdx+0pUrWVreXAqnB8gxAiCTgiGUyS/NSjzsk8XFONu4Sbmtn6wnusNVFZBERgDwlsoE2ttqOypDZlDZtRRLIG75hC1LK93QeF8LXalLuebBa7BWK0cV/bsmnkbrcyNrin2+fR9qXGQNbY6NX9V6C4BwmfVjZhoYVyjRUk3OIW77LCVyLs3Z8bwIgYe7Y5IBMrkfOzNn/b2dpyk6KiWC/p+0ZdwweMuMtINegauG2UJHfWa60Qy4KtxRVUiiTGVCTtBGud58FMfjjJYLq6U7wjufqmw5IbV5Ot6kVABPaKQKk25bYlsqeytPud+JY9JWDtxiQNUcD+K19XddqUwte+jRq75b4pHuvjC/vYQ2VitW63NSr23u3ulTik6GyKmOuJJlGbi84mn2jJ9Yk7oxRwdr/BpV3r06WEDVd2zZ2t9RBU5gQK0Vmf5V2DMGXy1kleDrrWIUlq09rodi7lmZTUiCQoiWTJbGGbYCY/nCSjxIX8aU/cvvYBUauJGoiACOwngXZtig3L28kdFST0H983vZ3c2W9KcYMzNoTE5LemQIeq0WpKnEJ7vm/alE/+1Xv7WD9wu63hwS3V7tZQEaJg9y9rg+a7BYEe6nAHdzdxt03rztZmWPvU3j7WDxJucmjrt6KoUkolXcNaW76tG3QtWNFt71w5sHKK3xmWHIokKIlkyWxhm0edk4wSF+yn5bglzyLt1l1htldBBERgbwm0a9OUEiUjusENSP6ck5Wt3BmNDa0TuKWotY/+CY5P4WO3VonC1qpVmxvOWreM9ZCClWj57bVk1yFXP7laZYbdtOl8Pqca2ygc48ZW+VkalhS2pajyNBzJTYVprShnj4IVnW3yQmBVvi+eu0WNSIKDSDbNkNr6R52TtRFdZX7luga1hxhl3tlq28SVJycno9Ho8vLy6Oi/f4Kw/O/4+Hg4HA4Gg16vV26VUjo6Orq8vByNRicnJxsZppTOz89Ho9HZ2dmmhupmTEyjGfPZzdkibYo9S375/WpwzZ9zglLkoWvpDp0hVKP9ohL3X6FceWhbUhDX5oOINIQf7s7Gbh9OHFoHH9xrP8QHN31Gd3dYqM/azQB42+henC/SLlyJes4lmtuX6ra0kMC2FFXctQ7CNO84c46fzttmrhxPCYC1e+0lv2/KECJJFCJJFK2FR52TrdFx2da+5dJqi4uatpt+Tx9qbzgcHh8ft8ayDc7Ozkb3f5tKTMig0Wh0fn5uHbaWe73eYDDopqTVzRivRjPms5uzRdqUcrDDf+AEsdhkCNGJsxSU6Dl0JP9fKLs1G+djI95O7qibS9x2gI4Hx3heb39Or0mf5XIhD4q7M18GsN+GseFaf+mJnq1VLnODcPTgClgDmKHLpKnvzok7tEnSM5YZLJasRIErkPNjD5u65urpudVn0LVuSbZauVRLPoqIZO2AimThhfMYc9JelXHZ/fIJcra31tgcH0I2tYJPbSjGbLWhGPM5kF3wGMK2zpZq023Fkx8REAEREAEREAEREAERaCIgbdpERvUiIAIiIAIiIAIiIAK7JiBtumviiicCIiACIiACIiACItBEQNq0iYzqRUAEREAEREAEREAEdk1A2nTXxBVPBERABERABERABESgiYC0aRMZ1YuACIiACIiACIiACOyagLTprokrngiIgAiIgAiIgAiIQBMBadMmMqoXAREQAREQAREQARHYNQFp010TVzwREAEREAEREAEREIEmAtKmTWRULwIiIAIiIAIiIAIisGsC0qa7Jq54IiACIiACIiACIiACTQSkTZvIqF4EREAEREAEREAERGDXBKRNd01c8URABERABERABERABJoISJs2kVG9CIiACIiACIiACIjArglIm+6auOKJgAiIgAiIgAiIgAg0EZA2bSKjehEQAREQAREQAREQgV0TKNWmvd7rHz8nt5O728ndzV+/3hy/tZl+7n/FqdvJ3dXg2p6KDd8cv7356xdsf/yc9Hqvre3V4JpuP/e/2lOxW2v47v0Ha5hSsmedW9ey/HA6na7X6+VyeXFxQauLi4vlcrn+339VVbFBUKiqinbz+dy2tKcKvSE9Olyv16vVajwep5S6JVliZfNcLBanp6e2F03lWpKnp6eLxcLmv16vC/tu0zgEkuPxeLVaWVY5KNdmOp02DQfr3RDYAZ3P53E4OrGFYE6iGeeYGzXrxJbZPk/G9bd88sB/7ZxMKVm3vKBsSk3lQ5uTTRxULwIiIAK1BIq0KRQkRefV4NrKU3voWrpD2zKl9O79h9vJHdThq1dHw+83lKfu0LZMKQVuYTj8fvPq1RFbUoDGbmsBtVZiRazu/2q1aa4MYp8QAXSFdZHLMwLBA5bGEv/T6bRp7WT+cVbubGyFs+wCVvHZbOacuEP6rKrK2qaUwKSkp9bnYZLErKDczMcCUpIzKqX0r3/9y36msgxR5tDYQytPabKVOQlv0+l0uVz+/ffftYEYkQWXJOspIgMmtrEt02c+J8fj8XK5xAe8lFJVVU2XmHV4mHPSElBZBERABFoJFGnTq8E11V5KCQoPUhUy0e5Nvnv/gco1MLROkCW2QqEjrROc/dz/SuUauLXNYHg1uKZh7LYVVt4AKw3WvHz14sKWGwY1uY6cz+dOq9E8D8pTtpD75NluScZWhVkxB6rPJpLdtGne60Mg6bQplRmUPc5aYWpHoam8KckSNZn7dNHxMcxJQNfGHgZzMmZindhyfHXbloTcCjbv9SHMScdKhyIgAiIQE2jXplYywhd2MSH4nBaE4sRuaGyYi1q8GAAR7NQnn+C/e/8hdusMsTvbpJWt2xhTydlckAWLZeCwqiq7tMPJer3mro+1zYPasyznKyJPdUsysApOMWhcyDvVTZseJslch2FXDx9v5vN5yfaeGyBs3tsZ6Nja9sEp2yyYk3zVZDqdYuhbNR9NajfXYyY2q6ZyPiddy0LR7+Ac4NXtuOlQBERABHIC7drUiUiI0Y+f+hB8VgtC6vW/fBt+v7kaXMeGbgsTfvpfvv34OfnHH/+EB6QLPx8/9X/8nHzuf43dOq3MNwfevf/gdmqd2xzNpjX56tVBpTkRhgVvNpstl8t8eUZjK2Sbcg50QIckYx2Q65imrJrqc5IOS5OhrXcmh0OySYetVqtfv34t7v8K3/21PKv7F6AxCYPn1+WjH8zJlBIe6ONNA6fnbFa2HMzkgAkfyltXeTmfk65NSccPdk46VjoUAREQgZjABtrUajsqS2pT1rAZRSRr7C4m29t9UChLq02pNdksdouzfDXW7ozaNHK3MaaSs/nqxU0R++WMXGJa53b14sM++MkN8xcHrStbxsJp06Ci7ZAktal1uF6vkWHJIm1zy8s5SWBx4ew2Xu7kYEnW6jBslz5Em0IvYgjyN0zsBMsnaj461huHlXMSG73cAY1VLJ0HMzlgshVtitA5FuaGwsHOScdBhyIgAiIQEyjVpty2hDsqS7vfiW/ZUwLWbkzSEAXsv/J1VadNKXxTSk6bNuXD7z/xu//c4mVitW5jTCVnc0WFFYtLbIkTrl52rwh+3JIPYVroPFjdOyRJbVob/fG0aW24JqoHS7JWh2Gn8yHaFPumfMjOjyKOP7C3qjRo06a3C9yEL5yiQbOAycO1KeI29cXyOdg5aSGoLAIiIAKtBNq1qd16pDvuO9qXRHGWIjI2hHLlm6CwpWrEzzxx+5OKk++b3k7uqGhTSsyHGbJgTwVu2b5zYSvaFDtG7jdu8pUV+s/uM8Vp71KbItuNdKRLPifJRd21jA8hp2wmh0Ay7yPoYbYEj+MDmPggZDeqAz95ArWegzlpd2G5q9qqdzfSppZJbXquMp+TaAA/Ta+DOye6unMgqhEBERCBnEC7NsUPgj6X7+m7HmKvlL8hxV1bNrPKlZXdCvnqFSyWQYh8zebDfVhtKkxL9qisgAty46mga1itW5UEXeWFnCR8bprkYZLMpSEmjH3jwu3B50PganIlmqtVmuQJ8JQt5KPDs/ahASrRBSuO2ZiFYE7mKVkm9BAU8jnJH5coF6a1V+KhXd0BZHvq6Ojo8vJyNBqdnJzY+pLy+fn5aDQ6OzsraWzbnJycjEajy8vLo6P//gnC8r/j4+PhcDgYDHq9XrlVSkndbMWl0YwR7X7Sxvls62yRNsUeJxWe/VUmKFf+SJNr6Q6dIb7vj+1PiEgqYHdoW3IPtSkfokF0u/kau6Vht0K+egWLZRDC7ei4VRmH5TumCBTogG5JxlaQAlaejsfj1t83JZOcZDdtepgknQ7LJwy2k608bf19UzjhZwOMvh1fjh1OlczPpjkJDza9+B0SF5pJsp4/8ERpmzOxjWvLTXNyI2FKOUs+yOQhidXqXXYhvk7ZzBViqwde3S5W0yHU3mg0Oj8/b2pTW9/r9QaDQTeJCRk0HA6Pj49rnTdVnp2dje7/NlXS6mYTUtRrNGM+KaXdT9rWlLbSoEibUg7yJc7y/8AJArHJEKITZylM0THoSJxyT/CDfPgiQe3/X8UfZ21y24EpVno+eUQBCyRu8bWn4kAQVTTk0uXq2aB2PbYhmnQAV326QqHVYWvXXKpcjG1WrhyQhLfWrJxDSgH27hBIQjqwy7XvQUISsQ2x5ABZ40zsgLqBK/EWKKqmuZqrQ+aGQjAnS5g4bzh0XbNXhwOCU7W0nWd3aRCXq+fotE77JmJ7dXU7CK2H2lBsRaQNxRjR7jcUD2TSxti3dbZUm24rnoUFqd4AACAASURBVPyIgAiIgAiIgAiIgAiIQBMBadMmMqoXAREQAREQAREQARHYNQFp010TVzwREAEREAEREAEREIEmAtKmTWRULwIiIAIiIAIiIAIisGsC0qa7Jq54IiACIiACIiACIiACTQSkTZvIqF4EREAEREAEREAERGDXBKRNd01c8URABERABERABERABJoISJs2kVG9CIiACIiACIiACIjArglIm+6auOKJgAiIgAiIgAiIgAg0EZA2bSKjehEQAREQAREQAREQgV0TkDbdNXHFEwEREAEREAEREAERaCIgbdpERvUiIAIiIAIiIAIiIAK7JiBtumviiicCIiACIiACIiACItBEQNq0iYzqRUAEREAEREAEREAEdk1A2nTXxBVPBERABERABERABESgiYC0aRMZ1YuACIiACIiACIiACOyagLTprokrngiIgAiIgAiIgAiIQBOBUm3a673+8XNyO7m7ndzd/PXrzfFb6/Fz/ytO3U7urgbX9lRs+Ob47c1fv2D74+ek13ttba8G13T7uf/Vnordvnp1NPx+kycDD4FbG6KkPB6PV6vV2vxVVeUMXZvpdOoa5Ienp6eLxYJeF4vF6ekpms3nc9av1+s8XO4tpTSdTq3Ver1erVbj8TilVFWVPcX6Wj+svLi4WC6X1pDJuP6ynrZBwdoul8uLiwvb2J5dr9clJF0H5/O5dWj7/nCSARMb1JVLrGyedjI4Vzh0lGr5uzYlJHc5J/Pp6gautuMBSdffWia1PllJD5ZVwISGtQU7oK5r9tSLmZO1EFQpAi+GQFVV7s6Mm5i9XbyYzu6mI0XaFAqSovNqcG3lqT10Ld2hbZlSevf+w+3kDqITapLy1B3aliml2C0a/Ph/J/0v3+gQNGO3HYhjxeL8w+poRRWkpF1+/vWvfznJ5eLCCZclHLp5DxNEZ0vnxx5Op9Mm0ekuqjxh64dllyTrU0qtTGxjW8bFDFZY9R9I0jmx/qFZiW4rJAMmtpuuHFvhrOUwHo9ns5lzYg9b+edDvG9z0k1XN3C2s7YckGxlYv3kZatB3cXOKYTotdepdXiYc9ISUFkEXh4Bt4xyP4i3i5fX5cfuUZE2vRpcD7/fvHp1hGyg8CBVIRPfvf/ARN+9/0DlGhhaJ7DFViikqnWCs5/7Xyk0A7dsPPx+88f/9X//+Dlpyo0t6RY1G/3r1jwqM6xYOGuFaYlztzCnlObzuVUn1kl+SdizLOc+eSr3UFVVk5ClVbkOcEzowRWwZnOlTykhBOjthmQTZJtqQDJgYj24cmxVVVVJVtbnC5iTDnI+N2x/WQ5IxkzooamAfGaz2Wq14mLjkoyvU3reyKpw9HOfDBcwYZu8EFsVZpW7VY0IvFQC+TKqfdMHjnW7NrWSEcGwiwlJZyVjSgmKE7uhsWEuavFiAESwU598gv/u/YfYLXOAxr0aXHO7N6UUuO3GMV/zsCEHPTGfz1tFXh43n9P5vKdVcIpt8BmuKZPcQ4kQDFavmInNypZzK2zvYSOqG0nXNeTc9DJA4Yq7Sx0QQLboXDkn+ezmpIP8GNrUMnEA3SFGYT6fO7AbXaf0eZhzkt1XQQReJAF3XWvf9OGj3K5NnYiEGP34qY/NUav2oBr7X74Nv99cDa5jQ7czCj94Cv+PP/4JD+ge/Hz81P/xc/K5/zV2ywf6eCPWSme3U+vcdkPplis4wb7jr1+/Fvd/fFW0PER1/w4otgyDXcx8dWwK4RZ72yy/qNApu4Vp26McyKaACd5wzb3l6hlZ/f79e7lc/vnnnx1IOkGDrGaz2XK5zHey0bj1gWyep+1LwMQ2c+XAqnx8rc+A/3OZk266Fn4yCUgGTII5Caq8QHInhdcpR+dg5yQJqCACL5IA7xLsXbe7N81V2ECbWm1HZUltyho2o4hkDd4xhahle7sPCilptSnFJZvFblNKn/tf+QYCG3M/FduoudtuUyFfrvBob7VaPUQH8FPXer3OH+li0uN7SLnMqu2INYEhdVh+UQVrPJ2jjfsulH3+zkefMGmVF5Qj8AxXeJnh4dqUL0VY5+wLhmy9XpfADEgGTGwsVw6sut3dXsCczCG76eQY4jAgGTCJtak1tGUmwFTz65RtWLDa9KDmJAmoIAIvkgA+proFsekZ3YsksPVOlWpTblsiAypLu9+Jb9lTidZuTNIQBey/8pVQp00pfFNKTps25cPoyBOHkKo8Veu2G9na5Wpb+6bT6RSLWZNswtmSRZHKL+9mrk3RqSfZN3Wv9G1Fm9oO1mpTvDwQ95fcApJwXuiHDgOrLWrT5zUnHeSSCckXlGv5B9dpoE2tlORr01YlY0FqvU451nR4aHOSBFQQgRdJwF7R6GC3u/eLhNOtU+3aFKLwdnJHBYm9Sb5veju54z6lFZGxIZQrvzWF7Kka8TNP9lVR7oCWuOUvT6HAKIHbbvjyNQ/LD3Ylg8fxQThIJbcENr0tmidQ69kt9rZNt4sqUFR5SpaJDW3LsHLdZG7dSEI6WLGS54Y7CHeRbUq15YBkwKTWFSoDK2Rr8w/88FTeR8u/G8kdz8kccuu++6ba1DIhOlfg1ibqHdiNmNDzYc5Jdl8FEXiRBLhUsXfSpkTRrdCuTfOvEHEDkj/nZGUrd0ZjQ+sEqXNn1D76Z6/4FD52a5vBFqK25Ov/jFVecMsVn8Xj6TBmZ8mTYhsxVw/5Ksj2eQI8ZQv5Ys+z7qLCmt26F9uqqKy2LuGAuFaHIcRDSOa9dmpjU2G64/dNC8eCQ4lCPiUsf1t2hsHhjudk68DVprrdOQn4+UM61Eyn042YMOHWrr3IOcnulxeOjo4uLy9Ho9HJyUm5FVqen5+PRqOzs7NNDU9OTkaj0eXl5dHRf36UptDD8fHxcDgcDAa9Xq/QBM3UzVZcz2I03TJKJWDXwbinz6KbcRe2e7ZIm1p5B2lof3fpanDNQ9fSHdqW/H1T6Fr78J3vhnI7Fr8MQAXc5DbXu86Vi+LcdiDrdEC+rmCbxMrT1t+ShBOqNKy4tWIRp0r2/PIVkZ21FxXX49YrqlwH5EwY2hXQEqGRie1aB5LOifXPe4cN4fKpPQxIBkxqXaEytsIEs6O/6e+b5vw7kISTnc1JBxkQGL0JZkCy9Tpt8mnra50wK0S3I2VtWT7MOcnulxeg9kaj0fn5ebnV/YO73mAw6CYxoQ+Gw+Hx8fFGQc/Ozkb3f5sqaXUz5tzrPY/RtMsoeuSWm5fRzbgX2z1bpE25P9rhP3CCjmwyhDrEWSpR9BA6EqfcGwVN+SAWJSxJfe5/5WP92C1NCgtYrri54h5JwwnmKNu0yj7KJppY/QRhwVMl3uLdPueQa21MACsx00ABtiVMmpxbVrbXnUlSbSND4nL17Ehr951ssh0JmNhmrtxq5VLNsTiHJfwt58IX9p2JTcNNIUJ2ibnDgKSLVZhhQLKEiUsvP4QT2zuXp2WSm7PGDSgduvqXNCfZ9/KCNhRbWT2jnbYXP5oP1KYppWc0mq0zcysNSrXpVoLJiQiIgAiIgAiIgAiIgAgEBKRNAzg6JQIiIAIiIAIiIAIisFMC0qY7xa1gIiACIiACIiACIiACAQFp0wCOTomACIiACIiACIiACOyUgLTpTnErmAiIgAiIgAiIgAiIQEBA2jSAo1MiIAIiIAIiIAIiIAI7JSBtulPcCiYCIiACIiACIiACIhAQkDYN4OiUCIiACIiACIiACIjATglIm+4Ut4KJgAiIgAiIgAiIgAgEBKRNAzg6JQIiIAIiIAIiIAIisFMC0qY7xa1gIiACIiACIiACIiACAQFp0wCOTomACIiACIiACIiACOyUgLTpTnErmAiIgAiIgAiIgAiIQEBA2jSAo1MiIAIiIAIiIAIiIAI7JSBtulPcCiYCIiACIiACIiACIhAQkDYN4OiUCIiACIiACIiACIjATgmUatNe7/WPn5Pbyd3t5O7mr19vjt/aND/3v+LU7eTuanBtT8WGb47f3vz1C7Y/fk56vdfW9mpwTbef+1/tqSa31iFsXT4ppcCtDbFReTqdrtfr5XJ5cXFBw6qq1tnfarUaj8dskxdKrObzeR4ud+VqxuPxarVCRovF4vT0NKXkwrWmB58XFxfL5dJ1rqoqG9F6ZjjbIC/bDC3MknC5N9TYNObzuW1mT7nkbTNbxkDbjpNYtyRLrGyeJSQxPWyStKoNN51ObR/zsk2AbtlxtN90TgYkT09PF4sFA6HQOkC1XYOVnVeF3iyELV7dcGt5HsictDxVPhwCVVXx5oNeT6dTd+s4HBrqaTmBIm0KwUeRdzW4tvLUHrqW7tC2TCm9e//hdnIH0fnq1dHw+w3lqTu0LVNKgVucevf+AxC4lrHbcmq2JVbE6v7PyinbhuX8QuWpoOCssHL//fffy+WyVVXQbVVVtXcE5xwKw62XdMICe80aW8BZS2M8Hs9mM9smL0MBIDT6SA9xuNwVapwT6x+inHIH2oWHTQ5TSsGNtVuSsVU3kvP5nOhcX+CwdXydVX7opk2HORmQhLeS4bCJBSQxvrxYcqrWjy3TZ1VVTUjZ3jFhvS0c7Jy0EFQ+HAL5RRFc+IeDRT1tJVCkTa8G18PvN69eHcEdFB6kqtOCUJxUroGhdQK32AqFVH33/gOd4Ozn/lcq18Btno9tHLtthZU3wEqDNa919cICuaksyK3G4/FyuRyPxxDEeVZ5TXA7yO8dTSrWuuWabStZbkXBlizkcgQhgCsORyeukPc6EG2FOec+GbRbkrFVYVbMAYWgm5aqsyo/fOw5mU+GktwCkk6bppRQE8vfx7i68/kTDFbh6Oc+iStgwjZ5IbYqzCp3+9g1SHvT7XZ84MTn/NVqtVwuR6MRtu3j6fHY3XkZ/vP1JZiutsudR9M6Ufn5EmjXplYyop/YxYRStJIxpQTFid3Q2DAXkXgxACLYCsqUEp/gv3v/YVO31pUtO7cPH8LWW3Zrg9occqv5fI6nJNPptHUvJ6UUr/T5vSNXHnliweoVnMr9sCZXD9jBRU+7+XRd482O+2eMjm3UEpjBjbVbkoFVcMpmnpcDuQOfm35AciEePifjHeh4xrpkeBjgymdX+YjDf95lxi1swGb2ESdyXq/XL35OOlw7OCy8PXIqLhaLm5ub5XL573//e37/V3JD2EFHnnUIdxMm7fjFtrzL5aOZ26rmORJo16ZOREKMfvzUx76mVXtQjf0v34bfb64G17Gh28KEn/6Xbz9+Tv7xxz/hAUDh5+On/o+fk8/9r7FbdxYyGo/43U6tc/vwwYtXrxLBl+eQW2HZhraoXXFzJ1j/fv/+bd/h41qY3zvgNt4zCHQAHp3Tf55PbY3TfMjq9+/fWB6CcLXeckWOTs1ms+VymSszULWiocmty9M265BkSimw6kYypeTeN7X9Qji7t7TpSG1lTsZL1M60ae1bLnZMWd7K1e36dVBzkiR3U8A8L5zbfNsHVrhe5vN5+fTYTaeeY5R8fQluoU0d3Gg0m5yo/nkR2ECbWm1HZUltyho2o0xkjX3iz/Z2HxTC12pT7suyWewWZ/kNKr7Pyj1dvIqQu334sMWrV3y2KXpuxQf6ufxqcoIl0N5noV1w487vHbgRlGhTK3HW6zU0XzdFxRsWosMV9/9QWRuuqddWBzg/uTYtfMsWisqlQeXXIUlqU+fzISQdEGTVtANU3nG63cqcjEli7ByTVp0R8Mcl4DxsJD7yXhNI+Ras5qSF9qjl/LYWhHM3H9z6NpoegfMDP5UPBGmXk8mdlNuq5TMlUKpNuW2JflJZ2v1OfMueSrR2Y5KGKGD/lV9dctqUwpfP37lv2pQPlSvyhKLFewJMrNbtw8cvWL3yraaScLVWlFnwUHIDzf3YNTK/7NG+RJvWtnmINp3NZqvVihqCnYXsqA3XRJJ9tB2EH6dNoc8KnQc31g5JUpvWRu9GMgcS+AElyuvc1tXkcwnbtFb7lszJl7RvWsvEccOh5mQtlq1XBhdpbSy2t5dw4TSudahKErC3X1SSNtvEhU3bx9509rkQaNemkHe3kzsqyJQS9x3tS6LoMzc4Y0OISPeFJ6pG/MwTfxmA383n+6ZN+Thtyl8DQPKB24cPWKBNg1NB3NwKa5vbT+KGZZOrXJBxjcSWj5MmgZRhCHsTZyUKJdLWmfC7KXZz1+YWhMtdsaa6/w0vK/uQG7Uvd+8cAXrIC8GNsluSgVU3knnOsXjKp1nugTV5425z8sm1KdIuH/e84wETnsoLmpM5k+3W4IJynz/jELyo7cUobRpDKzz7QG3aYTQLE1OzPSfQrk3xg6DP93v63Km1bxRwVCiyWdO50LR6xcqgKVytFSqttCpZYq0SRTh7wbt7BxrbbbDaDO1N3DUo9FBrZXWkTTII5/zYQy45rORGLGqgwssFSqyouiUZWHUjyc6yEKyyQXSas7DFORmTzGcscwgKQV/yCwdDX65gtnV1a04GI2hPHR0dXV5ejkajk5MTW99adje01vZ2KtopFFw1uc/j4+PhcDgYDHq9Xn42qOnczZTS+fn5aDQ6OzsL/NeeOjk5GY1Gl5eXR0f/+e2d2mZ5ZYdu5heOuwnnUWxNh9Gk+S67iaAvfjTJdgeFIm2KzUj++v3V4Jo/5wTlykPX0h06w/yLSlTAeP7OQ9uSe6i1+bh9U/tMn6+cNrl9IO78IoTDpvo4XK1V7VVdcg91W6HWub34oQmavjVsE7Y3cVuPMqSAFbjlv28K5Y1MqBrjcHkCqHFOHIQOwtQuY3nQbknGVt1I2twCEQY+dpisYV6204ZnHzIn3TY5fSIx+0GFp4JCQNJp0w5DX9v38jdNmbbmJFHEBcig0Wh0fn4et7Rnc+lvzzaVaWWnUMl9lQ7Pzs5G93+bKulu3bx/ya03GAy6SUyI2uFweHx8zC6UFDp0E5cePwS6wzgoxyVu1nR2l91EDi9+NJtQP0Z9kTalHOzwHzhBLDYZQnTiLCUj+gl5ym812TcKgnxsONhSwpa47YAYD+ncc3Yuq7gUeVjov9aqacEuvNqxHiNPaj4srjb5wlRxE7eG6/Xa2iJbNrARAwhNSbaGa/Lp0uCWs6tnnrYLtT6D22W3JFutXKolJO2cdPoPs6W8v4Sw9TkZkESXW8eCuaEQkHS9dkycH3toSebQaplY89qyG9ADmZO1KILKDltQtROg5KMXpyI8YOJtpE07bCii7x26SWjPYt+U72vx8uGEZ0dqC51Hk960b0oUtYXOk7bW29YrS7Xp1gPLoQiIgAiIgAiIgAiIgAg4AtKmDogORUAEREAEREAEREAEnoyAtOmToVdgERABERABERABERABR0Da1AHRoQiIgAiIgAiIgAiIwJMRkDZ9MvQKLAIiIAIiIAIiIAIi4AhImzogOhQBERABERABERABEXgyAtKmT4ZegUVABERABERABERABBwBaVMHRIciIAIiIAIiIAIiIAJPRkDa9MnQK7AIiIAIiIAIiIAIiIAjIG3qgOhQBERABERABERABETgyQhImz4ZegUWAREQAREQAREQARFwBKRNHRAdioAIiIAIiIAIiIAIPBkBadMnQ6/AIiACIiACIiACIiACjoC0qQOiQxEQAREQAREQAREQgScjIG36ZOgVWAREQAREQAREQAREwBGQNnVAdCgCIiACIiACIiACIvBkBKRNnwy9AouACIiACIiACIiACDgCpdq013v94+fkdnJ3O7m7+evXm+O31tHn/lecup3cXQ2u7anY8M3x25u/fsH2x89Jr/fa2l4Nrun2c/+rPRW7tWdvJ3fONnBrQ2xUnk6n6/V6uVxeXFzQ8OLiYrlcrv/3X1VVbBAUqqqi3Xw+ty3tqUJvSI8O1+v1arUaj8cppdPT08ViYU+t1+tWtyVds3kuFovT01PbC1cej8er1cqmYXOwrtiGXXCu3KG1fVSSJUxcbimlEivbhVaSKaX5fE5KKJCVdWWnQZ6Yq3HzxKVhh89dBc4PD4M56ZJ0XaAHVwhI2vTgzc4u5yc/rL26bTMk7JjYBq5sO3ggc9IR0KEIiIAIBASKtCkUJEXn1eDaylN76Fq6Q9sypfTu/QcKx1evjobfbyhP3aFtmVIqcctsU0ofP/UhpmO3AabgFFbE6v7Prco8FZjnpyAC6ArrIhcwBIIVVtySVXY6nVKduIgIV+LEGsZdw1l2IaU0Ho9ns5n14Mroy3Q6RX3uwbWvqqpVCuyYZMzE5c/D2Crn0EoS2rRpuB03qFjOLmblCi5JHJK/naKOufNjD4M5aZuh7NLOG1Dl187kTWcX/bPjVVXZ+cwGKSWKbAKxZ13Z8bHoUkpbv7qZv0sjPoytcNbSKJmTcUSdFQEREAFLoEibXg2uh99vXr06giUUHsQfZOK79x/o9N37D1SugaF1AltsdmKP0zrB2c/9r1SugVs4scKUiUENM7fcrW1ZWMZKA0WVr17xLb4pRL5mz+dzuxJYwzyoPcty7pOn0IXaFZ1t8kLctcKsrFunHiBnV6tVbWJo3Kqo8l4/KsmYie2sLcdWHUhupE2hh5qELPMMSObzBz3qMDoM5wqFwx2Q3Gh2MXp8daMZu1+iniFkHe0DmZOkqoIIiIAItBJo16ZWMsIddjGhFK1kTClBcWI3NDbMRS1eDIAIduoTrm4nd+/ef4jdIjerlS2CwK1t1q2cy4hgsQxCuEUOTtbrNfcUrW0e1J5lOdcWPMXFlTUlhaBrwanAc64eIJtqRXlhr3dMslvHA6vgVEByU21aovywvWdnINnmA4e92NZNxGBOut4VDneAK08ymF0uOg6bcqCyJJBac1a6Zsj58a7ugAlTyguBVXAq96MaERABEehGoF2bOhEJMfrxUx8bkFbtQTX2v3wbfr+5GlzHhm5nFH76X779+Dn5xx//hAd0CX4+fur/+Dn53P8au70aXHN71RFxO7XOrWvc4TBfvTrcx51SxJo6m82Wy2W+EYXGrSKgdreGHXQRWR8Xgq7lOiZ2hbNN6sFtMnE/Nafhorh+7YBkwMTlZg8Dq24ku2nT2v1pm2d1/wI0sFdVxXFxEhPa6/fv37UfKqxDZ2hP2TIGrnW4N3qmD/+2FzZibTm/ujkV+dik9Uo85DlZS1WVIiACIlBLYANtarUdlSW1KWvYjCKSNfapOtvbfVAIX6tNuS/LZrHbQm2au62ls1FlvnpBdrhvpcSrrF29uCUDP7lh4cuC9pU4JsN1FBFZj4LdIauFEHStm6Kq1abz+ZwaiGnknHnKFnZPMmBiE3PlwKobSWhTN6BUim7fLpZ0LlXk477zR4lpZymnrvNgD+mNqXJO2maFw82O0BsKuGrKZ5cNbcu1aViYtmwNbfmQ56TloLIIiIAIxARKtSm3LeGOytLud+Jb9lSitRuTNEQB+698BO+0KYVvSslp0yCf1n3TWrcxppKz+eqF1bp1R8o65+pllzq76rMxhGmhcwoImrPAiKwpKQRd66aoatVDvrNVvovGfu2MZMAkQBpYdSP5qPum0+kUYNfrNWQfptZsNlutVvxIU6hN8w8eDlT5cFOb1l4RhbPLRbeH+dXtrik7zayhLR/ynLQcVBYBERCBmEC7NoUoxLue9MV9R/uSKM5SRMaGUK7um0lUjfiZJ/uVJm6Xxm6RD8UuE0YhcOtadjjMV69AdgT+8fDULrH5ygrVUrvPVOvZraO2DddLW9laDrqGbG3+rd7c41G0R2KujznkwPmOSQZMgiQDq24kN9WmJQoYH4QoPe03qJCkU5klQi2Yk8S10XC3krT5184uxs0LLhPEso8ySroMbu432h716g6Y5H1kTWDVeU7SuQoiIAIi0EqgXZumlCgZ4Y47o/w5J6sFuTMaG1oncEtRax/9swNUw7FbSFgraumh1a1t2aHsVq94Iyfwn6/ZbhdqU2G64/dNserzIXLQU3uqaYW2yz/a2BrrIS/vmGSwoue5sSaw6kZyI21aGCLfwKZahQf7UQQ9ah2mfHTIBIVNhzsgWTK7XHR36K5uXIPu/QEcuk9Tzk/e60e9ugMmLjF7GFgVThjrrVv56Ojo8vJyNBqdnJxs6uH8/Hw0Gp2dnW1qeHJyMhqNLi8vj47+86M0hR6Oj4+Hw+FgMOj1eoUmaKZutuLSaMaIdj9p43y2dbZIm0Lw8Rfs3Tud9tC1dIe2JZQit2MhVflLVe7Qffs+doutUytP3e+bMopz+0CmbvXqrE1x9+cK57a1OgjTHWtTboJaedr6C4hOPdR2MyccD9mOSQYrepBnbAUsG5Es16bg0/QlcZszhoMCFDkzKztFHXPrxJVzleYabDrcAcmS2eWiu8PWZAr3TR0fi47vhfPadzk0HQYkAyZN3lpvXN3mZBCu9hTU3mg0Oj8/r23QVNnr9QaDQTeJCRk0HA6Pj4+b/NfWn52dje7/NlXS6mYtT1ZqNImiqbD7SduUyXbri7Qp90c7/AdO0JFNhlCHOEvJiB5CnvL/hbJbs6352KD8ef8Stx3g4sGx20HBKo6FofZUHIiiAbZ8Funq6ZmiocltsHrBZ6sH57m1ay7V1uUWCx575J4RU+9umqdL41FJtjJxDHHYauW60EoS2pQkUSBPN13LeUJF0a1Lw551p2p7HX9e6jbcAcnW2dWUpMOF7tdCK9Sm+f/EdiBzsolwU702FJvIsF4bikRRW9j9huKBTNpa2luvLNWmWw8shyIgAiIgAiIgAiIgAiLgCEibOiA6FAEREAEREAEREAEReDIC0qZPhl6BRUAEREAEREAEREAEHAFpUwdEhyIgAiIgAiIgAiIgAk9GQNr0ydArsAiIgAiIgAiIgAiIgCMgbeqA6FAEREAEREAEREAERODJCEibPhl6BRYBERABERABERABEXAEpE0dEB2KgAiIgAiIgAiIgAg8GQFp0ydDr8AiIAIiIAIiIAIiIAKOgLSpA6JDERABERABERABERCBJyMgbfpk6BVYBERAJQnCkwAAIABJREFUBERABERABETAEZA2dUB0KAIiIAIiIAIiIAIi8GQEpE2fDL0Ci4AIiIAIiIAIiIAIOALSpg6IDkVABERABERABERABJ6MgLTpk6FXYBEQAREQAREQgYBAVVXr9Xo+nwdttnVqPp8vl8uLi4ttOZSfzgSkTTujk6EIiIAIiIAIiMAjEpA2fUS4e+y6VJv2eq9//JzcTu5uJ3c3f/16c/zWdupz/ytO3U7urgbX9lRs+Ob47c1fv2D74+ek13ttba8G13T7uf/VnmpyazOB7bv3H6xhSilw61qWHM7n8/X//lutVuPxOKWEi4onWd/q9vT0dLFY0HCxWJyentJqPB6vViucLfyQN51O6Q0Fl4z1uV6vp9Mpw9UWLi4ulsul81lVVUrJuVqv16iv9ZNXIlXXLwcEcQvd2lFwH77tqUJvAcmASd5N1pRY2TzdZKAfW8jnpLWyA+SmgXVSW7aZTM0ksVgKScK/TYZJOiaPkWTJJCeB2jnpktScJC4VRIAE7AWOa8TdhNlyHwraN92HUUAORdoUCpKi82pwbeWpPXQt3aFtmVJ69/7D7eQOovPVq6Ph9xvKU3doW6aUAref+1/phCGYeey226jM5/OmtbOqKi63KSUohtYrE2seF3gc0g+WSTiBYnMyrrYX0+m0KcnaxP71r3/FzzVckjYobkYULmhZkiR9VlXl2qOnZGLDBWXHx6LDJwc6RM48DHwGJJl/YJ6fiq1yeuPxeDab5X5sTXCHHY/Hy+USn50AIZgY1meAyF4CYM7paj3k5aqqSqIXNuPnotpxtElyznOW5rmhhqOTz0mearKtrT/YOVlLQ5UvnoBbDgoXwafCEtw5nyqlg41bpE2vBtfD7zevXh0BExQeBB9kot2bfPf+A5VrYGidwC22QiFVrROctaIzcGub0fB2cocMY7dov+m/bs2z5k6bFkqBXP3wgsklGhbIVr2b+2SeuHe0emB7FIKF2d2MYsVAt+gatEKuA/KO0zAo5L0mydwqD5q3SSnlPtksYMI2eSG2KszKuQ266VoWjn7APx9ufAZolX0BydokWx0GSeanSi4cWDXNyXjgXBd4mPc6GKzC0c99Mly3JGOrwqyYgwqHTMDdHzC1yj+78tFc6+WfQ7aPjwoXOFyMNzc3fCpYaJhHV80DCbRrUysZEQy7mNiedFoQihO7obFhLmrxOB4i2KlPPsF/9/5D7Nblk1JCeyjpwG1njhtp0xIpkC/t1LjuOuf2T+ulHqxeQf4Bk2D1ypOEKHdboYHzfPHLtUVgzlPkhhrk3PQwNw9KP7YQkAyYWA+uHFgFp5wTdxjIHdeyZELGijwHgrTje/pGA1o7o1xH4iQRzl4mhT4ZJZ8e3UbnYOckSapwUATchdbhqnEeSujherfPZGazGR8WBR4oZyGF85tbYKtT2yXQrk2diIT4+/ipj81Rq/agAvtfvg2/31wNrmNDt4UJP/0v3378nPzjj3/CA7oKPx8/9X/8nHzuf43dNmnT4febXu914LYz1kDbuXWocAcRSo7fTLQPNN2lAv+/f/9ulX3OkJ3N12yeigvBLab2VmJ7EXuuFbIbSRn4dybIajabLZfLXDaVc2gimVIKmARdDqzyTymBH3uKd1jsOlhNZptBzzWJddsSYnc2m3Ebgz7z4Q56RJ9o8/v3b/tede3WSPnQBEny0sOVgpxrH/0zQ1fYijY95DnpeOrwQAi4+0N1/6X72iu9CYjz0NTM1gd3adssL+POyfRwm8rXi9xQNVsnsIE2tU/hqSypTVnDZhSRrMELoBC1bG/3QaEsrTal1mSz2C3bkxSiO23KZnTL9psWnA5Yr9dUirk2LVm2kQB0ifVmd4bsNVOySUZvTluUL/wOCxKgNxRwDdfeSgIF7zwH2tSF4x0k95BSsjqAiCw3a4VBLLkHNZGkNnVJtvoMSHbWprZr8M85WXjKNuOHJYo5+IQ8BWfrH8sPGztXOMQksRsbblWAW8C0zmu9odLFtUmigfXZOi4uUJM23Wi4NScdVR2+eAK40nmZFF7LFkvtgmIb5OV85c3b1NZwpcBZ3EM2vVfUelblpgRKtSm3LRGAytLud+Jb9lSibr/TGcID9l/5uqrTphS+fDTPfdOmfCg6CQLq02rTWrdsv2khUF35FYLLLF62KQWm0ylXU1we+Dg4m81WqxWVmbucavNv+hwJ/9wDq7WtrcRFW9uR2lvJE+6b2lGovddAFdX2Je97E0lq00I/9ByQ3Io2bdocRVyrDplSXsiVmeXAWYoVqGlz2rrFJLE3favbbEvmbxu7BjiMk0RETHWA3WiZzJ0HA1ebnv28pDnZhEj1L4yAXQ7KtwAsBOvB1jeVgztJkwnr3WJau16wsQqPSqBdm0Lb8etEyIYS0L4kilPciYwNoVz5rSnYUjXiZ574/Xp+N5/vmwb52O/p0xBfsQrcdqa8kTYtURtuAwlSFRoCV6nTE3ada+qFVRKuzUaqkbbBwpzfSjZVwLkO6Ha7cRtpfLBLWU/dU67OA5IBE3LLC4EVSG4qdvMQ8GO1HXiWPM2HN3fLtlv4TeEs5LxNftOPh7hkkgdJIpwd5U3Z5nMyGLi8v6zRnCQKFQ6BgF0OcI1v9Jmw9qbdyq3kdlHrxN1D8ttUrZUqH4NAuzbFD4I+3+/p2x+u4nYvUVJks2bTQrk2Lbwyc7FItZqv34UXT6CoIJetcCkhECzM9mYEV5uGyHVA3vGSJPNeu1sPErOSpdVt7pMmARO2yQuBVeGEyX26GjdF4bZcmNYqUUfSRpzP561I8wGNZ3LJYpMPDZPMlSjCtebJfuVzMhg4WuWFIEk0PpA5mZNxNUdHR5eXl6PR6OTkxJ1qPTw/Px+NRmdnZ60tXYOTk5PRaHR5eXl09J8fpXENmg6Pj4+Hw+FgMOj1ek1tautffDfdcrDpWtBNm7o7Xi352kreMXA2vinlHl78aOZdfryaIm2KPU7++v3V4NruTdpD19Id2pb88VE80OdbofilKneIXwbgo//ArdOa2Chl5rHbbpSDy8AuqOWCAFcvd8twefCzJs5iUwo+S9bXfEW0ncVejpWnW/x90w5rba4Dcilj828qOz4WXYcdU0QJSHYTK7EV7uwcfdypW3/f1AJBrzm45fPQOnEkkRV9siWa2Wx5Ki+44cgHnSb8bMaa2kKQJE7ZBw6bPl7M04sHrjZDPtbnNesg4JBnm5y4+mc3J13+tYdQe6PR6Pz8vLZBU2Wv1xsMBt0kJkTtcDg8Pj5u8l9bf3Z2Nrr/21RJv/huOm260S0CqJ2HWv6u0i2aKaXy7+nb2xf85Dc6F46HL3402dMdFIq0KZ+Md/gPnKAjmwwhOnHWbs2mlKAjcco9wQ/ycf8vlPPZ6rYDcSxyfNd7vV5zCYTm4ynKzdYoWKJo6NYqe9adavIcrF4wsT5LdtRw0TJDFNBB3Ep4ijSacmO9w2V94o5WDpA+YchkoOkpEVjPQmuIgGTAhPnkhVYr14WSEbckHX830Oi4a5MnmRMjSb4eDVfl93F+PICh7ZebQvZUbW6sdKxsku5UySR3XXOTpHXgmJUruEyYpKt34ZwTe/gs5qRNuKR8IFtQL76bubLELaj1RlF7fVnhGM8idzW1hoM37ZvGVHd5tlSb7jInxRIBERABERABERABEThMAtKmhznu6rUIiIAIiIAIiIAI7CMBadN9HBXlJAIiIAIiIAIiIAKHSUDa9DDHXb0WAREQAREQAREQgX0kIG26j6OinERABERABERABETgMAlImx7muKvXIiACIiACIiACIrCPBKRN93FUlJMIiIAIiIAIiIAIHCYBadPDHHf1WgREQAREQAREQAT2kYC06T6OinISAREQAREQAREQgcMkIG16mOOuXouACIiACIiACIjAPhKQNt3HUVFOIiACIiACIiACInCYBKRND3Pc1WsREAEREAEREAER2EcC0qb7OCrKSQREQAREQAREQAQOk4C06WGOu3otAiIgAiIgAiIgAvtIQNp0H0dFOYmACIiACIiACIjAYRKQNj3McVevRUAEREAEREAEtk/g9PR0sVhUVbV91wfjUdr0YIZaHRUBERABERABEXhkAtKmDwdcqk17vdc/fk5uJ3e3k7ubv369OX5rY3/uf8Wp28nd1eDanooN3xy/vfnrF2x//Jz0eq+t7dXgmm4/97/aU01uX706Gn6/oRUKw+83r14d0TxwyzYbFcbj8Wq1Wt//LZfLi4sLa15VFU6t1+v5fG5PBeXAKg7X5DO2CsI1OUwpBVZxuCafsVUQrsnhYSY5n8855VBYLBanp6ek1I0kzGFrHbaGY1xXeBbDnVKyedqOszs5E57KC1i3OEC5w9ZwuU9rYm9BdqAZcbVajcfj3ImrsbbuxtUUznnQoQhMp1NOPBTcXGpC5C4T2OYXS5P509ZLmz6cf5E2hYKk6LwaXFt5ag9dS3doW6aU3r3/cDu5g+iEpqQ8dYe2ZUopcAtDJ0aJKXbLZhsVcO3hesOM5NrgDm3LIERsZZ24loHPwMo5sS0Dh7GVdeJaBj4DK+fEtgwcxlbWiWsZ+AysnBPbMnAYW1knrmXgcz6fcxK6Zs6J9e9a1h6i/Xq9totEEK7WCSptaJeVO7QtA4exlXXiWgY+8dkmFnO1TJp8XlxcLJdLPuzDoYVZVVUcLve8UdeqqrLhcm8pJcfH+k8p2UPXstabKg+ZwHQ6tfMZk6d1BnISlrTcQ7y4LniZ72GG+59SkTa9GlxbtQeFB6kKmfju/Qd29d37D1SugaF1AltshUKqWic4+7n/lcq11a3NlolBDTO33K1tWVjOpyAWG0hVd1mmlEpW8cAqDteUc2wVhGtyiPXJ3nFs1+JwTT5jKyUJbnZ2NZG0Y5G36UYSfjhGTt+UzGqXCV2x3natW5KBVRyOOeSF3KdrQ8+OiWvGw9yhpZefpWFTgQmwgSXJShSw39m6cZWnwSQ3Cuei6/AACdTOpfV6PZ1OYxqYac9Lm9pHDev1Wto0HuL4bLs2tZIRvrCLCaVoJWNKCYoTu6GxYS5q8WIAZKVTn3yC/+79h9gtEmjSpoHbGFPTWdzr7WWG55u4otxyhTWj9bIMrOJwStIROEySsTYNmDh6+SEFinPC+tykqSaeyc7/U104uQ7Lu8O+u5zzlqjBvpG9Y9CwJFzuNibp2ldV1bShblsyJVRa/huFsz5VPkwCuTbNL4FaMs9Lm7psu13LtRwOtrJdmzoRCTH68VMfG5BW7UE19r98G36/uRpcx4ZuZxR++l++/fg5+ccf/4QHjAr8fPzU//Fz8rn/NXYbaFO3U+vcdpsB7sLDPf3379/L5fLPP/+039TDPX02my2Xy2Dfws1pZxWEcy+52u4EVkoSoOzAPXeS0Kb2HS/uPcSzy86ZvGxFidMu7n1ThsudsOZZzElost+/fy8WC/K0sjJgwp7mBWyu4CZgn+C3hstd5U8wgpmMbIObD/zHkyQYuODCqc1clYdAwE0Y3J3cM7daDpiHJTeTWvMdV7puuotox8m8jHAbaFOr7agsqU1Zw2YUkayxT9XZ3u6DQvhabcp9WTaL3SKW+y4UXj+waeRuuw0nZyTWFdz3sZViZR83V2yz2oh2TudWQbhgYQislKQdEQKvHRqrA3Kr/SHpkkeq2C2LZ5czdIdWj9qya2bDuVP28FnMSYg5u45ChVOeWg62bHtaW8bW0Xq9truYreGaXCHDfE66e0Lhpmk8SYKBc+Fqs1XloRHghEHHMfNbPyDxfVN+JkRhb5+Su8vfXkSHNuLb6m+pNuW2JQJTWdr9TnzLnhKwdmOShihg/5WvqzptSuGbUnLatCkfRK99ps/Eat12A4oLbzabrVYrrlhOm9pZa9eP2oic07VWQbhgYQisqKhqw9VmyLtGdf/Hz7XsWhBOSTqkjzHcLgS/vDKdTuNwuSFrMKb8credLWzDQskzu2CS7M+czDcaCdB+UEHHYyaEwx+O4HDw5zvicNaDLQck7eWWO7dObJl9tD164NVt/at8UAT4MQzi0n7SizlgHnJ9iRs/+Vl7sdgl8skTe74JtGtTiMLbyR0VZEqJ+472JVFQoIiMDaFc3TeTqBrxM0/8ZQB+N5/vmzblE2jTlFLgttsQ5lsdWHtwReHhnf2oh/ZUsbVBA6s4XK03/gKOuynwWgrCNTnk+lrbNSVJbk8y3IzOAtLgQ2T3kn5rktQldMjJwxpbsOFsvS2jzZ7Pybzj1G35qZgJ++52Xu3vAOQ+GY7meSEmyfaFm6ZoH9wTCsMxrgoHTsB9rC2nIW1azupFtmzXppB0dieSG5BWMpIOd0ZjQ+sEthS19tE/3VINl7i12dJDq1vbsrCcLx52gckvy9anxvl+jP1qSxyuKefYSkmCmx24Z00yT34+n1MFdhhut/Nhn7LV7mrYcHkyqHnuc3JTJuRgXzBFJdVqzIQeXKHEquTTgnUbTJKScNZV5/LR0dHl5eVoNDo5OdnUyfn5+Wg0Ojs729Tw5ORkNBpdXl4eHf2f38MucXJ8fDwcDgeDQa/XK2nPNi++m/lcYt/jAmZa7R0mNuTZXY6mW9lxf7B7N8yqqfCMJm1TF7ZbX6RNscfJX7+/Glzz55ygFHnoWrpDZ4jv+2M71u13ukPbkoK4Nh9n6GC5s86ta1x4iFmIrVB3OblD2zJwHltZJ65l4DOwck5sy8BhbGWduJaBz8DKObEtA4exlXXiWgY+AyvnxLYMHMZW1olrGfi0p+CBL3g5J9a/tYrLwR6hCxf4saFdVu7QtgwcxlbWiWsZ+LRW2OO0b4haw4CJbQaHXLTwiYg+y8PlPmtvQWi20aYpn0hSFris7GE5SZtwSRlqbzQanZ+fl7Rnm16vNxgMuklM6IPhcHh8fEyHJYWzs7PR/d+mSvrFd/MJtekuR9N+/BuPx8v7P17mrVPoeU3a1u5spUGRNqUcxHeMqESZQfA/LUGeNhlCHdb+703QkfxWk32jIMjHWeWeXQPnlj3aqICbNfaTeEOHB9y7udWE9aPVeWwVhAs8B1ZxuCafsVUQrskh34wUSYuoA0k8kwVG7pjSZzxwbBYUnA6LwwV+gq51SzK2CsJ1S9JaOSb2lCvbNNz/YhBfAs6PPbQ+3S0Iq2b5Mgm3j0HSJtxafvEbiiDw4rv5QG3KpbN2UYhn0S73Te2Vi4+a+D5GnKE9q31TSyOlVKpNnZkORUAEREAEREAEREAERGDrBKRNt45UDkVABERABERABERABDoSkDbtCE5mIiACIiACIiACIiACWycgbbp1pHIoAiIgAiIgAiIgAiLQkYC0aUdwMhMBERABERABERABEdg6AWnTrSOVQxEQAREQAREQAREQgY4EpE07gpOZCIiACIiACIiACIjA1glIm24dqRyKgAiIgAiIgAiIgAh0JCBt2hGczERABERABERABERABLZOQNp060jlUAREQAREQAREQAREoCMBadOO4GQmAiIgAiIgAiIgAiKwdQLSpltHKociIAIiIAIiIAIiIAIdCUibdgQnMxEQAREQAREQAREQga0TkDbdOlI5FAEREAEREAEREAER6EhA2rQjOJmJgAiIgAiIAAiMx+PVarW+/1utVuPxWGRE4FEJXFxcLO//Li4u5vP5er2uqupRI+7SubTpLmkrlgiIgAiIwEsjAGH6kpTBSxuhl9gfq02n0+l6vZ7P5y+mo6XatNd7/ePn5HZydzu5u/nr15vjtxbB5/5XnLqd3F0Nru2p2PDN8dubv37B9sfPSa/32tpeDa7p9nP/qz0VuLVWMB9+v3n16ojmtoFzyzYbFewn5uVyeXFxYc2rqsKH6Y2mTmAVh7Oh8zJtp9MpztpAzLP8c781p094Zqz1er1YLE5PT/N8XI012VuSSjKfyTETN8o8jK3s1Cq/5wZWcThmZQu44/O6WK/X7tIIwlk/rhxYdUgypWQdOoVkHbrkXVbu0Pp0/K3P/Dp1fp7Roe1y4S0LvZvP5xuxfUZMlOreEjg9PV3c/52enh6oNoWCpOi8GlxbeWoPXUt3aFumlN69/3A7uYM6fPXqaPj9hvLUHdqWKaXY7dXg2olRzq3YLZttVLBzAnOFN2t3aFsGIWIr68S1DHziFNpjoZ3+jzbNraqqKrkvY31yCyG9VVW16c066JrrqW3JiHkhtrJOXMvcFWsCK+fEtqR5XoitrBPXMnfFmsDKObEtaZ4XYivrxLXMXbEmsHJObEua54XYyjpxLXNXrJlOp03T2Dmx/mmeF2Ir68S1zF2xprr/w6G7Ksfj8XK55PPlwqvShbZZpZTsoWvJlJ5dAdx4604pjcfjv//+u7Aj8/nc2hZaqZkIPIQArj4s1pjAwbL+kEBPYlu0b+rUHhQepCpk4rv3H5j9u/cfqFwDQ+sEttgKhVS1TnD2c/8rlWvgNqXkzjIxqGHmlru1LQvLmBxWn2GbHdsM+cJWcgsLrOJwrTnD82w2W61WTZMYU9xtk+Se80xsm7wL9mxtOXe4hySVJMeOMzlmwvauEFvl84fhnB97GFjF4awTV859skF+6qmSZEooVFXVpJMKr+6ga51JuiT36hCdKvlA3pR2ydA32apeBEQgJ9CuTa1khD12MaEUrWRMKUFxYjc0NsxFLV4MwJan05d8gv/u/YfYbaxNA7c5mpKa/MMKXknGbc5tQEJsrdfrJl2IiIFVHC5OmFIvd2INg4XNNstXL57NVy+eCgp5VntIUkliBO1Mjpk0jXhsFVwCTQ7xXNvKi4cniT3Cpn3T/UnSMQkuYWBv/eQZdC0eOJfJcznETnB8W67tCwztKx8o292KWkNVioAIxATatakTkRCjHz/1sQFp1R5UY//Lt+H3m6vBdWzodkbhp//l24+fk3/88U94QOrw8/FT/8fPyef+19htoE3dTq1zG2NqOuskGu7pv3//Xi6Xf/7552Kx4E0K9/TZbLZcLoO1wQk7ZxWEcy+55glzvclXFzbGqSA9tsQ+wWw2432ZsgCa4Pfv34vFgmdb7/tB1/aHpJLEs87VasWZHDAJ5mRgtT/DHWjT+DrlZeIKsVXAJCBZG4IXoztbIsJ2kKTL6skPH/62qPZNn3wQlcALI7CBNrXajsqS2pQ1bEYRyRr7VJ3t7T4ohK/VptyXZbPYLbQpv0GFgn2lFa8i5G67jSuXE+5KppRwn7JLLO9ctlltRLsw5FZBuHj1snrUll0OwY5L3tL+YgX6hRUR/u1uE3ZAY3kadG1/SCrJbc3JZ0GS71byIxa/1Rdfp+5i4WFsFTCJr276x80n/6YaGuAibXrcTyc7SJKx9qRgX8PF7WvT7U9eF3vSI6UhAs+dQKk25bYlOkxlafc78S17KtHajUkaooD9V76u6rQphW9KyWnTpnxK9k1r3XYbSCwn7g1O3KeoqLhhmVIq16a1VkG4YPWyiw33vXKliJtyyaYpnp+6RY4ra+7HJVCLOuja/pBUktyQ40wOmARzMrDan+Eu2TetvU5rZ3hKiRdCrVXAJCBpYwW/cYjxsp8YraEtP3aSNtaelPN9U0IozFDatBCUmolAIYF2bQpReDu5o4JMKXHf0b4kipAUkbEhlKv7ZhJVI37mib8MwO/m833TpnwCbcot1Vq3hbxcs3yP0L73Vt3/ehQf6we60LoNrOJw1oktu/smnOTatHzTlHvDdsnEyjoej6lamEPJjT7uWsCEUfJCYBWHy12hJrYKwjU55K//1E6SOFyTz9hKSZKbFYisdAXOalcfD1zemDUB/3jg6KGpgOf1/PBgm+ECbH3TnSaPlyRD7FUhf9Wh5JZlu+DusfaUyiIgAh0ItGvTXO1xZ9RKRsbmzmhsaJ3AlqLWPvqnW6rh2G1+lh5a3dqWheX8FmaVWb6wldzCAqs4XG3OXJbsc0mWp//zS1JYFws3TWv3k9i1DknaLSX2Yt9IKkn+FJH9cPKCh7t2nnN+Btcp2+SFwKobSYTYojCt7fUDr+6cQ2vN0dHR5eXlaDQ6OTlpbewanJ+fj0ajs7MzV990iFuN/XyYj0WTLerJJ26Wn91lNxn95ORkNBpdXl4eHf2fn/3m2aBwfHw8HA4Hg0Gv1wua5afUzZyJq9l00jrzDoedR7NDrA4mRdoUe5z8mfqrwTV/zglakIeupTt0hvi+P7ZjIVX5u6Tu0LakIA7yoR9HJHbrGhce2s/cuKNx68Id2paB89jKOnEtA5/2FGQoVSlObbRpSpXGnjppa5OsfQHA5sOytXJdc4e2Jc3zQmxlnbiWuSvWBFbOiW1J87wQW1knrmXuijWBlXNiW9I8L8RW1olrmbtiTWDlnNiWNM8LsZV14lrmrliTS0meck6sf7bJC7GVdeJa5q5YAytejKzndVq+YwpbF9pmBeVKh66lDf3AMhbO0Wh0fn6+katerzcYDDbVXugj5Sn6xcPWBDpr0x13Ex2BDBoOh8fHx61dsw3Ozs5G93+bfmBQNy3GvNxt0uZ+NqrpPJobRencuEibUg7iq0VUoowa/E9LkKdNhhCdOOsEJXQkTrkn+HE+fDGA6dlC7Na2LC/jvobNSLdC4B6X71PGzmOrIFzsFmdzbYqa8hsx/DxGkkHX4nBNHY+tgnBNDrk27/lwB12LmTR1PLYKwjU5fBYkA21qlR8mg/u819Tx7ZJ03nirweVsx4Wnyt86pYnrmnXr7nhNvd60fvc7bdg9ZZepv0sy76xNd9/NlJL2TeMx7byh+CSjGfclONu5m4HPLZ4q1aZbDClXIiACIiACIiACIiACIlBLQNq0FosqRUAEREAEREAEREAEnoCAtOkTQFdIERABERABERABERCBWgLSprVYVCkCIiACIiACIiACIvAEBKRNnwC6QoqACIiACIiACIiACNQSkDatxaJKERABERABERABERCBJyAgbfoE0BVSBERABERABERABESgloC0aS0WVYo0gJoyAAAgAElEQVSACIiACIiACIiACDwBAWnTJ4CukCIgAiIgAiIgAiIgArUEpE1rsahSBERABERABERABETgCQhImz4BdIUUAREQAREQAREQARGoJSBtWotFlSIgAiIgAiIgAiIgAk9AQNr0CaArpAiIgAiIgAiIgAiIQC0BadNaLKoUAREQAREQAREQARF4AgLSpk8AXSFFQAREQAREQAREQARqCUib1mJRpQiIgAiIgAgUEbi4uFje/11cXBQZbKnReDxerVbL5XLHcbeUvtyIQCMBadNGNDohAiIgAiIgAq0EpE1bEamBCGxEoFSb9nqvf/yc3E7ubid3N3/9enP81ob53P+KU7eTu6vBtT0VG745fnvz1y/Y/vg56fVeW9urwTXdfu5/tadSSrDNk0kpBfmklGK3LkrJIT68ru//7EfY6XSKSv47n89LHKaUqqpqsrKnqqoqdNiUJO6qjIVCiVvrcLVajcdjZGLrrdtNfVqS8Gw7Xk7SwZxOp5bYfD5fr9d5LNvGlW0Hc8PT09PFYrFerztn6AzjcC43HsZWm5K07dfrtR1uRIzDMStXiK1sUMfE+bGHgVUczjqx5dgqCGeduHJgFYdzfngYWwXh6CEvBFZxuNzVi6/BVb9YLE5PT198Z9VBEdgBgSJtChVI0Xk1uLaK0B66lu7QtkwpvXv/4XZyB9H56tXR8PsN5ak7tC1TSjg7/H7T//LNZgJeNopLIHbbDTcEKNZO3KGoV6bTqV3FbcsgVu7ECp3q/g/mWCFKNJ8N7fxDm5Y4sTmPx+Plckk9WlWV7altmVJCntP/LQpdm5RSkKTL2bbM/diaGBHc/v3338vlsjU9uLWhXVYppfl8vlqtZrPZarUqlFPOifUfM7HddGXrxPl3h7alc2IPq6qy6y4EPTtonTj/1okrB1bOiW3pnNjD2Mo6cS2tE1cOrJwT29I5sYexlXXiWlonrhxYOSe2pXNiD2Mr68S1tE4OqgwO9ho5qO6rsyKwdQJF2vRqcD38fvPq1RHCQ+FBqkL8vXv/gZm9e/+BejEwtE5gix1WSFXrBGc/979SuV4NrtHsc/8rY6FZnE/sll0oL+CWZIUdpB6WbadN88a1gZwVFA/1rjOpqqrpFFvmcW2S3bQpnaMACUix4s4+PMmNmDB63nGeYtpQ2Fbxuzb2MHdoSU6nUyxOMQ3rEOrTyfr5fI4xjcM5PzyMrbqRdNoUW9FIOw7HrFwhtuqWZGAVh3O58TC2CsLRQ14IrOJwuSvUxFZBuCaHjzEng1g6tSkB3HPsIylp4k0Zqv3+E2jXplYyoj/YxYRStJKRO5rYDY0NcxGJB/EQwU7U8sUAK4Lx7N5p0yAfPM23IrvJbfmw5TuC2FLCzcItDPkqUhvI6QDeiWo39kpkX5zkY2vTQqEWJ7kRE1J1/FnPwnw+50i1SvzaDWA73HRb2GW0D7oWM2E4V4itgnDOjz10VkQxn8/jcNaJLcdWLlx8CdBtYBWHowdXiK2CcM6PPQys4nDWiS3HVkE468SVA6s4nPOjwx0QcIO1g4gKIQI7INCuTZ2IhPj7+KkPUWhFJKRe/8u34febq8F1bOi2MOGn/+Xbj5+Tf/zxT3hA/+Hn46f+j58T99Zpvm8a5ON2agO35dyd+sFt4vfv3xA67iwe+PI5eG0Up1+xEsxms+Vyme9KonHrh2aXhktyK9oUj/k6q+d8q8Ym+eeffy4WC25Ox0wsVWxAzmYz7jFYVqAHqvmKa/2wHJNkM3jLx4sNWIiHuzAcvaEQWHUmma9/6GNVVUG44LvDgVW3JJ8FyYNN0k1RHW6RQH5tbtG5XInAUxHYQJtabUdlSS3IGjajNmUN3jGFqGV7u70K4Wu1KfdBbTPCCrQp/TM6C9hwxb5vrVv6by1wiYXCgxzhM1koNgqj9Xpdq95sFLt60Y91bhu71/7sKVuOk+SmlM2zRFcxBDzU7juWq7QgSStWWpkwK34FiqIWeVKe2ldmLXbrwZWDJK0OK++1jZt3rTBceZIPIUluCAeYVpuixl0CLjceBl3rluSzIHmwSXLcVdg6AWnTrSOVw30gUKpN3bYllZ/d78S37CkBazcmaYgC9l/5pN5pUwrflFKtiGzSpth/dfkwsVa35QODJRbffaHupMjgAgyH3GoK/HP1snccu+rTFsKUwov1eSFOkiIjNyypgbl7Y5KGJa8coHGQJMVKKxPGRSGPbkeEw4TGJbvaQZIP1Ka1XSsM53odWD2EpNOmnMxBOMvksZOMLxwlyeGrvZnY0XkMkta/ytslYG8d2/UsbyLwhATatSlE4e3kjgrS7jval0TRDYrI2BDK1b0tStWIn3niLwPwF6NsDk3vm95O7vKXSvEyQKHb8vHACu2UGW8WWBHtQ/wSAVTd/3qUFZ2IQu3Lr29zvYkTjpN8iDbFMta0H4y4hVuwcZIlTHIITn3aNweYud0ttr+HkHvjS5ZNw02TjToedC1mwnCuEFsF4Zwfe8gpzUq+xRGHY3tXiK06J7ler2svnDicy42HsZWSJKh8evCUCo9NQPAfm7D8PwmBdm2af4WIG5C1kpE7o7GhdYKeU9TaR/+Ewof7rKnVpnyRgM1sPraMBrVuadta4B4DW9ptiVptWvvsm+ZWP7HSaSzIgkJhmlKKk+ysTSnvpg0/DpVvW7JHeSFOcuskITts5kggphonyU7BeaEoD7pWGI5xUYitgnDOjz106x9CYCbH4awTW46tuiUZWMXhbGK2HFsF4awTVw6s4nDODw9jqyAcPeSFwCoOl7vqXHN0dHR5eTkajU5OTjZ1cn5+PhqNzs7ONjU8OTkZjUaXl5dHR//5UZpNPWza/iHdRCx3bZYk0Lmbx8fHw+FwMBj0er2SQGzzkG7ufjTVTQ7cExaKtCkEH7+HdDW45s85QYDy0LV0h84Q3/fHViikKvc73aFtaWHlz/TjfArd2hCtZW4gUQVS37hbPCSL3depdY67v3ViNyY3FaYIESTZTZsiSZuY68tG+qw1yZiJC81DZ2VTcnIfJiW72gFJxrWBWNlUcEla/9wgh4Z2LZscxlbOiQvX5NOuf/Bgh946cf6bHD5Gki60zSoOpyQdgccg6UK0HkIfjEaj8/Pz1sa2Qa/XGwwG3SQmZNBwODw+PrY+H6/cuZtMyV6brIwLnbt5dnY2uv/b9AND524+yWiqm/H82c3ZIm3K/dEO/4ET5GmTIUQnzlKYoufQkfx/oezTfPvfPrGBNQ/+56fAbWfiWAXxdJiaksuhfWpsN+qCcFz+YUsrV0/PrXrXJWOThDalKxRaHdou09Y+7I5/jb+p79atTZK6n7HIpMkV6h0xK/LyPhZqyqYkYc4MUbBMmlKtTZKNm8KxQW0hsIrD1XqrzP9S5p6bo30QrtZhq1WHJFsniZK0nyiCcXkkknFEd/Z57bS55MsPH9JNROmgTbVvGg+Q9k1jPrs5W6pNd5ONooiACIiACIiACBQS6KBNCz2rmQg8IQFp0yeEr9AiIAIiIAIi0JFAtzeyOgaTmQjskIC06Q5hK5QIiIAIiIAIPIDA9P4PDkpekX9AKJmKwJMRkDZ9MvQKLAIiIAIiIAKbEuD73yWvs2/qXO1FYB8ISJvuwygoBxEQAREQAREQAREQgf8mIG2qeSACIiACIiACIiACIrAvBKRN92UklIcIiIAIiIAIiIAIiIC0qeaACIiACIiACIiACIjAvhCQNt2XkVAeIiACIiACIiACIiAC0qaaAyIgAiIgAiIgAiIgAvtCQNp0X0ZCeYiACIiACIiACIiACEibag6IgAiIgAiIgAiIgAjsCwFp030ZCeUhAiIgAiIgAiIgAiIgbao5IAIiIAIiIAIiIAIisC8EpE33ZSSUhwiIgAiIwMXFxXK5XK/XVVWJhgjsnsB4PF6tVuv7v/l8vvsEFFH/L5TmgAiIgAiIwN4RgEJdLpcXFxd7l5wSerkEptPparUaj8cppdPT08ViIXn6JKNdum/a673+8XNyO7m7ndzd/PXrzfFbm+7n/lecup3cXQ2u7anY8M3x25u/fsH2x89Jr/fa2l4Nrun2c/+rPZVSgm2eDJrB1iVjT8Fz7tZFKTy0n7QWi8Xp6SkNq6rCJ7D1el0+y3FV5Cbz+ZzeNtpasBnmd/ymcOxFbSHoWhyu1ltKKbYKwjU55P0lJ9karsnnYyQZdC0OpyRrCYCnuxIfg+QLvnC2PidrR0qVIrA/BMbj8XK5hDBFVnnN/mT7sjMp0qZQgdR5V4NrqwjtoWvpDm3LlNK79x9uJ3dQh69eHQ2/31CeukPbMqWEs8PvN/0v32wmGCo0/vip/+PnhDnjVOy280hXVcVPWtYJ1i0Kwel0WquQrAnK8/l8tVrNZrPVahXIWay1JU++bGiXVUqpMJzN0zmx/lNK9tC1tE5cObByTmxL58QdBl2zTpx/58QeBlbOiW1pPbhybGWduJbOjz0MrJwT29J6cOXYyjpxLZ0fexhYOSe2pfXQVEb79Xpttal14vw3+WmdycHsavLpQtusWsM1+bROnH93aFs2eePHuaYbl3Xi/Ac+dUoE9p9Adf9n88QMn06ntlLlHRAo0qZXg+vh95tXr46QEBQeZB/U57v3H5jru/cfqBcDQ+sEtthhhVS1TnD2c/8rlevV4BrNPve/MhaavTl+e/3//H+93mt4c9o0dssubFSwjwCcYX5qPp/zju8a83A6nWJNhfQMtGlKqaoquwDTiS3g6rISFs/L4HmjcHQbdC0ORw+uEFsF4Zwfexh0LQ5nndhybNU5SffBhpMkDmcTs+XY6gUnCQjsvr00WElQ9hJgpSvEVsHscn7sYcA/Dmed2HJsFYSzTlw5sIrDOT86FIFnRODi4uLf//633TRF8rlgfUader6ptmtTKxnRT2xMQilaycgdTeyGxoa5qMWLARDBTtTC1e3kzorglFKuTTkStdq00C2dtBbyO7U1satjSonv+Bd+CNuWNoUfGxQvBjhRWxKOvQu6VhiOrlCIrYJwzk/tYd61OFytE74D0ESyW5KBlZLEQGx04VDZW7CPQZKTJJ9dPJUXbFbunvAYSQbh8txYE1h1S5KeVRCBvSXAT5u84eA553w+tzs7e5v/C0usXZs6EQkx+vFTHxuWVu1BDva/fBt+v7kaXMeGbgsTfvpfvv34OfnHH/+EB7CGHzyjd6+HbqRN3U5t4LZ8jDGJf//+vVgs+BootIuTrbinz2az5XIZb4Uyeuuah4drVirR1hbcLggWnt+/f7sd3NZw9Bl3rTAcvaEQWP3555+LxYJ3h62QDMIF370IrLol+SxIPoskMYswN3BFWIEVDFy34bZWL+zCeYzhdhe7DkVgDwlAg2L+z+dzLO7T6VTa9EkGawNtarUdlSW1KWvYjNqUNXjHFKKW7e32KoSv1abcl7XNSKqzNo3d0n9rAcuSfSaLLcnpdGpv8dzLwXR/oDaFJIUULnHFhdlGZ0rsY7clln7ovDAc46IQWFnZl4dzfmoP864F4azscN4Cq25JxpMkCKck3dDg0OpRW946Scs/n121ufE9TnzKymfy1pPcnznZBET1IrA/BKqqms/n/PITC9KmTzJGpdrUbVtSWdr9TnzLnkq0dmOShihg/5VP6p02pfBNKW1Rm7a6LR+JfFmi2mDBrpEUcCUhcufOCiHc9qdrgy9Y8JtV3GTl0sj2reHYMu4allh8kSsIR28oBFZcYrdIMghnZcdjJ/ksSD6LJDnP+bqYnS1bH247SV7YhfMYw+2uIx2KwL4RwLTHLimW1Ol0ioK06ZMMVrs2hSh073py39G+JIoOUETGhlCu7ptMVI35L0BxF9Zi2mjfNKVU6NaGiMu51uSdHV9Ucj/zhGWMii12XrLmlThEG7u5W/slqpJwTLi6/2EsPme372IWhqMrFGKrIJzzU3uYdy0OV+uEfWwi2S3JwEpJciCAYtr8bdn8SrTa9DFIutxKnmDE94THSDKYXcw/LwRW3ZLMQ6hGBPaKgNWm+CYGt2/m9397le0hJNOuTSHp9up7+hyYTbUpd22tB379n5XlBatEYWXXSOzWcCMHv9bUus3J6FgG4jUPbYI12z1JzJPcKBwbB12LmdCDK8RWQTjnp/YwJxmHq3XSSrJbkoGVkuRAcJ1gjSvYF1345jcKi8Xiv/7rv+wry/wSUnxxFfLPZ5fLzR4e5nBbAjson5+fj0ajs7OzTWOdnJyMRqPLy8ujo//8KE2hh+Pj4+FwOBgMer1eoQmaHR0dXV5ejkajk5OTjQxTSupmTGyj0cTFjn1TalMUqqqKV1imcSCjyf4+aqFIm2LPkt9DuhpcWz1nD11Ld2hb8vdN8UAfbwJQAbtD/DIAH/2TyKbatNAt/ZcU3BeSqqqi+sR059fhXctW561rHnQw/QcObWiXFa1aw7ElVRpDW//8mUZcz03hrDeUrRNn5Q5ty9xPXlPbNevE+c89sCawck5sS5rnhdjKOnEtc1esCaycE9uS5nkhtrJOXMvcFWsCK+fEtqR5a8Humz7GnGQCtbOLZ10h7prtqWvp/NjDwMo5sS2tB1eOrawT19L5eZLDXq83GAy6SUyoveFweHx8vFHyZ2dno/u/TSUmRO1oNDo/P98oorrZimuj0cRM5jP9m5ub5XK5WCxGo9FisbDv8ARxD2Q0AwJbPFWkTfmfMHX4D5wgT5sMITpxlsIU3YOOxKn8jQLWswBzvkjAehSoawO3nbHiZs1NGvufQmHGcyOn5OMXljqaoMDnyJX5X6bW63WJQ/SrKck4XMAk7lpTuMAhBcRuSMbhgjyDrsVMmnzGVkG4Jodx1+JwTT5jqz1J0ibvtGnMxBq6clPXXvCFww+fvAu5+0wTE4fuqQ61oRiT32hD0bp62dvD+C4UdnxWqxXeN91okdW+qZ0tDyyXatMHhpG5CIiACIiACIiACOwnAX3naa/GRdp0r4ZDyYiACIiACIiACOyaAH80ateBFa+OgLRpHRXViYAIiIAIiIAIHBIB+3URfHfZvc1ySDCeuK/Spk88AAovAiIgAiIgAiKwDwTsNzr4Zd99SOzQcpA2PbQRV39FQAREQAREQAREYH8JSJvu79goMxEQAREQAREQARE4NALSpoc24uqvCIiACIiACIiACOwvAWnT/R0bZSYCIiACIiACIiACh0ZA2vTQRlz9FQEREAEREAEREIH9JSBtur9jo8xEQAREQAREQARE4NAISJse2oirvyIgAiIgAiIgAiKwvwSkTfd3bJSZCIiACIiACIiACBwaAWnTQxtx9VcEREAEREAEREAE9peAtOn+jo0yEwEREAEREAEREIFDIyBtemgjrv6KgAiIgAiIgAiIwP4SkDbd37FRZiIgAiIgAiIgAiJwaASkTQ9txNVfERABERABERABEdhfAqXatNd7/ePn5HZydzu5u/nr15vjt7ZPn/tfcep2cnc1uLanYsM3x29v/voF2x8/J73ea2t7Nbim28/9r/ZUSgm2eTI24u3k7t37D84wdusalxyOx+PVarW+/1sulxcXF9aqqiqcWq/X8/ncngrKp6eni8Wi1iQO1+QztuqWZGAVh9uTJG3+VVU1ZeXq465Zn+XDHVjF4VxuPGy1shGn0ykNg4I1cV1rDVfrNrYKwtV6Q2VgFYdr8hlbBeGaHKaUAqs4XJPP2CoI1+TwMZIMYumUCIiACFgCRdoUKpCi82pwbRWhPXQt3aFtmVJ69/7D7eQOovPVq6Ph9xvKU3doW6aUcHb4/ab/5ZvNJKUEYUo9CtHMw9it5VJenk6nVJAQlJSn7tC2jP3P5/PVajWbzVarlRMB1onzH/gMrJwT2zJwGFtZJ65l4DOwck5sy8BhbFXd/8EcS3uJPLWhnX93aFt2TtI6cf4Dn7FVeWcZwoW2/lNK9tC1pIe8EFg5J7Zl7oc1sZV14lrSQ14IrJwT2zL3w5rYyjpxLekhLwRWzoltmfthTWxlnbiW9KCCCIiACDyEQJE2vRpcD7/fvHp1hEhQeJCqUJ8Uf1Cc1IuBoXUCt5CVkKrv3n+gE5z93P9K5Xo1uEazz/2vrpljAZ9U1bFbZ1tyiFuz1TQXFxfL5RKCcjqdrlar8XhMV/P5nMqVla4wnU4Xi8Xp6Sk0hNWmcTjnh4exVeckm7oWh2NWrhBbbT1JFx27RK1Ds+Mk43B5F1ATW+Vnm/zY+oB/7tBeAtaJLcdWQTjrxJUDqzic88PD2CoIRw95IbCKw+WuUBNbBeGaHOLDxnav7iCWTomACIhATqBdm1rJCHvsYkIpWsnIHU3shsaGuajFHidEsBO1cJU/oN9Umxa6zTE11UA+Ts0j0fl8vl6vIS6rqkIB5liz1+u1bd/kOaWUa9M4XJOr2KpbkoFVHG5PkszTqKqqVZvGXQuY5OFYE1jF4ejBFWKrXKw489rDHScZhKtND5WBVcykyWdsFYRrcoiPQE33hDhck8/Yak+SbEpe9SIgAiJQS6BdmzoRCTH68VMfG5ZW7UFB9r98G36/uRpcx4ZuCxN++l++/fg5+ccf/4QHZAw/Hz/1f/ycuLdOW7UpbO1rA9xDDdzWkqqtdCs9VoLfv38vl8s///xzsVhwSxVLyGw2465qrUNbCRO7bxqEcy+5Wj+BVbck3VaN61oQbn+StHxSSuiRFQ2uAQ6Drj0LkhcXF9i5n81mfAe6tdcvYLiDgdufOfmCk6y9mlQpAiIgAk0ENtCm9ik8lSW1KWvYjNqUNfaJP9vb7VUIX6tNuS9rm7EzsTZFXD70t2nEbum/tcDlxD7HxPJvxQof5dtmrc4DbWr90HmTw60nacUKozOlIFyJDqCflNJDSMZJOlbY7bYfA1wDHAZd6zbccZJBuG4kLy4u8LUYfmQC7Vie7jjJZ0FSSebXaTAna68mVYqACIhAE4FSbeq2Laks7X4nvmVPCVi7MUlDFLD/ytdVnTal8OWXnMr3TZGGfQ2AibW6bYKV10M94EtLfFLvFJV9rGZv6Lk3V9OkTWvDBQvD1pOkWKntWhBuf5K0qCFMKdfsKVcOukaxUsvE+eHhjklCm7pXF9Ap+1Y000Nhx0k+C5JKcrVauTtecHW7GaVDERABEYgJtGvT2nc9ue9oXxJFJG5wxoZQrtzUhC1VI37mic/f+YtRVLFoH+ybwoPTsoVuY2T2LOSj+94A1Ynbo+IrpLynW1d5OdemcbjcA2piq25JBlZxuD1JkmngS8fxxiEbx10LmNBDXgis4nC5K9TEVtznpnmrNuXPCVn5jijT6TQOxyiuEFsFTJwfexhYxeGsE1uOrYJw1okrB1ZxOOeHh7FVEI4e8kJgFYfLXalGBERABDoQaNemKSVKRgTgBmStZOTOaGxoncAtRa199M8uUQ2zJqXUpE1rhWm5WxsiLnNLic3szmi+6ufKgIZ5AcuAfdAch8s9oCa26pZkYBWH25MkkcZGwpSvpVqJ9vDhfu4kn8VwK0ledyW3oK3PSUYvLxwdHV1eXo5Go5OTk3IrtDw/Px+NRmdnZ5sanpycjEajy8vLo6P//ChNoYfj4+PhcDgYDHq9XqEJmqmbrbg0mjGi3U/aOJ9tnS3Sptjj5B7k1eCaP+cEAcpD19IdOkN83x9boZCq/KUqd2hb2p7XatMmYcqfEWCUJrc2RGsZ+mZ6/1V9LIHchHOHtmWrW26yWm3K35KsDRf4tKFdVu7QtgwcxlbWiWsZ+AysnBPbMnAYW8EJByvwY0/Z0M6/O7QtrQdXjq2sE9fS+bGHgZVzkn/+sX5YdlbWv+bk6empg0BueeFgSeYo4hqovdFodH5+Hrd0Z3u93mAw6CYxIYOGw+Hx8bFzGx+enZ2N7v82VdLqZgxWoxnzSSntftK2prSVBkXalPujHf4DJ8jTJkOoQ5ylZETHIE/5/0LZp/n2v6FiA5jbcDyVv3XKU9ZtZ6BYqvHFZ6d1sBTxO9HQlHEgyAWaoGBfGwjCBZ4Dqw5JchORebquBeH2IUnXZfbC7ok25Rl0zbl1TJocxlZBuCaHlEro18Pn5HMfboASyfIfsHuMORlM1/yUNhRzJq5GG4oOiDvc/YbigUxax/mRDku16SOFl1sREAEREAEREAEREAERIAFpU6JQQQREQAREQAREQARE4IkJSJs+8QAovAiIgAiIgAiIgAiIAAlImxKFCiIgAiIgAiIgAiIgAk9MQNr0iQdA4UVABERABERABERABEhA2pQoVBABERABERABERABEXhiAtKmTzwACi8CIiACIiACIiACIkAC0qZEoYIIiIAI/P/tncFqG0kURT+lFvZCzAxDDFk4RBCIiRcCK8YmC4EQxsQbyxiy0SYg8BdoqV1+QB+gvTba6KMG8obL45XqdrXHY9nyzaq6u9591afLqqvXrY4IiIAIiIAI7JiAvOmOL4DSi4AIiIAIiIAIiIAIgIC8KVCoIQIiIAIiIAIiIAIisGMC8qY7vgBKLwIiIAIiIAIiIAIiAALypkChhgiIgAiIgAiIgAiIwI4JyJvu+AIovQiIgAiIgAiIgAiIAAjImwKFGiIgAiIgAiIgAiIgAjsmIG+64wug9CIgAiIgAiIgAiIgAiAgbwoUaoiACIiACIiACIiACOyYQK037XT+uLmb3E8e7icPtz9+vjt67wd+2ju3Q/eTh8vBlT/EA98dvb/98dNib+4mnc4fPvZycAXZ0965P5RSstgwmIODw+H1LaLuJw8fPn4KgVw2dK7ZHI/H6/V68/vfarXq9/sharFY2NHNZjOdTsPRrZs+ZD6f+z6N6XxntHkUSQeFvEGieLpcyvbwKJKuJJhSIlE8XUmTR5F0JcFXMchut7tcLm0ar9fr8XjsT4cz8T19m0T5Q3k6LxLahL/X3Pp3GqRsk0eRdFvVbGdjFJJO6z4u0H+z2eSn1phu61BJFE+3VU07RUAERKCeQJU3NRcI03k5uPKO0G+GnmHT9xQqmdUAAAceSURBVEwpffj46X7yYKbTPCXsadj0PVNKdnR4fdv7+s2PJD9tM82wp1w2D6/ZM51ON5uN2Udbv/3aYB/ii8WiRsr6BBGvn1Lym6EnSUGigojvSQR5lBcJPYkmiQoivicR5FFeJPQkmiQqiPieRJBHeZHQk2iSqCDiexLBfr+/Wq0wjS0KtsmLBH2iSaLG4/FqtYL9XSwWNfY0pPb6r+UPx3DZidjXAEB+HEnOpKTJozzY0LMkqP0iIAIi0IpAlTe9HFwNr28PDg5N2hyeWVVznzB/5jjhF0mgFzFZq7CaVf3w8RNE7Ohp7xzO9XJwZd1Oe+ehWzh5rxnGlsuG2JpN+2jGmp1SslXcW1V/tEZzOp2GlXg+n5vf5elK4jyKpCsJ2kqvQYbLvcckF4vFcrnsdrs2JWxG2R4+u0pTqFWUfcELdw9yZcK/VToo8yiSDgp5oybK+sxms/V63ehNn3mQPF1+vtojAiIgAo8g0OxNg71DvdOcoreMqGhaNZQH5qbWapxmgoOpNan8Bn1bb1opW8/RVk2/fszn881mY8t2vg7VKAcfYGbXHgbg6UriPIqkKwnaPWhvVjTIbre7ryRzO5JSwvclPrtKU6hVlHVu9KaEf6t0GDOPIumgkDcao/DlNs+eq6WU8m7+I6gx3VZNEsXTbVXTThEQARFoS6DZmwYTaWb085eeFSy92zMH2fv6bXh9ezm44oGhMmo6va/fbu4mf/71tynYyZjO5y+9m7tJeOq00ZteDq5QbQ2VWiJbDzG4T/tM//Xrl5U5bf2ezWZ42NT7ua1Zgg+wlWA2m61Wq/l8ztNtFcxrnH6Q379/Xy6XqOyGdCVBDdLIvBGS+VcR86ZWOH/yOZk/rm03kf03wHxm7sGc9JOq2+3mLjA/69fy17115NopAiIgAiUCLbyp93ZwlvCm2INu8KbY4++qo78vr5rx9d4UdVnfDSdT8qb4tZO/4++HwWWh39jAwoxqhy8pLX7/BArOz/pwe+qXWJSmIM7TlUZLorw3zdOVBDVIXBFc7j0mGR7WRK0ueNOcSe4yMaPInAxRJuuf4YaIb+zBnARYc+FtvWnO/+XMSX+l1BYBERCBRgK13jSULeEsfb3TfmUPC7i1MIlAa1j9FY+rBm8K45tSauVNcdo2Bns0FgNrlEV4Y8OW2PBkGEzeYrEIayqW5JIyllh/Ww2rDk9X0iRRWL22pisJapD+QUC73HtM0qaBFS/tDsByucTNATK7gsv006kyymZ+eLLZ66C9B3MSp2An1cqbbv0IejlzEpdJDREQARGoIdDsTc0Uhmc9UXf0D4laPphIHmiu0dc1U0pwjVb4xJsB8MYouFjLVaqb+jPHUE0/vOUKxV0fUt+29SOsnfB5MKkQtCUZP0DGft8I1VZfTeHpvIhv8yiSzouENoni6YIONnkUSQeFvEGieLpcyvbwKJKuJIi3R6G4/jIvdz5+THLOJA+sIWl9zKu1fe3aCydJJkn4uDCw06Z3SHH+JF3p0vwfc5Lk0iEREAERyAk0e1NvGS0eBcitlhGVUR7oRUwWptbf+seIvcX0O4O7xSE0fKAfm3XwRxFS3wiljrfzw+3cZGNl5UxKbHkUSVcSzB/Fw/33fr/P05U0edQeDzIAsXKm2SbOJARiszHKOtQb09d+ua3GiQfTQ4M4VE7yhcxJXPf6xuHh4cXFxWg0Oj4+ro+ynmdnZ6PR6OTkpG3g8fHxaDS6uLg4PPz3pTSVCkdHR8PhcDAYdDqdyhDrptNsxKWryRE9/6Tl43mqo1Xe1IqL+B2S/4GRGVD83ij0DJsh0N5aaqVQs6p4U1XY9D39mTfWTUsvRrX3YZVkfYrGtv+hhq0TeKI0bFqFo/HnxiHK6+PJP28LkI4M1YsE/bDpexJBHuVFQk+iSaKCiO9JBHmUFwk9iSaJCiK+JxHkUV4k9CSaJCqI+J5E0B+yED+NvUjQ94GhTaJMpJUxTSmF1F7/tfzheESVdVN+apyJT+fbPMqDDT29yH9sm9sbjUZnZ2etpDqdzmAweJzFNBs0HA6Pjo5aJT05ORn9/tfWSes0OWddTc4npfT8k7ZxSE/Socqboj76iP/AyexpKdDcoR2FMbUTM3uK/+HJ3833/w0VOlg4HiQoZSSyjwZqH9Z4FA+vgcR6iSoIqX/47PaJX4oi6bxIaJMoni7oYJNHkXRQyBskiqfLpWwPjyLpSoKwAm/qcptPslMOj1AbqKcl6dXwVxCenNl6gfbgcuO86r3pa5mTOLWahgqKjZRUUOSInr+g+EYmLcf+VEdrvelT5ZOOCIiACIiACIiACIiACJQIyJuWyGi/CIiACIiACIiACIjAcxOQN31u4sonAiIgAiIgAiIgAiJQIiBvWiKj/SIgAiIgAiIgAiIgAs9NQN70uYkrnwiIgAiIgAiIgAiIQInAPx5TzhPGvvgzAAAAAElFTkSuQmCC;" parent="1" vertex="1">
          <mxGeometry x="540" y="-55" width="194.72" height="125" as="geometry" />
        </mxCell>
        <mxCell id="5Oz1r2imxajkxTDogwbM-49" style="edgeStyle=orthogonalEdgeStyle;rounded=0;orthogonalLoop=1;jettySize=auto;html=1;exitX=1;exitY=0.5;exitDx=0;exitDy=0;strokeColor=#FF66B3;" parent="1" source="5Oz1r2imxajkxTDogwbM-35" target="5Oz1r2imxajkxTDogwbM-44" edge="1">
          <mxGeometry relative="1" as="geometry" />
        </mxCell>
        <mxCell id="5Oz1r2imxajkxTDogwbM-50" style="edgeStyle=orthogonalEdgeStyle;rounded=0;orthogonalLoop=1;jettySize=auto;html=1;exitX=1;exitY=0.5;exitDx=0;exitDy=0;entryX=0;entryY=0.5;entryDx=0;entryDy=0;strokeColor=#FF66B3;" parent="1" source="5Oz1r2imxajkxTDogwbM-35" target="5Oz1r2imxajkxTDogwbM-45" edge="1">
          <mxGeometry relative="1" as="geometry" />
        </mxCell>
        <mxCell id="5Oz1r2imxajkxTDogwbM-35" value="machine-readable files" style="whiteSpace=wrap;html=1;" parent="1" vertex="1">
          <mxGeometry x="580" y="90" width="120" height="60" as="geometry" />
        </mxCell>
        <mxCell id="5Oz1r2imxajkxTDogwbM-37" value="class file" style="whiteSpace=wrap;html=1;" parent="1" vertex="1">
          <mxGeometry x="200" y="640" width="120" height="60" as="geometry" />
        </mxCell>
        <mxCell id="5Oz1r2imxajkxTDogwbM-39" value="Computer" style="text;strokeColor=none;align=center;fillColor=none;html=1;verticalAlign=middle;whiteSpace=wrap;rounded=0;fontColor=#ae0909;fontStyle=1;fontSize=19;" parent="1" vertex="1">
          <mxGeometry x="80" y="-60" width="60" height="30" as="geometry" />
        </mxCell>
        <mxCell id="5Oz1r2imxajkxTDogwbM-44" value="" style="rounded=0;whiteSpace=wrap;html=1;strokeColor=#0000FF;" parent="1" vertex="1">
          <mxGeometry x="860" y="150" width="370" height="180" as="geometry" />
        </mxCell>
        <mxCell id="5Oz1r2imxajkxTDogwbM-45" value="" style="rounded=0;whiteSpace=wrap;html=1;strokeColor=#009900;" parent="1" vertex="1">
          <mxGeometry x="860" y="360" width="370" height="140" as="geometry" />
        </mxCell>
        <mxCell id="5Oz1r2imxajkxTDogwbM-46" value="Memory" style="text;strokeColor=none;align=center;fillColor=none;html=1;verticalAlign=middle;whiteSpace=wrap;rounded=0;" parent="1" vertex="1">
          <mxGeometry x="827" y="90" width="60" height="30" as="geometry" />
        </mxCell>
        <mxCell id="5Oz1r2imxajkxTDogwbM-47" value="Heap Memory" style="text;strokeColor=none;align=center;fillColor=none;html=1;verticalAlign=middle;whiteSpace=wrap;rounded=0;" parent="1" vertex="1">
          <mxGeometry x="860" y="150" width="90" height="20" as="geometry" />
        </mxCell>
        <mxCell id="5Oz1r2imxajkxTDogwbM-48" value="Stack Memory" style="text;strokeColor=none;align=center;fillColor=none;html=1;verticalAlign=middle;whiteSpace=wrap;rounded=0;" parent="1" vertex="1">
          <mxGeometry x="860" y="360" width="90" height="20" as="geometry" />
        </mxCell>
        <mxCell id="5Oz1r2imxajkxTDogwbM-53" value="" style="shape=image;verticalLabelPosition=bottom;labelBackgroundColor=default;verticalAlign=top;aspect=fixed;imageAspect=0;image=data:image/png,iVBORw0KGgoAAAANSUhEUgAAA5UAAAJJCAIAAAC1QYRkAAAgAElEQVR4Aey9/29cx3X/3b/kmYZiAcJ2BBOwAOoREcFmzTR0STGiDWNTYkvLEuKKqhI5FdtGzrp0U8eP4IZ1GnfROqK/JEqUrr+0cu2NgspfVrI2FC8KfIDgeYD+lD/lCXnIt47O3Hv27t0vXC7fRBDPnZlz5sxr5s5937l3r/7g/+JfjwmEvfh7kH8kQAIkQAIkQAIkMKQE/qDH4u3gut8L1XqvzSGdruwWCZAACZAACZAACTxI/do1hX1PPDJFAiRAAiRAAiRAAiTQMwJ/0DPPdEwCJEACJEACJEACJEAC3SdA/dp9pvRIAiRAAiRAAiRAAiTQOwLUr71jS88kQAIkQAIkQAIkQALdJ0D92n2m9EgCJEACJEACJEACJNA7AtSvvWNLzyRAAiRAAiRAAiRAAt0nQP3afabD6fH/npgYzo6xVyRAAiRAAiRAAvuMAPXrPhuwPQp35f3/87v/eXelEwn75IX/55VXsv5XOXN8j3rGZkmABEiABEiABPYbAerX/TZiexTvxN9c+5//7UjCvvRf/+9v/7+s/22+eWqPOtbrZr+++vYv3179enozy2u//OX66nx6IXNJgARIgARIgATSCXSqX1c++O3vdv5++/7F9Dbuy61+vlv/d59X7yvJdrXyvmpk5T6j1++5a7x+X0lWQyr/d7/7XNmoVn5nY9vxfPH9395nsp2tHO5Nj9DtrfB+99sP7icUQsjKDyFkBw+vSGxL2P/9n593tAsLbwclQf16UEaa/SQBEiABEugfgY7067bi3JGAOp0Z/pZa2pW5Oh2CNtfpELZl5Y421ekQwpZ43ZVrOi2yLLWhlfcb70Pfvd7YCmf38PX3ofy2Vd19YvSeztOS12mobz26B3urO/eA3Jf/29/+VvV0t0gPgU7vlsf/7UTCPvz43NzX1f9mJh+IGxi+HFe/Dl932SMSIAESIAES6AOBTvTrlmRUIm9LXO6qydTIbYUtvbUjTLNdbekqJRm3thJ3hOmWzL2nPkVKSk2nofsDU97uLzAedsMzwWxra93lvexR9fPf/fbzz1OG4PXPt4jtduFeP00fgwr+XqU4JRK2+da3230X1r4/sPH2n8fehy+H+nX4xpQ9IgESIAES2GsCHehXK+YggLak0q4wVbukkVi8J0AzXcEnOEGHWfm1/ZR8W9o6DcGNJKKau+WRcykwcUbme9cjEalpYW/p2q095q3Y9CsWTvC7FLL+O3H+neb//u/nP854qTPLrHD+ubVf/nJteev/t/+2Xxidf/FtfXjP95Ze3P1bW97Nn19d/+XbLy6vru8UrZ0LIWy9fSp/24e7dUO45/yXWy3fK9CRrK++vB3XvdIgrdz/OuuOft0q2m3snsOtCHb9S1o1vVugGmCSBEiABEiABEgghFBcv97Tarsg7+UobXRvV8+Iv52XL7d2TO8ZWlexIEMOhOyuzfbrBFv7wdkNoaok4nbv5etNX5gZz+Zwz3oEJkggYpWjBmWrODt4GGcltvXr75pvPZtVocv5olx35Nyu6FSHb7+4Kxnv2+zclow71UQ+7vyOalcj6sN7YnG7ARxuG+InVvdFEoLIWfT2vtZ3c3f0NH7CdZ970axSVTq22xcd/K4r/pcESIAESIAESGCbQG/0a9jdN9UiSaeF/m5OrCN3c5T82hkw5HSsX7da1+8/iKTb/nWZ3qfUE2U34J08c6hE4W7894x3cxA/ipBTsEf37hCi9xnu7UlvtYaGtpvODh6RpSZEvP72g7Z/xWXfH7jvWwTu9wful4nb6hP6cnuvdFdfLq/9clf/bcd+z3BLDqqiLa1oDne2YGMNqnO2HEKJhrC94Yq9263A7sW1C29bv6LOVu69qLZ3gHdNtmLa7YiptuuL/yUBEiABEiABEtgi0Cv9Kj+uuk8gZgumXW13b0h2c+6XXFvlyCmo9qSNLc23+x7tvVaR2go17V1e0wVzuBf6dReUhA44Oz3ZKlVa/L7K2cEDQ5woLF5DCPb3W/q3XF//k8kH49Z2c5Tg29KML76tdZ46lE3W3cf09z2tT9GvSlNub4NuvVGwLS61iNzK2rLdqXx/JDvB7AhQVW038K3/avkr+Spnu+Gd1wl0eqti1Jb2yjQJkAAJkAAJHGQCxfVr/ABabQTuCM379Kt5fq1fG4i0FFwhsTtIkK1Wq93ba3Qa2vKyZXjfD792Xev/3if1UGDidBoyNbEhrRK7Xjvp0ZZt2p/8ji29dOcnd07wu5GZ/3YiXo2r9g7vV3JKsG65UYcZCnK7Vrz/2hX9ui1PtwXs11fftsJ3u5dKre70WuVozarTWzXv7/WOLf9DAiRAAiRAAiTQyf7rPb24w3FLF+JzBDs7f/fJOAi1HYPXG7t7nFZL3XNldeRWzZ3PEVhpu/tDJdn6RSRbvyBDQyJe1ZZk1hyw7Uq9+7qz89O09Ib61yPdg/s1vY12V7vvdD97OLTL3XTn4jX9/YH/+vvdFrL/e7+SU4J1y0QfWgl4z2Xu/VclLnesdc79kUiF5bWt3dn5F99WLyTcazjef80K2Aaf1pbyyyQJkAAJkAAJHFwCHey/ylbi7hes7hN8W8pJvnK1vdm5qxe36uyqT7N9uyVGU13d95HX+/XZlkaEYr5PjWU2pOSvGfOVDz6/9+8vbHvWH8baqRwpwsyGHDjd7dF93biPj9X3UlN1wQn+Pq9bB+L5hT+OCvJnpP/7sReebO3hfiWn9Z/Rr9t7lrvP+ref3a/t/LQrt37d+SrB7kup2y8P3Hur9f5IdiI/t/bLtdXVdf1e7JYW3ZGzW/JXfcVg+xBKV2tWnd7ynNpWa1isQQIkQAIkQALDT6Aj/SpbmzvPr3fV5/a+7O7GavSPP21rJrHY2UYF4y29JX9wtVN27zm41ZTbQnPHXea/5qUa2lJv0Z/I6/uL9K4qIjSaW/L3uEf3goPK3P4HGe4T97rSFkxgdILXNlvp6T/uRLxab20d36/kPP26I/vwCux9MhSqUTRq+vsD24FtScndP2WVpSm3q6OpLQ9bOUq/vr167t5XvbRDrVl1esvH/b1uCxgrkwAJkAAJkMBwE+hUvw43HfaOBHIQ2Fae8vOvHLVZhQRIgARIgARIoEMC1K8dAqT5gSfAjdIDPwUIgARIgARIoM8EqF/7DJzNDRkB82btkPWO3SEBEiABEiCBQSRA/TqIo8KY9gWBrTdx1U+z9kXMDJIESIAESIAEhoAA9esQDCK7QAIkQAIkQAIkQAIHiAD16wEabHaVBEiABEiABEiABIaAAPXrEAwiu0ACJEACJEACJEACB4gA9esBGmx2lQRIgARIgARIgASGgAD16xAMIrtAAiRAAiRAAiRAAgeIAPXrARpsdpUESIAESIAESIAEhoAA9esQDCK7QAIkQAIkQAIkQAIHiAD16wEabHaVBEiABEiABEiABIaAQBv69cEHH3xn9295eXkIOs8ukAAJkAAJkAAJkAAJ7DsCrfXr1NTU4cOHQwhzc3NJkvz1X//1G2+88c4770hXn3rqqS996Uv7rtsMmARIgARIgARIgARIYJ8SaKFfp6ambt269dlnn33jG9/49re//V//9V8hhBMnTnzxxRdf/vKX33jjjSRJXn/9dUrYfTr8DJsESIAEDjKBubm5RqORJEm9Xp+cnGwXRbVaTbb/KpVKu7asTwIk0AkBT79OT0/funVrfX39u9/97t27d2/fvv3aa6+FEB566KEkSW7fvv3RRx+dPXv29u3bP/rRjw6OhB0ZGXnppZc+/fTTzc3Nu3fv3rhx48KFCxiDubm5a9eubWxsJEly586dN99889ixYyjNSmRZjYyMzM/Pv/rqqzdu3BCfOVdJJ8iRkZG//Mu/rNfr4vDWrVs/+MEPxsbGsmJDflaQIYRarSaLeJIkGxsbH374YblchmFWwgkSJs8999ydO3eSJGk2m3neWnGCxJUGoebx2TLIUql09erVW7dubW5uJklSq9UQfFYiK8jl5eVms4nwkGh5ZfWDvHDhAuZPs9m8du3a3NxcVmzIzwoyhPD7Kf3mm2/eunVLhvv69etPP/00DLMSfpAhhB/84AfS5U8++eRrX/talh+dnxUkRIk43Nzc/Pzzz/PMcz/IkZGR73znO4B569at1157TR5P6ahMOitIMyG/+OKLa9euPfnkk8Y8PnSCNB2X7recP/J4LWvhMnGKz5wLURx8CCFrnler1dT6Pc0EsTyU4kgAxwCZnJys1+vCKv7/PCtP3BZzSIAENAFPvy4tLSVJcvz48RDC0aNH19bW5ufnxfjv/u7v/uqv/urQoUMhhMuXL3/44Yejo6Pa77CmR0ZGqtWqKBWsShsbGy+++GII4emnn/7000+RL4mPPvrIv613rL7+9a9//vnn2qFZJVM5+0G+8sord+/e1T43NzfX1tZSXSHTCdLoV/F88+bNJ554AuZxwg9S6h85cuT69eviMM+K7weJKw363tJnyyBXV1flNgA+W+pXJ8is6/rHH388MTERM5QcP0jcACDCPFtNTpCPPvroxx9/rL0lSfLJJ5+cPHkyK8IQgh+k3BV/8MEHv/nNb27fvr2xsfH888873qTICRKiRMe5ubn58ssvO279IEdGRl5//XVz7rScQk6Q8YSUm95z584VDjK14y2VmRNkCCE1zjwLUVYvsuZ5/tvULM8F8kGsJaVU54BjgPRUv1ar1ZYTLzVaZpLAMBHw9GsI4erVq++++66zt/rVr37199uQMzMzwwTF6cuzzz57+/btzc3NK1euHDly5NixYz/96U83Nzc//PDDiYmJn/70p0mSfPbZZ2fOnBkZGfnWt77VaDTu3r176dKlLJ8jIyOO1cjIyNtvv/3OO++cPXtWHnKZVTLVrRPkkSNHHn300ffee+/v//7vDx8+fPz48ffffz9JkpYKyQlSxyAbVM3tP3+71A9SfL7yyiubm5s3b968c+dOy/XaJ4nLcFt7PH6Qf/ZnfyaT4ec///n8/PzIyIhGkZpuGaS2euKJJ35/G9Dy7sIPUq6v7777rjwHOHPmzK1btxqNhrMF6wf58ssvb25u3rlz5/nnnx8ZGfnmN78pM9MH6wcZQpBbtXq9vr6+niTJ+vq6RhGn/SBFlGDOPPHEE7/61a+SJOkkyG9961u/+c1vkiR59913Z2dnQwizs7NvvPHGmTNn4vAkxw9ShkZk0+HDh7/73e8KyevXrx85ciTLp0/SdDzLic73g8SJ0/LGTPv009Cv8KnVnj85fc8FSnukX3UklUpF7qP86adNnHRt+2EX5rZTk0UkMNwEPP06MjLy9NNPJ0kCIfLggw8+++yzsiMbQvjDP/zDjz766J133nnwwQeHGxN698Mf/jBJkhs3bjz66KMhhCeffFL2oprN5osvvvjJJ59gj2dsbOzVV1+Vzblr167Bg0l87Wtfy2OFRTaPfnWC/OY3v2kC0BdRU4TDnEGGEA4fPvy9732v2Wy23JBrGeTTTz/92Wef3blz54UXXmg0Gi3X65ZBSk/buoT4QUrphx9+6KgNMJREyyB1/ddeey1Jkl//+tfT09M636TzBHn9+nU5bV966aWNjQ1MYONKDv0gBeO7774LvS6K84MPPnjooYdSHYYQ/CBDCC+++OLm5ub6+vrzzz+/sbHRcjPMD9LIuFKpdOPGDZybxYL82c9+lmc4tHM/yPjUk3uDL7744plnntF+dNonaTquDbPSfpD90a8hBC1h2zpJs/qVMx9La8spl+pQBjFJEmdlpn5NRcdMEuiQQKZ+/eCDD0R73bhxQ17JmpiY+Oyzzz7++OONjY3Lly9Lw2tra7dv35YHiB2Gsi/Mr127liTJz372s5GRkX/4h3+QVzPl3np9fb3ZbMq1Z25u7j/+4z/wmoGzMn7zm9/MY4VF1lklAdAJ0pg/9NBD7733XpIk//7v/w45Aj9I5AkS6/jv3zn59NNP//zP/xzmqQk/yMOHD1+7dm1zc/P111/PeUluGaSOUF7SdVSCxOwHWdveCPnwww/lxcH4Zei44y2DhMns7Kzc2LzyyivITE34QeJxf7PZ/NWvfnX37t1Go/Hcc8+lupJMP8grV64kSdJoNORe6NFHH/35z3/e8p0EP8iRkZGrV69ubm6++OKLIqda3q74QZ4+fVr2MvH+wMbGxr/8y7/476o6Qb766qvyOmPLjWEN1g/yrbfeMtyeeeaZL774wn99wgmyUqlgoUDHW76T7Qc5OTmpTxxx2+EWabz/KtCg8/SCKWeZtIv9WqlvOptlFYtL3aO1tTWZKtocEcavNOhG8bggbkJPA/TL6HIdBlpHf9FZmN+4ccO8H9/yNNFhME0CQ0YgU78mSfLtb39b/6zn1Vdffeutt770pS999atf3djY+PKXvwwWR44ceffdd3E4xAlZXN58881arba5ubmxsfFv//Zv8mjyrbfeajabt27dunz5smj6Gzdu/PM//7O5RBk4slC2tMKiWcnxK1cnSGMuu3F37tzxBU2eIPVanCTJzZs3/d/0+EH+XsdsbGzIq8PS95YrdcsgTYR53jV0grx8+XL8Gqj8rvHZZ581o4zDlkGiZs7NV7x8nDonZbhLpZJ+LfvatWt4hILmdMIP8uLFizK9tULyJ3nLIEWz3r59+xvf+MbIyMi7776bJIn8WlQHptN+kLF+lZ+ara6uaicm7Qw39KuRIMaDOfSDjPVrntPcCbKYfvWD7Kd+lUjk7mhu+8/chOhpBlWHeSgSEAyRb7SvADSl2nO8UECeIsLYXM41MwHkEKFi8ujNZriSuwIUyYqH7tTr9UuXLlG/phJm5sEk0IZ+ffnll1999VX5LVeSJPqZ6cHRr7L5ISvOf//3f5fLZTx9u3LlChaXjY2NarV6+PBhedjnvF0qmx/i0LHCKuaskpjBTpAvvPACqslvj5rNps5EqU7kDDKEMDY29txzz33yySdJkrz33nvOA2UnyNdee03eeRVVLX1vqV/bCnJ5efmzzz5LksR5teP33XGCvHz5smzINRqNixcvjoyMPPPMM+Lzxz/+saan0zmDfPLJJz/77LPNzc2Wm69+kC+88MKZM2cajYbcaP3whz+UJwYff/yxvACjY0O6ZZDPPffcjRs37t69u7Gx8f7774sg8N8fcEi+8MIL8s7A9evXH3nkEbxsgEMEphN+kM8884x+52R6elo0sf/ihBMkhvtf//VfdRh+2g/yzTff1LIphCD1/anuBPnCCy/kPFl02H6QExMTouewHahti6WhAo1PrHKi5GReYa8XVpVKBWnNam1tbXJyUqz0u87I0YZwC7Uq8heeoTXFXErhSkoRMARuKpBYv0qjCB5+xC1iqNVqpiZuBWGb2iIzSeAgEMjUr3h/4Fe/+pW8P/CVr3zl9u3b77777q1bt3Bu/9M//dPtg/T+wI9//OMkSe7evfvGG2+IgpdfdXzxxRff+973RL588skn8pMOPJ3/2c9+ljWZZmdn81hhgavk2H91gpQn5iMjI5cvX97Y2Lh9+/bFixezYkN+ziBRX9ZcPBFDvk44Qf7kJz/BnoRJOD7bDVIuReYKqiMMIThBPvPMM+JBP1CWHJwdxpv84ifPcAvAlm++in8nyGefffbf//3fkyS5cuWKvB8ivzm7e/fu3/zN38ThSU5bJB966KEPPvhAy4VUt06QzzzzjLxBa8bafw3UD1LOF32NFw0B1dJukH/xF38h3XRmYOzTDzI+TS5fvpwkyeeff/71r3899iY5Psm441l+kO8H2bf3X/V3ter1euoOusyQ6vYf0uiIfAXMeRkAclDLTSytMrIyKGYqypbwhQsXYueo76zMRr9ihzVuBcsR3MbdlEVGz21NgGkSODgEMvWrfPJGfr+F77lMTk6urKwsLy//0R/90cH8/dbp06fv3Lnzm9/85qWXXhobG3vyySfl5YHr169PTExcvXo1SZLr168/8cQT+P3WxsbG3/7t32ZNKXnzr6UVFllnlUQTTpBHjhwZGxurVqt379799a9/7T/ih8OcQcr+a7lcFib+O7VOkK+88kq8skuOox7yB3n48OEXXnhBdiL9h9ROkEeOHJHNdXnZd2Rk5Pnnn79z547/I6E8Qba1+RpCcIL80z/9U3nJ4Sc/+Ylsbcom8ebmprPpnidIWR9+/0G9N998Uz4O7bw14Qe5sLBw48aN1BH/wQ9+gEloEn6QRsY98cQT8iG2X//611NTU8YVDh2SR44ckR9XbW5u/vznP5+dnZWft7711lvfjH4TCYd+kFq/PvLII5cvX5YHOD/96U+dl9H9IE3HEYmT8IPsp36FzqvValjx4omRKkOlg7DSC0W8nVlAvzabzZdffrnX+hVha41rbrqoX53JzKIDRcDTr3m+n/Unf/Inv3+P0P999DABfeihh37xi1+YJfXOnTsi8VO/tXnt2jX/VyOOlV7FdKNY5lLZ+kH+6Ec/wg/LtE9fGTtB4pqhvd2+fdu5rsv3Ph2Sul/5L8lOkKkk/cfoLYM8efKkvCmhO97SpxOk9FpkTc7N15ZBvv766/FwdxJkTHJjY+Oll17SQxannTkp8sL8mwXyY3//nQSHZOqcvHv37j/+4z/GsSHHCVK+raGf3cugt9wGc4I0e2zisOXQ+EGmdtxfLkIITpB90696XukXeVODBzqzaqH72qqYfjWeszZ3syLBpAohQJfLkxn01AhTbQK3MiuwL8v3BzQlpg84AU+/Lm3/+wVf+cpX8O8XnDhxQniZf7/gP//zP+XfMjgINA8fPvzaa6/pf3xI/1tT5XL5+vXr+Ket8vzzPCGELCusdFohmXfmUpk7QZqVEZ7j9dp4zgoS14wkSTY3N2/duvXOO+84nxeFWydI1MFlo6VQEJOsIDXJu3fv3rx58/Lly/odbt2iTvtBPvnkk++9954M9507d9566y3/p1F+kCGEUqkk/5RXnjdfEacT5NjY2Pe//3355+KSJLl161aHQYKkjPUvfvGLlt+akDizgpQJaXbr5XNat27dKpVK6GacyBpuPSfll1s3btz4zne+4+xr+kFKqcC8efPm3bt3Nzc3P/300+9///v6R65xhM7Zrc/EjY2NrsxJ03E5u7WYS43QCbI/+lWHDa1W2/1X/fBCzuTk5Pr6+uTkJCQplgUUwQoLms6BlAQTlEoOPGtxWdn+w8zH9i0qIycVLxpFRzD06GwI4cqVK7Jswm1t+08GMbU7qc0xkwQOCAFPv371q1+9ffv2T37yk0uXLul/P/bLX/6yXAg/+uij5557Tv792JYXhgMClN0kARIgARJwCECf4eYZCchK/TosSvWtOyQgSsVWS2EU4SNiWoPqUu0ZilZXEPkIJaqLJA19GXccVtCvqUGKYkaEcghWIKM7DvkeN8ocEhh6Ap5+DSFMT0/fuXPns88++8Y3vvHtb3/7+vXrIYQTJ07cuXPn8OHDb7zxRpIkr7/+uvMPdA09QXaQBEiABEggPwFoMq0CU6UYxBxqaplo/Oi9TKNBtRUewcu3XSuVSvxWKxSntAvtaFS18yaupgFv0K9SaoKsVqu6v6iMauggclKh6aaZJoEhJtBCv4YQ/viP/1he35ybm0uS5OLFi2+88cZPf/pTgfLUU09RvA7x/GDXSIAESIAESIAESGDQCLTWr4j4wQcffGf3D/+iLEqZIAESIAESIAESIAESIIE+EGhDv/YhGjZBAiRAAiRAAiRAAiRAAj4B6lefD0tJgARIgARIgARIgAQGiwD162CNB6MhARIgARIgARIgARLwCVC/+nxYSgIkQAIkQAIkQAIkMFgEqF8HazwYDQmQAAmQAAmQAAmQgE+A+tXnw1ISIAESIAESIAESIIHBIkD9OljjwWhIgARIgARIgARIgAR8AtSvPh+WkgAJkAAJkAAJkAAJDBYB6tfBGg9GQwIkQAIkQAIkQAIk4BOgfvX5sJQESIAESIAESIAESGCwCFC/DtZ4MBoSIAESIAESIAESIAGfAPWrz4elJEACJEACJEACJLDHBGq1Wr1en5yc3OM4BqZ56teBGQoGQgIkQAIkQAIkQAJpBKhfDZVM/To29sCZcyvnV1bPr6yevXDp4fFHtOX0zLwUnV9ZXSgt6SLf8OHxR85euCS2Z86tjI09oG0XSktwOz0zr4t8t048IQTHrW4if3p5ebnZbCbbf41GY25uDraTk5P1el2KkiTJc7c0NzfXaDRgIolarQafIYRarYYKeXxWq1XUl0Sz2VxeXg4hVCoVU1StVnVbqWkdAMzhU0w0ljxBxpFoh5qkzk8NTzL9IP3mHLe6X2a4zdDkIRmHaqz85rLizLJKnV2VSiXLj87XPHsaZEsmOiqT7nqQ4h88wcqQzDknW3YNDSVJEs8u01l9qA316aZPnJxLUO+C1AEzTQJDRkCfg0mSYK3oUTepXw3YdP0qKhPCdKG0pCWsPjQ1zaGuGUI4euz4+ZVVEaaHDo0unjoLCWsOdc0Qgu9Wt2Jq+m4Ni5yHIoPkci6XClx15AoH6SmH+tKS2oSxMnWkFE2EEJaXl9fW1kw1c1itVrOur5VKRRfp7hgn/qE5l2q1mnbr20qpiUSbGCYSZIHVQQfpNKebNmnNxwy3OdQ1jRN96FtpJ6amdmLSjpWQNOrTmMeHpmntH7dAqadA7Ao52onxbw51TZjHCd9KOzE1Y1cmR+rLfVrWrMs54U3TOqrCJOWuKfV0MyeOHLZcgnoUpKHKQxIYJgKySaSX1itXrujNrK53Vl/Ouu58PzpM168LpaXFU2cPHRqVLokKFDkrAvHosePo7dFjx6FuHUPtRGxlS1XkrHYipdMz81C3jls/Ht8tupA/IQs9FGoIQeuDWCFVq1UtPVMbMpccU6dWq7X0YExCCPn1a9yj2FucI/edOHXjjscmcY5jZU5UCbLlZdg00XmQMZzOhzvuNSaJ35zpHQ59Kx0wTEEgOj0AACAASURBVFom+hyk05wTqmPlM3F8SpF4XltbazabWfpVZldWKZroRZCxzzzNoU6ciB12OCfjJoYjxywp0ilnsR2OXrMXMYHUmRBX626OXBYvXryIx78t15/uBjBo3lL0q5aVEq7shoqa1LIyhCCqVHZVfcNYaMpDfxHKRqHibYGjx477bp145M0BLcS122IjEV+05CZMpJVsrugpZXRYaqOOfnWKUl0h01lSzbUqvtLDiZPQqrqYB9l8St1DSnWIC6oTlSnSQTrNGSt96A+3GVwZrJZPkRwrvzkdmE77VsX0a5+DdJrTPTVpx8pnYvyYQxCLneiafilqdj3I1LMDzRVbgroeJOIZsoTA1zfS/nAMWffZHRBwrrCo0/VEbfs1Qlw0C1wTux7S3jpM0a9GaIpAfOzxGdlk1UJT5ODMiacWT51dKC35hmYrVPzMnHjqzLmVBx86LB6Ehfh57PGZM+dWpmfmfbdOPGbH17gtxt2IP1n319fXsUUqM0w2JnM+YXREanw1yhm2c3aZLjg1s9qSKzc2XyX+9fV1/eKvFvFZfkwkupq5oPo7ytoQaRNkMf1qItTDffr06Xq9jp14aW5tba3RaIAMgkHCXO2MldOc81jKt5LRwSvLLeV1CKHPQQ4OSRkmzD0ZndSZHOsYDLFO9IJky9Ot3SWoF0FqCEOWNgumM0mGrOPsDgjkPP1Rv1sJoyg49zz9qvUf1Cf0InJQDUITOfLOqwhf1Nf7qSKOtX7Ffiqq+W6deHQYsdtiUwpaQa4iolTMbZCIzvy/xogVRpIk4rkT/aoliw4G4aFC6hXa4WP2NeUswk2haM08OimOBBsbUgQhGDfhhCdFJki8a4he5/lpizPcWnVhAuhZkRqh1gqxldNcHv2qW4dzE0b8zpapYPQr/MB514McHJLycjneGYgvDzJ8MoVwyxoDRE4vhjs+F2RM9VmMM2uvggSB4UvgRJCu4QQZvp6yR1kE9lC/4hJpFqusUIc7P1O/YvtT+g/1qfdN5esBkImpG5wwlITs4+L1WaNfIUZDCEa/FogHgaW6LTaucvE2L8bpJUw2PyqVCi51EGFZLcqCiJ08XU2uQ/rKpEudtNkk0DWhPyRTLoeprWsrpKW+7lScoy/bMIwTJhJTAddgEZp6k9vUjA/jkDrZf00dbqgubNeZl6HjqLQ0TLVqObtSfbZllWflxfD1J8jBIYmOC2eZRVlnn7nFSh0aOOwiyXhuoxWJod0lCOZdDDKVxtBkApSg04vh0PSRHXEIyLhrKelU7mIRJp749BeoLrY7sK5S9KsIx/Mrq1CZIQTsX+qXVqVXEJq+oahb/NJLbKEs5RNX+OIBvjmA918LxIMvZ6W6LTYkMmP0XqP8FlimcrwRYjb8Uxt19Ks0l19cwn9+/druo/l4X9NsSGiVhnhSE75+NSbm1DWl5jAOsph+9YdbhIIenTwLimPlN2f6iMN2rVLhwJsk+hyk05wJTB86Vu0yEbf6RjTP9kaeOdn1IP3TrdgS1PUg9TANXxoL1/LycqPRkO8SDl832SOHQJ4ru2NerMgsOHkuN8Ua2i9WKfo1/tkTNjK1rEQPscPqG2onYgvhq18zgFsoZt8t3i6AoY5Hp6WCdguT/AnsVcBEX07iOR1fTmCIhKNfpbk8DwHhTRLt6tecTcgJY/YbfCYmMH2Iy4DOTE0Lokq+r5amBllMv/pdi+M3Aii1L46V31yqt9S7BT0njZUz2XTNPgfpNKejMmnHqgBJMdGvl+h06twzlxMTnhx2N8iWw11sCep6kKko/MzR0dGTJ0+Wy+WJiQm/Zlw6OztbLpenpqbiIj9nYmKiXC6fPHlydHTnYzt+fSmVqVLd/mt3E24fdTOEMD4+vri4WCqVxsbG8pBBnaHvZp7HL6CRmigwac2C065+LTyaqfEPQma6fhVRiH9BYKG0hE9ZiZrEoalpDo2hfMdAtnVFzuLjAOZQ14RoLhCP77bYAOhn+rKQYQmTImzIiVZoKQ19SSFzVDvp7vdfxT9i9plkbd1pJrIhrQPO8hlfNVNrtrtSOEGajfPU5kym7poZbnOoaxon+tC30k5MTe3EpHNaicM8Q2Oa1v7xJrFIOlPTBKYPtRNjZQ51Te3BpH0r7cTUNH6yDv3LQ55bU8hNs0RADRcLUluZ002KcDrnXIIMH+NfH5qaWegK5MvFtVwuz87OtmU+NjZWKpUKyNAQgmiIxcXF8fHxthqtVqs3t/8wlDnN91c3p6amytt/7d5UHIRu1ra/BqB3c/J//7XYpO1QvxYezZxzu//V0vUrJGOBfyhLJGyWoQhTKYV4lW6L1sS/v6XfXugkHt9tMeKyoMv2DK5M4koX5fmFEF6a1Js9SZLgCoRLICqYFlO7IBdXmCRJAulmIszzQytpwle62m2eCP0NUWlL4s+jtwDBCTKnXIYrJJyuyeUcnHNezHwrpzmEFCeyrDRJM69iJzqnn0HGk3wPSQKCoEMkhmTOSd6ya1kDhzBSE46VLsq5BPUoyNTIszL3146dTIa2libp+P7qZuEduwPSTXOuYa3ImuQ6n/uvmkaxdKZ+LeaOViRAAiRAAiRAAiRAAiTQUwLUrz3FS+ckQAIkQAIkQAIkQAJdJkD92mWgdEcCJEACJEACJEACJNBTAtSvPcVL5yRAAiRAAiRAAiRAAl0mQP3aZaB0RwIkQAIkQAIkQAIk0FMC1K89xUvnJEACJEACJEACJEACXSZA/dploHRHAiRAAiRAAiRAAiTQUwLUrz3FS+ckQAIkQAIkQAIkQAJdJkD92mWgdEcCJEACJEACJEACJNBTAtSvPcVL5yRAAiRAAiRAAiRAAl0mQP3aZaB0RwIkQAIkQAIkQAIk0FMC1K89xUvnJEACJEACJEACJEACXSZA/dploHRHAiRAAiRAAiRAAiTQUwLUrz3FS+ckQAIkQAIkQAIkQAJdJkD92mWgdEcCJEACJLAvCFQqlSRJ6vX65OTkvgiYQZIACYAA9StQMEECJEACJHCACFC/HqDBZleHjkCmfh0be+DMuZXzK6vnV1bPXrj08Pgjuu/TM/NSdH5ldaG0pIt8w4fHHzl74ZLYnjm3Mjb2gLZdKC3B7fTMvC7y3YYQxNYEIx4ct7qJPOnl5eVms5lEf7VaTcx1hWazuby8nMdtCKFWq8FrtVrVVtpno9GYm5vTpU5aG+o9hsnJyXq9Ls3tVZA6NnQ8SRIhOTc312g0kL9XQQpbHWrM3xk4Z2gcK7+5LJ++ldNclsNezEkGmSRJV87ufUHSmVosIgESIIEOCaTrV1GZ0IILpSUtYfWhqWkOdc0QwtFjx8+vrIowPXRodPHUWUhYc6hrhhDyuH3s8Zkz51YQs3Dx3XbITszlQlKpVEIIy8vLjUYDmrVWq+URXqImIYxkSwAXOX1oavrxZ7Uu0hCCW/xL/I5D07SOKoSgD01Nx6cp0iRNUVZfTDXTtI6qcJDaifFvDnVNE5g+9K20E1NTOzFpx8o40TWNE33oW2knpqZ2YtKOlXGiaxon+tC30k5MTe3EpB0r40TXNE70oW+lnZia2olJO1bGia5pnOhD30o7MTW1E6ZJgARIoJ8E0vXrQmlp8dTZQ4dGJRRRgSINRUoePXYcUR49dhzq1jHUTsRWtlRFzmonUjo9Mw9167h9ePyRpW9+e2zsAfFm9KvvFl3oJFGr1SA9jR8RZFCiphSHlUrFyNxqtSo+5WoBrRlCEPVZwCeaq9Vq8V6szkFNnehFkNq/7Pb5JFuK7K4H6fN3mjNd04eOld+cdqLTvpXTnHZi0o6V35zxg0PfymkOHuKEY+U3F7uSHN/KaS7Lodw1dffs3hdBOkDiIqxpIpTlqUvLkz3201aObksvsG05KVC5lv2crYA3mpDAQSaQol+1rBQ0shsqalLLyhCCqFLZVfUNY+ErLyGIUDYKVVydX1k9euy47xaDJ9WMfnXcwrCThK9Q/VK0awQlHp1XKpV4S7Jarbb8wUF8hUNbqUWQy6gWJ7oepGnCZxVzMOZy2PUg43Y1f6e51PAYpBYlJOnPrqwp5FsNyJzMCj41Hysebl+r1aoR/amGnWemroedu83yYDY7rl69iod1WSbMJwESyCKQol+N0BTB+tjjM7LJqhWhSMaZE08tnjq7UFryDc1WqPiZOfHUmXMrDz50WDxIlOJH3geYnpn33aJjsX41O77GLQw7SZj1yLiSW3x9zTYVQghmAZWL09raWqPRqFarZstHLk7r6+tY6GOH2KNdX1/HS65JkiAMc4ULIbS8WvQiSBO5Q1Jab7lD3IsgHf6nT5+u1+vYuTEDZ3qHQwYpKPRMJsmYifOO+76Yk5jweRKiX/UJHmv0PH4K1DHnYwEP+U362Vb+qFiTBPYvAU+/av0H9Qn9ihxUg9BEjrzzKsIX9fV+qohjrV+xv4tqvlug9/Vr7BaGhROyyGY9ypdF2ReaRr9iH1RstX5FjshN360EpjcwZK9LJKx+m03e2W1u/zk7AXrl7VaQGnsqSWlUHib6/RVXvQgSWiHmr1VXzET3TqcZJEmCgDO78uhX+MGaMDhzUs/5lmnpCG4FW9bvYgV9PnbRbZar2vbLA3vS06yQmE8C+5dApn7F9qf0DepT75vK1wOgVlM3OGEoCdnHxeuzRr9CHIcQjH7NigfoHf2a6haGhRPOlqGsyFpBZrWCBVRvi+LKJFe4tbW1ZrOJDVSopSyfsRxEK2Ki3/2q1+stN3Rh3sUgdfAOSR1w1q2C1OlFkA5/aIVUJrp3Os0g45lMkjGTlvo1dU0YHJJ6zrdMHxz9Knca+KyKv6C15MYKJHDACaToVxGC8u4p6GD/Ur+0KqUQmr6hqFv80ktsoSzjr19h29V3iwilWvz+q/nCF9zCsFgi1ojwIxpFP7JHUWoivikX53j/1ehgLZhSHUL+ohSyCTk60dIhPqWkdw46DBIBOCRRRwLQTxh1EdJdJymxZfF3mkNIccKx8puLXUmOb+U0l+WwF8PNIEFbUBQ+u/cFSXQ2T+JA6VcBgmsEJWyeGcI6JJBKIEW/yrdU98v3B9CrVP2K3V9UgxBHTrFE1pYhFqbK9he18jjHY0RUxg5rrDtjbQorJNqyEocto+16kIg2iyQqSCKPyO56kD5JpzkTvD50rPzmtBOd9q2c5rQTk3as/OaMHxz6Vk5z8BAnHCu/udiV5PhWTnNZDvn9AYcMijrXr7Ozs+VyeWpqCj5zJuIRz2k4Pj6+uLhYKpXGxsZymphqBZou3M2JiYlyuXzy5MnR0Z1vCplgsg4Ld3N0dPTkyZPlcnliYiLLeVY+u5lFRvL7P5p+PHtYmq5fZZMS/4LAQmkJn7ISdYtDU9McGkP5joG8PCBvHUAlm0NdE99/zYpH8KXqV99tYe6yBRLfOsuSlH/nVQIQK2wuml996UNT04lfWzmfppJqcUdiz6Zp418fmpqxK52TRVLXwUO3liLbNK2jwvdfxYmpaZrTh9qJsTKHuqb2YNK+lXZiaho/+tCxMk50Te3BpH0r7cTUNH70oWNlnOia2oNJ+1baialp/OhDx8o40TW1B5P2rbQTU9P40YeOlXGia2oPJu1baSempvFT7LBD/To2NlYqlYrpM+mOfqyUswtTU1Pl7b/8+mxubq5Wq+Efqs259CGeTropinBxcXF8fBwO8yQKdFPcivAtl8uzs7N5GkIddhMoshL9H82sSPY8P12/QjIW+IeyRMJmGYowlVKIV6EgWhP//hbekZXSLLd4uwCGkoC577bYAGR9Tl8WerzeJAnz9Dm1RVlGYWiEmnYLmZvqR2dmWcm6KW3l+V0UfPYiyCySOsiW3wtDhPg9XH9ItmxOB6bTvSCZNdwMUiZD5ycOSbZLUs95J92hfg0hFNixq6nvsGYtF07MxTYmzbJm1nmnOSkq0E0x7P+OHfdfh2k0W/Zlrypk6te9CojtkgAJkAAJkAAJkAAJkIBDgPrVgcMiEiABEiABEiABEiCBgSNA/TpwQ8KASIAESIAESIAESIAEHALUrw4cFpEACZAACZAACZAACQwcAerXgRsSBkQCJEACJEACJEACJOAQoH514LCIBEiABEiABEiABEhg4AhQvw7ckDAgEiABEiABEiABEiABhwD1qwOHRSRAAiRAAiRAAiRAAgNHgPp14IaEAZEACZAACZAACZAACTgEqF8dOCwiARIgARIgARIgARIYOALUrwM3JAyIBEiABEiABEiABEjAIUD96sBhEQmQAAmQAAmQAAmQwMARoH4duCFhQCRAAiRAAiRAAiRAAg4B6lcHDotIgARIgARIgARIgAQGjgD168ANCQMiARIgARIgARIgARJwCFC/OnBYRAIkQAIkQAIkQAKDQqBSqSRJUq/XJycnByWmPYqD+nWPwLNZEiABEiABEiABEmiHAPUraGXq17GxB86cWzm/snp+ZfXshUsPjz8CmxDC9My8FJ1fWV0oLeki3/Dh8UfOXrgktmfOrYyNPaBtF0pLcDs9M6+LHLe66PzK6tFjx7VhCMFxa2rmPFxeXm42m8n2X6PRmJubg+Hk5GS9XpeinDdJc3NzjUYDJpKo1WrwGUKo1WqokOfGq1qtor4kms3m8vJyCEFmvy6tVqu6rdS0DgC28CkmGkueIONItENNUuenhieZfpB+c45b3S8z3GZo8pCMQzVWfnNZcfpWujRJkkqlkuVH52uefQjSaU5HZdKOle51PHDGTwhB18ckT5JETkbdEEoLzMyukDTR6tOtwIkjKHQHuxVkDJk5JEACJNAVAun6VVQmhOlCaUlLWH1oappDXTOEcPTY8fMrqyJMDx0aXTx1FhLWHOqaIQTHrYhXaFYR1jj03RYjKDJI1ne5VODSKEoU0lMO9aUltUVjZepIKZqQ69ba2pqpZg6r1WrWlbVSqegi3R3jxD+s1Wq6a7VaTbv1baXURKJNDBMJspJPdWk/OkinOW1i0pqPGW5zqGsaJ/rQt9JOTE3txKR9K7mZ0YrkypUr+qbLeAshmKa1f9wCpZ4CsSvkaCfGvznUNWEeJ3wr7cTUjF1l5YiizZp4enZleTBN66gKk5S7ptTTrdiJ06Mgs5gwnwRIgAQ6J5CuXxdKS4unzh46NCoNiAoUOStSEgJRVCnUrWOonYhbkZ4iZ48eOw4nUjo9Mw9167g1CMQnlLfv1tjmOZSFHgo1hCAXDLmWxwqpWq1q6ZnahLnkmDq1Wq2lB2MSQsivX+Mexd7iHLmuQxLFHY9N4hzHyigDCVLL5dhbnNN5kDGczoc77jUmid9c3EHJ8a0MhCwnJr/PQTrNmcD0oWPlM9FO/LRz9uUE24sgY5/oRbETJ3bY4ZxEPEOWSB10Z7Edsu6zO0IgPl8k35x9Xccld7/y8EeLkK43tF8cpuhXLSulG7IbKmpSy8oQgqhS2VX1DWPhK3ulIpSNQhVX8jKA79aAlsrQr45bY5jzUNYvvR8jm1sirWR66dI8E9rRr06RH7CzpJpzL77S+56lVF/Xi3mQzafUPaRUh7ig5gkvDtJpznHoD7cZXBmslk/nHSu/uaw4fStnJmQ5lO09fbegu+Y3l+XTt3KYZDnsRZCmLYkZN2mmVJ8CpkgfOl3zmWgnOp16dkiF1KI8J07Xg9QBD1NaCOtTI5X5MHWZfYkJxGeu1Klt/8X1u5vDKQeeKfrVCE0RrI89PiP7o1oRilicOfHU4qmzC6Ul39BshYqfmRNPnTm38uBDh8WDhCV+Hnt85sy5lemZed8teqJt9SsK0LLGrTHMeWjEn6z76+vr2CKtbb+oKte8nI/UHZEaC+KccTqqxXTBqZnVlrmuS/zr6+v6xV8t4rP8mEh0NXNB9XeUtSHSJshi+tVEqIf79OnT9XodN8HS3NraWqPRyFI8eC6fZeU05zzud6wkSH25BR8nYdZH0zWnuU6CzGKSFWcvgjRtOQo1nl3GVg57EaR/uhU4cXoRZCqN4cg0C6bMhDzL3XB0n73AQ1cZdNwfynnkLP7dQmdO2G653Y9+PP2qn/hDfUK/IgfVIDSRo98uQH29nyriWOtX7O+imu9WQ5d28R6CDiN2qw3zp3HxlquITFbMYPGDTX6IWt+/uMIvQiQhnjvRr8YhgkF4qNDu4muu67KC651U2ZNu6TaOBEpLirAWxE34SGVzDl0244KOo7ksb85wa/2KCaBnRapPvfTEVk5zeaShbl2cd65f+xak6Ne4uVSM5k4gtipGUrflK1RzCmhDne7FcMfngj7dCpw4vQhSQxiytD7L5L7arDND1l92JyYgp4xcnmrbO1aVSsVMjNiqWzn6hO2Wz33qJ1O/YvtTOgb1qfdN5esBkImpG5wwlITs4+L1WaNfIY5DCEa/ZsUD7hKG/v4AAkt1C8O2EnJdXFtbazab0Ge4fIpskifIMsmSJIEIy2pI5j32n3Q1uRqhIV3kp80mga6MS7tkyuUwtXVthXR8XY9zcp5gJhI0IQmtbuv1ut7kNjXjwzikTvZfU4cb+lXveLVcwkAm1arl7Ip7in45QbaU6cbtngQpj94Q6p6Q1BwchZo6u7Qt0r0gGbeOVqTddk8cmHdxToLAUCYAStC1XOGHEsIB75SsV3Nzc/V6/erVq9VqVZasAhfrdknihG3XcPjqp+hXEY5aCMoHs/D+6/mVVf3rLghN31DULTZHBSWUpXziCs/68c2Bo8eO+24xJOLBfHXLcQvDthJy8dB7jfo9PL0RIm7zvELg6FdpLr+4RF/y69d2H83H1/VYauQ8wXz9ir6AJMSNKYoP4yCh8+QjYrFJao4/3HLnrUdH6vtLmGPlN5caIb6jlDUn88zA2HP/g8RnqiSYPSEJDtJ6li5JnV2wNYmuk2z3dIPYMoHpw64HqZ0PXxoL1/LycqPRaGtJGT4aB7NHclpdvHjx6tWrlUqlXq9fvHixP5Mh5+X1IIxLin6VD6ZqhYqNTC0rQQc7rL6hdiK2EL76NQO4xRN/363UTxWvLd2irfyJeOroy0msFWJFG7fl6FdprsDzqXb1a84mUq/rPpO4v8jBZQA5WQlBVMn3/azUIIvpV79rcfx6Jz6rL46V31yWQ9/KPFDOcmLy+x+k0d97QhIQHIWaNbtgaxJ9Jmlaz3nidD1IE0aew9HR0ZMnT5bL5YmJiTz1dZ3Z2dlyuTw1NaUz86QnJibK5fLJkydHR3c+tpPHSs646vZf/ptq8byPuhlCGB8fX1xcLJVKY2NjecigztB3s1qtylNB2Xm9efPm2trazZs3nRe9AEcShSdtvOAbz1mHhUczy+Ge56frV9krxV7mQmkJn7ISNYlDU9McGkP5joG8PCByFirZHOqaEM1OPPisrAHquzWVcx7qZ/oyk7CESRE25OTi0VIaOvoVu2vayfLyche//yrXY8TsQ8i6rmsmqe+eprqNr5pZ1fK8hgFbJ0gjkmDiJHTXzHCbQ13TcehbaSempuPTt5LdNb2bmPP7r2Zi4/7Bby4rTsfK9FTXzPKGV2C7GyTOOI1Lx5A1u3Qdnfa7pntqamonJq2tnNNNqmV1RPs0TRv/+tDU1E46TMvFtVwuz87OtuVqbGysVCoVkKEhBNEQi4uL4+PjbTVarVZvbv/hpMhpvr+6OTU1Vd7+a/emYui7KScFLiiyxmItajkZOpm0cg7mvGTrSAqPpnYyUOl0/QrJWOAfyhIJm2UowlRKIV6FiGhN/PtbeEdWSrPc6nzY6pcffLfFBkPmrvwMyExZXdStf39L5mv+Xx3JKwGoLwmcaSbClt97AiJf6Wq3hgk8mISjX6UtiVxrd+MhPnSCdJqL/egcp2tmaHJezHwrpzkdlUn7Vro054j3OUi/OdNZHPpWutc556TIQZwsaEgSzuwyNfVhL4LM6lrhE6cXQWoILdP7a8dOOLe1NAmB/dXNwjt2Q99NmQBYVeR8bEtTFth/FZVsruw5Lzqd7Ka3PHn3qkKmft2rgNguCZAACZAACZAACZAACTgEqF8dOCwiARIgARIgARIgARIYOALUrwM3JAyIBEiABEiABEiABEjAIUD96sBhEQmQAAmQAAmQAAmQwMARoH4duCFhQCRAAiRAAiRAAiRAAg4B6lcHDotIgARIgARIgARIgAQGjgD168ANCQMiARIgARIgARIgARJwCFC/OnBYRAIkQAIkQAIkQAIkMHAEqF8HbkgYEAmQAAmQAAmQAAmQgEOA+tWBwyISIAESIAESIAESIIGBI0D9OnBDwoBIgARIgARIgARIgAQcAtSvDhwWkQAJkAAJkAAJkAAJDBwB6teBGxIGRAIkQAIkQAIkQAIk4BCgfnXgsIgESIAESIAESIAESGDgCFC/DtyQMCASIAESIIGeEqjVavV6fXJysqetOM4nJyfr9XqtVnPqsIgEUgnMzc01Go0kSQ74/KF+TZ0ezCQBEiABEugfgT4Lyj43F3Okfo2ZMCcPAc4cUMrUr2NjD5w5t3J+ZfX8yurZC5ceHn8ENiGE6Zl5KTq/srpQWtJFvuHD44+cvXBJbM+cWxkbe0DbLpSW4HZ6Zl4XZbk9dGh08dRZWJ1fWT167Lg2DCE4bk3NlofLy8vNZjOJ/uLboFqtliRJ/lt8qS+Oq9WqjkQ32mg05ubmdKmT1oY6EjkB0Ald5HgLIfQzSESyhyQ1QODSd726QrPZXF5eRth+os8kMeJmavUtSA0qJqlpoDQnT21reqcbzX/iaIdZ57UEaZpzYGqfxqrdIHV9sMKcrFQqOjNJEtNcf4J0Wskq6rOg7HNzca+pQmImzMlDYHl5udFo5L/W5PG5T+uk61dRmRCmC6UlLWH1oalpDnXNEMLRY8fPr6yKMBXdCQlrDnXNEILvVqMXYQ0J67vVhoXTcjmpVCraA64ieaShLGS4vootrjr60NTULcbpWq2WqgDk0QMuzHLYMk7TtI4qhKAPTc04MJ2TFSTqiOecdwKmV0JDUAAAIABJREFUaR1VJ0EimBCCHm6zjrTsi/jpUZBO69Vqtdlsrq2tNZtNzCvdqTjdoyB1Q5qkzpd0HnnRiyBr238Sg0SIM8VvLu6C5PhWeoqamlkO43xNslKp6LNe+48NkWOaNlb60NSEh84TeUa881bgoc/NoV0khCRmF/KZIAGfgDnH/crDXZquXxdKS4unzh46NCqdFxUoclakJASiqFKoW8dQOxG3sqUqcvboseNwIqXTM/NQt45bMzzap4ktdmtsix3WajVIT/GAhSnnEhlPx2q1Kj7hCrGJ3GypQmKf8BAXoTnUiROOVS+ClADgeQ9JGhTxcKOCyIgCQwP+6C98dmW45eYkZ3jSdC+GG52SxGCSdIJ0mBgrfehYFR5u7V+eimAJMs3FTRhbOTRWIYTO52RqQ3GmTEuzZ5zzfjX2lj9HlpSLFy/ieZrZg8jvqq2aeiceu+ZteWirsoxjuVyu1+sCueVWRVv+UyvLrMOYtlwSU53kzMya4fqmLqer/VItPlv3S+RdjzNFvxoJiH1TUZNaVoYQRJXKrqpvGAtf2SsVoWwUqriSlwF8t4aIqey4NYbFDlM1AZb+nKrLVBPJkiRJpVKJT8Jqtdpycc86paWPspuiF2sTQCoKU6fXQUoMe07SoEgdbtTxS1FtT0hi5zjntaTrQaL7kvBZOdJW++l1kEYaOs3pqEzasSp2dhv/hqS5tvlLAVz1Okg05CRMDE7NrhSJjsReNZaarjhPdSJjAfmYc2hSXeXPlOsFXiORdbvXm75Xr17F0229eZ8/7LZqps4c83CsLYcDXtmc4wMebU/DS9GvRmiKYH3s8RnZH9WKUMTizImnFk+dXSgt+YZmh1X8zJx46sy5lQcfOiwepKvi57HHZ86cW5memffdGjoLpSXs2podX+PWGBY7jC+0+pqUel6ZhswqJuZra2uNRqNarZqZKg7X19ex3WK8yaEsUuvr67jnFjWMyrJ2i5Rxnjuj/p4EOQgkQUAS8XDrCvGNgS6V9J6QlKaN0IljQ04vgoRzSTgkc8bZhyClCREcfnOmdzj0rYqd3XCeStL4lFdHICaMrRz2IcjUdk1mntXSmHRyaNY9vdp04taxNUNjsDuGnRSJfm13t6KTFo2tdBOq3ZR25bBarYp/ufDJda1SqfhXya40vSdOzETakxgGpFFPv2r9B/UJ/YocVIPQRI5+go/6eotUxLHWr9jfRTXfrXDEL7T0Swg6jNht5wOQeqHVq7BOZzWnVzHsAeA8xExFjn60l+VTAsPWgpgYCStiK0mSPCf5ngSp6el0Vq97EaRuK3W4UUEGqCXMXgSZZ7jb2n/tRZAA1TISR9pqJ70OEmeNXA795nRgOu1bFTu7tf94TuK8xtNbrV20LdK9DhIN+Yk857jvoa1S05yQbMmqrSZMZdOixm5qdvEwzw1MF5tLdWU6nlqnk0xIVRlE0bK4mHbieTBte81zMHudGlWmfsX2p5hBfep9U/l6AGRi6gYnDCUh+7h4fdboV4jjEILRr1nxmF5JDPKqLgJLdWsMCxzGF1pckMRbnnmGVUxXhloVh/LLG6ytLc/M+KqGVhCYyFnJx9OlLAgw71uQA0JSA4mHG6UyXvqGAUUm0X+SCCCeFSgyiV4EqZtwSA5OkLJxhSetPhPdO532rYqd3dp/TNKcOMITvdC2SPc6SDTkJ/Ta4tfsSqlpTkBhje1KE8aJaRHYTbXuHu6JfhWYuINq+cJbh13GqwLVavXq1av1en1ubg6bsh06Hyjz2vZHjXo6Sweqvy2DSdGvIhzNh6iwf6lfWhXvEJq+oShLvT8qX7bC+6/mU1zYdvXdxj1EqPhyFj6kgE8ZQEDH5jlz4gstRCc8mAUL+SYhk1JfY7CYSsIIo5Zu40j0Wpn6RMk0YSLEl7P6E2Qcf8suS8BdJwkO8XCjSNia7W2UxomuBxnj0sONAJwuoA4SXQ8Snv0wYkEGwzjRuyBlF9M89HSai2NDjmNV7OyG51SSRr/KLnL/z24EmT+R8xzP79CvaZoTmJX7PyPje2i31LSYepK267Nl/f7rVyGprxSm4y1jbrcCxu7q1asXL16s1+uVSkV/SKRdhwNev9c8B7z7OrwU/aplpVTFRmaq/sMOq2+onYhbCF/9mgGCMzI063sIqI+ENtSxSQVdCpMCifhCGz+5ww2ouRCa5lIvOfIkOl7jYrFivIUQfCvz4heek/prdz+DHBySYBsPtxQJ6vziVT7jZfQENtT9gUMwJpHTKlXuGFc47Ppww3MWyZbvFcADEj0KMlW8+gOHkOJEj4I0vy1Du05zqBMnHKucsyv22W4OzoJ2DUMIs7Oz5XJ5amoqv60RAdBAOT2Mj48vLi6WSqWxsbGcJqaDMs20zmvpp0A3O9Svxbpp1jeDuuvdlGvi2toadl5FvOb8rWoIoUA3W/aiZYUCoyk+47O1ZVtSYU+6mTO2YtXS9avsfeJfENA/ihKRit9ImZrm0BjKV11l71PkLFSpOdQ1IZqz4tE9Nx+O9d1qw7bSOaVAzvNWrhDQuLKuQU3qQ1PTiVlbmUudWTfl5M/54mbfgjRd20OSjq6S4WhLvOLuov8kc05aIW9mmplO+tDUNANnDv0YHGlr/PQuSOkaRke3a3qqIehqJu1baSempvFjDrNImmubVGspkkzTOip8OFlWJFPTRNXJoTSaX3OgrbGxsVKpVC6XT548OTq6881HlGYlzJIioLDqZlkhf2pqqrz9NzExgUw/oYdMHnk3Go2WQwOfxbrZoX4t0E09jjJb2np/oEA30YrAFM5tLcsFuolxKZYo0E00ZM5x5LdM9L+bLUPqsEK6foVkLPAPZYmEzTIUfSmlEK/SB9Ga+Je0zCP+LLd4uyCrRd9tMXzxFmaqH7NEptaRTJyBsmVrllFZEaQo9cqa6tmx0kX5F5c+B6k7tbcks4bbYJQBMnsPuhdI95MkVnM8DUiSZK+CzCKJm4T8l3OB2V2SxhuIISpTwZynGF+T8K30LMp/dmeR1N4k/j0M0nBoeYiPPeVflMRnga0ss6S0q1+LbWVhdGS/oN1n3AW62aF+LdZNPY7yKD//xC68mw7BKqdbniUOE7JYN2FeLFFgNKWhwvp1T7pZDE5Oq0z9mtOe1UiABEiABEiABEiABPpAoLB+7UNsfW6C+rXPwNkcCZAACZAACZAACRQhgO8tFDEeLhvq1+EaT/aGBEiABEiABEhgSAnIT1bwUtOQ9jJXt6hfc2FiJRIgARIgARIgARLYcwIiYZMkOeAqlvp1z6ciAyABEiABEiABEiABEmiDAPVrG7BYlQRIgARIgARIgARIYM8JUL/u+RAwABIgARIgARIgARIggTYIUL+2AYtVSYAESIAESIAESIAE9pwA9eueDwEDIAESIAESIAESIAESaIMA9WsbsFiVBEiABEiABEiABEhgzwlQv+75EDAAEiABEiABEiABEiCBNghQv7YBi1VJgARIgARIgARIgAT2nAD1654PAQMgARIgARIgARIgARJogwD1axuwWJUESIAESIAESIAESGDPCVC/7vkQMAASIAESIAESIAESIIE2CFC/tgGLVUmABEiABIaAwPLycrPZTJKkWq0OQXfYBRI4gASoXw/goLPLJEACJEACQVQsJSynAgnsRwKZ+nVs7IEz51bOr6yeX1k9e+HSw+OP6O5Nz8xL0fmV1YXSki7yDR8ef+TshUtie+bcytjYA9p2obQEt9Mz87rIdys1Jaq23Oomcqar1Wqi/mq1mjGs1Wooz78yOlbYKkiSpNFozM3NmRbNoa6PSJIkkVB1Q0mSNJvN5eVl4yHrUNuarulG8wQpTfhWTnNZEYYQHCu/uSyfvpXTXJZDBpk6k0lyyE4cZ/7HRcVGP/bTbk5t+69dK9YnARLYcwLp+lVUJoTpQmlJS1h9aGqaQ10zhHD02PHzK6siTA8dGl08dRZa0xzqmiEE361AlDrnV1bhM4Tgu+2cvigbSNjJycl6vY6LUKVSyfN8yrfSTkzN/PFLnJVKRZRTvV6fnJwUc5HjRozGnk3TOqoQgj40NWNXyHGsjBNdE+ZxwrfSTkzN2BVyHCvjRNeEeZzwrbQTUzN2hRzHyjjRNWEeJ3wr7cTUjF0hx7EyTnRNmMcJ30o7MTVjV8hxrIwTXRPmccK30k5MzdgVchwr40TXhHmc8K20E1MzdlUgx/jUzRXw1q5JrVbT62G75qxPAiSwVwTS9etCaWnx1NlDh0YlLFGBImdFJh49dhwRHz12HOrWMdROxFa2VEXOaidSOj0zDyXquEUYUmfmxFOwEsWM2GK3sO0koZe/SqVitjOr1SrkbFYrjpWs7NDHIYS5ublGo9FSbpq2arUawtABS7VarWbCNuaiUE0ddK1YkL6VwySODTmOld8cPJiEb+U0Z/zoQ8fKb0470WnfymlOOzFpx8pvzvjBoW/lNAcPccKx8puLXUmOb+U0l+XwwJ44DpC4qBjY2E+xnHg9LOaHViRAAn0mkKJftayUaGQ3VHShlpXY4JRdVd8wFr7yuF+EslGoeFvg6LHjvltEKDrVhOe47RZovfzpNLRmkiSy8ZnVomOl903FXLZL29owECeQvKa5EHK9BGasREZL14oF6Vs5zWVhjLeWGeTk5CRJ5j9xOCeFVecnjnOSxkXFpmjsp1iOab2YE1qRAAn0n0CKfjVCUxThY4/PiEDUilCU5cyJpxZPnV0oLfmGZodVb5c++NBh8SD9Fz+PPT5z5tzK9My87zaEoAWu1q9mx9e47QpredQl8tRs3si1cG1tzd8u9a3MzoQstevr69hMzdMLvfkaizzoV73La9z2Ikina6dPn67X64hnD0kySEwPzGSHifNmtmPF4ZbTLefZvS9ImgXEOfTXFsewW0XVarWt7YButUs/JEACHRLw9KvWf1Cf0K/IQTUITeToJ/ioH8tNrV8hQFHNdxtCgIlJ6zBQB247ASeyVX4ahX1NvRDj2XrLx/2+Fa5V2g+c5+mCiD8EmapfxTn0Yuy2F0E6XdOCBp3VBOIIQwgMUiMSbiQZM8kjsmMrkoyZOCRTz9DUTP+0TTXpbqbeg+iuZ3ojARLoKYFM/YrtT2ke6lPvm8rXAyATUzc4YSgJ2cfF67MiK6FfIY71rqrvFupW4oROxbsNC6WlVLddwSqLr+yGYiHWD6T0op/aom8lIm9tba3ZbOIlBEi6VIcm02y+pupX0bh59Gtq14oF6VhBK6Q2ZzqIw16QZJDYmsJMdpg4gsax4nC3dXbvC5I4K1sm/NO2pXlXKkgMLV/06kpbdEICJNAtAin6VXYoz6+sQmXqfU390qoEgR1N31CEpvk1FZSlfDkLXzzANwfw/mtqPBC+wKH1awjBcQuTDhMi/vDTfnymStzq0qyGatvf29LyEVaSMD+c0qouy6duXW++purXPDsQXQ/S75rTnNNlx8pvLsunb+U0l+VQ+GdNEr+5LJ++FYMEt5YnDkmClaCoVCo+E9TvJFFsinbSoraV+4H83xDUtkyTAAnsIYEU/Sqyb198f0A0MT4ZqxPyazPs/gKxEbjIL5zAQu//1tjxHy+g2GHF5gTMsQ2GHCcRb77G+lWaaPlCbdeD9LvmNOf017Hym8vy6Vs5zWU59CeJ31yWT9+KQQq3PCcOSWKOdWsJgkMnUWyKaoezs7Plcnlqakpn5ky3vKtJ9TM+Pr64uFgqlcbGxlIrZGWOjo6ePHmyXC5PTExk1cnKL9zNiYmJcrl88uTJ0dGdbwplNWHy2U0DxBwekNE0vR6cw3T9KroQ/4LAQmlJf5RKH5qa5lDXxPdfZVtX3jqASjaH8sUDbAD7bjVNI099t9qwWFouinjGKtc/HObZ18SLm1lW2onx78cswtpsvhr9Kg7zPDgzTeuoRJPBianpBKmdGCtzqGs6Dn0r7cTUdHw6VsaJruk49K20E1PT8elYGSe6puPQt9JOTE3Hp2NlnOiajkPfSjsxNR2fjpVxoms6Dn0r7cTUdHw6VsaJruk49K20E1PT8Zm/yPjUzeVxMjY2ViqViukzsx7maU7qTE1Nlbf/2pWhogjL5fLs7Gz+5rZfqCveTRG+i4uL4+PjbTXKbvq4Dsho+hD2sDRdv+LxfYF/KEu0ZpahCFMphXiV/ovWxB4qxKuU+m5B0OhXvAWb5RaG+RPytAv/rlVl+x8FgLmsxVmlqGYSvpUs6OITMtd4iA+zvupq4tfvLcROdE4vgnS65jenA9Np38ppTjsxacfKb874waFv5TQHD3HCsfKbi11Jjm/lNJflEPc5qTPZby7Lp2/FIHFXmQUQ+b0gCectE37rLc0Lb0wW1q/cmPQH5YBsTB6QbvpjvYelmfp1D2Ni0yRAAiRAAiTQBwLF3h/oQ2BsggRIwCdA/erzYSkJkAAJkMDQEqB+HdqhZceGnQD167CPMPtHAiRAAiSQRiDrRwJpdZlHAiQwWASoXwdrPBgNCZAACZBArwmIcjVfsut1o/RPAiTQRQLUr12ESVckQAIkQAIkQAIkQAI9J0D92nPEbIAESIAESIAESIAESKCLBKhfuwiTrkiABEiABEiABEiABHpOgPq154jZAAmQAAmQAAmQAAmQQBcJUL92ESZdkQAJkAAJkAAJkAAJ9JwA9WvPEbMBEiABEiABEiABEiCBLhKgfu0iTLoiARIgARIgARIgARLoOQHq154jZgMkQAIkQAIkQAIkQAJdJED92kWYdEUCJEACJEACJEACJNBzAtSvPUfMBkiABEiABEiABEiABLpIgPq1izDpigRIgARIgARI4KAQmJycrNfrye5ftVo9KD0fgH5Svw7AIDAEEiABEiABEiCBfUVAxGuj0Zibm9tXgQ9JsJn6dWzsgTPnVs6vrJ5fWT174dLD44/oHk/PzEvR+ZXVhdKSLvINHx5/5OyFS2J75tzK2NgD2nahtAS30zPzuijL7aFDo4unzsJKEsbWcaubyJ9eXl5uNptyx2Xmrrkbq9frk5OTvue5ublGo7F7/7bz31qtpq1qtRoq5PFZrVZRXxLNZnN5eTmEUKlUTFGeW0YdAMzhU0LVWPIEGUeiHWqSOl9jMWk/SL8540of6n6Z4Q4h6EbzkBTPjpXfnA5Mp/NYSaN5hmZPgnSY6J6atGOVh4nxJofaMMalW6xUKqkeTKY2MZNEtxXPLuNHH2pDEyTOHdOWNo/TvQgyboU5JDA0BOQcbOssG5q+D0JH0vWrqEwI04XSkpaw+tDUNIe6Zgjh6LHj51dWRVyK7oSENYe6ZgjBcSuGCNUw9d2ayjkPRQbJlDW3X6JEIT3l0Fxa4laMlakgpfrCtry8vLa2ZqqZw2q1mqX5KpWKLtLdMU78w1qtprtWq9W0W99WSk0k2sQwkSBzagXtRwfpNKdNTFrzMcNtDnVN40Qf+lbaiampnZh0HiupkySJHjXjB4emae0ft0CppwA8xAntxPg3h7pm7Ac5vpV2YmrCQ2rCmclyucIJnmpuMk3TOqrCJOWuKet0k3N/bW2t2WzmvLL2KEiDgockMGQEZEEocGEaMg571Z10/bpQWlo8dfbQoVEJS2tEkZJHjx1HxEePHYe6dQy1E7GVLVWRs9qJlE7PzEPdtuUWgYliRmyxW10zZ1oWen0BE6Ul14lYIVWrVS09U1sxWs3UqdVqLT0YkxBCfv0a9yj2FueY+86447FJnONYad0ZQpAg8wgv3UrnQcZwOh/uuNeYJH5zums6nccKdQxY7Uen+xyk05yOyqQdK/QXJnrgkBknYp+oE/tEkZOIHXY43KJ6s8RrpVKR08RMfifCVIedB+m3uE9LU6k6i+0+7SbDzklA5kM/9avcAMsj0ALCIGe/9ku1FP2qZaV0Q3ZDRU1qWRlCEFUqu6q+YSx85SUEEcpGoeJtgaPHjvtuY1ms0TtudbX86Xi+ypN6uWbI3NKzOY9ccPSrU+TH7Cyp5oJa7KqsVXUxD6lXTelUqkNcUP2O61IdpNOcNjFpf7jN4MpgJUmiJ4BxKDtnWohrK7+52JXk5LECPRNzlk9TrddBOs1lRdgLkqkTDwGYEwf5fsLpWp6Bi537QaK+OM+5/9r1IBHGkCUEvj5/cw7HkHE44N3BeohX6fojKJeXl69evSrwZeIdcAmbol+N0BTB+tjjM7KRqRWhKMuZE08tnjq7UFryDc0Oq/iZOfHUmXMrDz50WDzIwIifxx6fOXNuZXpm3ncLAY1XYPHyq5G2xm2xM9Bcw2TdX19fxzSqbb+oKpcN50Gkbl1OBr2ni9JYEKPIT+TXr07NrCbMpVHiX19f1z/D9DWceDYwdXPmgurvKGtDpE2QxfSriVAP9+nTp+v1OkZNmltbW2s0Go5oMFc7Y+U05/w+oKWVtCIjEoMFMST6HOTgkPRnstwDrK2t4aKldQzo6UQvSPpBovV4/qPIJHoRpGlimA7NgqlPrmHqJvuSh8Dejn5heZCna/uijqdftf6D+oR+RQ6qQWgiRz/BR329nyriWOtX7O+imu/WUJatYnkdVocRuzWGOQ+hFeQqIkoFm1viBDv8ELW+c3GFi6IkxHPhCRr/fgvBIDy0mEdr6i6YfU05h/UDTWm9pds4EggCKYIQjJvQ8aSmTZCiX9FlSaC5VA9a8sbDrVUXJoCulupTa4XYKs/sit22tNKaVadjV5LT5yAHh2Q8zfRMrm3fmuKORcban0K9IOkHiTGVajiDkB8nehFk3MrQ5JhzHGfx0HSQHclPQM6ylle6/A7bqrm3rbcVao8qZ+pXbH9Kw1Cfet9Uvh4AmZi6wQlDScg+Ll6fNfoV4jiEYPRrVjwxl4XSkrzqgMBS3caGeXJEK8hvIzBr9RImF7lKpSJXhSRJWl5CZEHEdVGH0Yl+1YLS+NRFcg6ktq6tkI6vi3GOviLCME5AeMVFRm7W63W9yZ1aX2fGIWkxqmv6aWe4obq0IjTXttg5yKRaOc213H/NmpMGsm43Dk9y+hzk4JCMpw1QyOsKuAkUUIZtzBPmGjsmSbHh9oNEDHE1FJlEL4I0TQzZIUZT0LVc4Yes++wOCMhZBiWA/N4lRGDojZh+tt67fhXznKJfRTieX1mFygwhYP9Sv7QqTUJo+oaibs2vqaAs5RNX+jMC2Hb13cbdnp6ZRyuO29gwT47MV63/9Ht4erdGvOV5hcDRr9JcfnGJLpiHXMhPlXFOZW2IHpmrOK7HqIwrInJSEy0v/9oK1wydmZWON19TO55ljnx/uGUp0aOTZzlzrPzmEJVJOFanT5827zPkxNjPICcnJ53mTGf1oWPlMHG+Z+fPZH2bKmHkmcB9DhJ8hEBOadX1IBHGUCYw7svLy41GQ75LOJQ9Zad8AnKWVfJ9RM93lafUyIk+t54nwj7XSdGvIQTISokGG5n4lJWWtthh9Q21E3EL4atfM0D/oZh9t6ivQ8XHE3RsUkG7NbZ5DmNlpq95ZnrJW5stf9Dj6FdpzujFPHE6khSLL/zEF2YUmUTqRdFnYjzowzgSXarTgijnMpEaZDH96nctjj8PScfKb04D0WnHKn5DAzfu/oPvfgaZOjSDRnK/BImJkXUWoIJOdH24tfOc6dHR0ZMnT5bL5YmJiZwmqDY7O1sul6emppCTMzExMVEul0+ePDk6uvOxnTyGcsZVt//88yj2to+6GUIYHx9fXFwslUpjY2NxX5ycA9LNThRku5M21gnttl54NJ2B3tuidP0qe5/4IRSeyEus+tDUNIe6Jr7/KtpX5CyEpjmU11ihkn23mqD54qzvVhvmT+tn+rKQYQmTImzIyYRrqT7jeamDkTmqnXT3+6/iHzHrpuN06r6mXNq1TM+qZhzGV01TQQ6Fas6dpNTnvPBjNs5TmzOZznCnjn5Lke1bOc2ZwPRhfquc+699DtJvTvdUp32r/Ey0T21l5pJpTk6cltPSWBn/+tDU1FGZtLYyQaJmzvCkvmna+NeHpiaa6zwhF9dyuTw7O9uWt7GxsVKpVECGhhBEQywuLo6Pj7fVaLVavbn91/J8N273VzenpqbK23/t3lQckG7KWdbuHNh+PbLtSSunHpSAnJX6smtmWnxYeDRjVwOSk65fsc8qP+rHd1gRtPMvWonWzDIUYSqlEK/iVrQmPiMA8SqlWW7xdkGqT/2FL6lg3KJHbSUwdeKvweuiuDS1FdGv2BiThBaUMnFRAXI51Ztkxr/fgnQzEeY/AXylq93miTB1Qws9krakyzhjUeoknCBzyuXYudM1MzQ5FzLfymkujg05Oa1y6ld8cxezznQtZ3MITxKOlc/E+MGhb+U0Bw9xwrHym4tdSY5v5TSX5RB3jDI6+nTTJw7GDue+47AXQTrNxUX7a8dOOLe1NEmX91c3C+/YHZBuyjQwa2M8t1Nz2t1/DSFoqVCv1y9evNhsNvO3Xng0U+MfhMxM/ToIwTEGEiABEiABEiABEiABEjAEqF8NEB6SAAmQAAmQAAmQAAkMNAHq14EeHgZHAiRAAiRAAiRAAiRgCFC/GiA8JAESIAESIAESIAESGGgC1K8DPTwMjgRIgARIgARIgARIwBCgfjVAeEgCJEACJEACJEACJDDQBKhfB3p4GBwJkAAJkAAJkAAJkIAhQP1qgPCQBEiABEiABEiABEhgoAlQvw708DA4EiABEiABEiABEiABQ4D61QDhIQmQAAmQAAmQAAmQwEAToH4d6OFhcCRAAiRAAiRAAiRAAoYA9asBwkMSIAESIAESIAESIIGBJkD9OtDDw+BIgARIgARIgARIgAQMAepXA4SHJEACJEACJEACJEACA02A+nWgh4fBkQAJkAAJkAAJkAAJGALUrwYID0mABEiABPpNYHJysl6vJ0lSqVT60HalUkl2/2q1Wh9aZBMkQALdJUD92l2e9EYCJEACJNA2gT7rV4lPGqV+bXu0aEACA0AgU7+OjT1w5tzK+ZXV8yurZy/D9IwPAAAgAElEQVRcenj8ER3t9My8FJ1fWV0oLeki3/Dh8UfOXrgktmfOrYyNPaBtF0pLcDs9M6+LfLchBB2SsXXc6ibaSi8vLzebTbmBr9frk5OTYo5VOEmSZrO5vLyc022tVtvdDkiq1aq20m01Go25uTld6qS1oQ4yhKCL8u95dD1IHUbcNac5p9eOld9clk/fymkuy2EIwbHym8vy6Vs5zWU5ZJBJknBOyvTwZ5czhQa8iPp1wAeI4ZGAQyBdv4rKhDBdKC1pCasPTU1zqGuGEI4eO35+ZVXE5aFDo4unzkLCmkNdM4TguxVpu3jq7KFDo6arvltTOf9hrVZL1aZzc3ONRgN38/KIqtLqcZisobhSihUkrD40Nf2As4IMIVSr1SS5TyVfuXLFl8WmaR1VCEEfmppOkI6VcaJrOg59K+3E1HR8OlbGia7pOPSttBNT0/HpWBknuqbj0LfSTkxNx6djZZzomo5D30o7MTUdn46VcaJrOg59K+3E1HR8OlbGia7pOPSttBNT0/G5L4qkO1ix90XMDJIESEAIpOvXhdKSloOiAkXOipQ8euw4CB49dhzq1jHUTsRWdKfIWe1ESqdn5qFuHbchBFOKwEQxI7bYra6ZP12pVFLFq+xX6W1OWRx1TmorscNqtSpyNl5eRSJD3aY6FEGZFaRspbT0YDx3PUi/a05zJjB96Fj5zWknOu1bOc1pJybtWPnNGT849K2c5uAhTjhWfnOxK8nxrZzmshymTvIOTxwGCdodkoSfPAnBLk+fslatPH4K1IlHvIATmpAACewJgRT9qmWlxCS7oaImtawMIYgqlV1V3zAWvvLEX4Sy0aDi6vzK6tFjx9t1qzk6bnW1/GlnvUstwmXAaaJWq2mNKwpVnumL1tQ7uLJ1quvHnlMjQbVqtVrgItH1IP2uOc2hI3HCsfKbi11Jjm/lNJflML7J6Xy4GaTQJsnJyckBmZPO/HeK4tsYp3JXivylsitN0AkJkECPCKToVyM0RbA+9viMbGRqRSjKcubEU4unzi6UlnxDs8MqfmZOPHXm3MqDDx0WD9JJ8fPY4zNnzq1Mz8zncSvhmddqzY6vcVsMqFwj19fX5aeysmcAfWkuHvKk3heLZgEVLbK2ttZoNKrVqlnQxf/6+jpeNkjthROkNOfL39hnL4J0unb69Ol6vY6HeoZJHJ7kMEjhoCcJScZMnPdkOCfxZnyHS1DWSernG/5+5a6UmkWjKz7phARIoD8EPP2q9R/UJ/QrclANQhM5+gk+6uv9VBHHWr9ifxfVfLd6Exf7wbJVrMOI3RbjK1pKS1LZEBUJq18Uw5VAV44b1QsoNmtFgGr9ihzRxL5+dYKU5jrRr90KEtequGtadcXNxQwlpxckGWTM32GSRxpyuEFgiElmnaR+PoD41bpYqheNLrqlKxIggT4QyNSv2P6UIKA+9b6pfD0AMjF1gxOGkpCNUrw+a/QrxHEIwejXrHimZ+bNG66x3k11WwyuSEP98qhZAUXC4rsELfdKYa73bs0Vbm1trdlsYpcXkiKrC06Q0lxh/drFIOValdo16NfU5rJ63QuSDBJTpcM5SZIHimTWSernU7/6fFhKAiSgCaToVxGO8u4pqmL/0ux3aqHpG4qsNFoTylI+cYUvHuCbA3j/NSse6GOECv0qP+0yX/jSpTDJn8BVHCaQTcjRCa3AdL5O17a/nIXH5di4rVQq8U5q/AKldiVpP0jnuwSxK+R0PUi/a05zCClOOFZ+c7EryfGtnOayHOKjVF0cbgYJ2oKi8IlDkt0iCT9tJahf28LFyiRwwAmk6Nf4F/3YYdWyEuC0goQelVJtqNNSih1W/ZoB3EIxdxKPjk08a7doK38iVquxWIQ3Kaq0+n5WvGpjh7Wt5tCub2VecoCVn+h/kOa9CzBx4mSQAkfPSYcJSRoCLU8czskQgp5dBmCHh/Fczelwdna2XC5PTU3lrI9q8YijyE+Mj48vLi6WSqWxsTG/pikdHR09efJkuVyemJgwRS0PC3dzYmKiXC6fPHlydNR+YtJvlN30+RyQ0fQh7GFpun6VTUr8KwALpSV8ykrUJA5NTXNoDOU7BvLygMhZfKXLHOqaEM154hFNjH1c320x7qL/oEprtVrq26j5ZaKsoXi8aPzrQ1PTiV9byZ6fDlI2DvVbEDm//9q7IE3XzKHpTlbHfSvtxNTMcohP28pwGytzqP07Dn0r7cTUdHw6VsaJruk49K20E1PT8elYGSe6puPQt9JOTE3Hp2NlnOiajkPfSjsxNR2fjpVxoms6Dn0r7cTUdHwWKCqmX8fGxkqlUjF9Jt3RD0Nyhj01NVXe/mtXhooiLJfLs7OzOduSap10U4Tv4uLi+Ph4W42ymz6uAzKaPoQ9LE3Xr5CM5hf9CNT5F61EwmYZijCVUohXcStaU4rM2wKdxOO7RY/aSsiCjpdc8Y9vyfNHydd6saVzWUbFMP7XsLKa8936Vro0bjHVc5+D9JtLjTCE4FvpXkOLZ7lCvmPlNwcPJuFbOc0ZP/rQsfKb00502rdymtNOTNqx8pszfnDoWznNwUOccKz85mJXkuNbOc1lOcRtVbwEtTwFsnz2Isistky+XjaxBuY/PUMIBTYm5R4ezUkCuxImwviQG5MxE51zQDYmD0g39cgOVDpTvw5UlAyGBEiABEiABEiABEiABIQA9StnAgmQAAmQAAmQAAmQwH4iQP26n0aLsZIACZAACZAACZAACVC/cg6QAAmQAAmQAAmQAAnsJwLUr/tptBgrCZAACZAACZAACZAA9SvnAAmQAAmQAAmQAAmQwH4iQP26n0aLsZIACZAACZAACZAACVC/cg6QAAmQAAmQAAmQAAnsJwLUr/tptBgrCZAACZAACZAACZAA9SvnAAmQAAmQAAmQAAmQwH4iQP26n0aLsZIACZAACZAACZAACVC/cg6QAAmQAAmQAAmQAAnsJwLUr/tptBgrCZAACZAACZAACZAA9SvnAAmQAAmQAAmQAAmQwH4iQP26n0aLsZIACZAACZAACZAACVC/cg6QAAmQAAmQAAmQAAnsJwKZ+nVs7IEz51bOr6yeX1k9e+HSw+OP6G5Nz8xL0fmV1YXSki7yDR8ef+TshUtie+bcytjYA9p2obQEt9Mz87ooy62OBLbnV1aPHjsOc8ct6rSVWF5ebjabyfZfo9GYm5uD+eTkZL1el6IkSer1+uTkJEpTE3Nzc41GAyaSqNVqunKtVkOFPD6r1SrqS6LZbC4vL4cQKpWKKapWq7qt1LQOAObwKSYaS54g40i0Q01S56eGJ5l+kH5zjlvdLzPcIQTdaB6ScajGym8uK84sKx1e1sBl+dS2PQ2yJZOsCH3+WUyyvOn6YJUkiZyM5jzNOSdbdk03Gs+uOFRdv2WQUqFSqcR+4pyuD3fcBHNIgARIoFsE0vWrqEwI04XSkpaw+tDUNIe6Zgjh6LHj51dWRZgeOjS6eOosJKw51DVDCL5bw2J6Zj6nW2OY81BkkFzORWPhqiNXOEhPOWyp5IyVCUNK0UQIYXl5eW1tzVQzh9VqNev6WqlUdJHujnHiH9ZqNd21Wq2m3fq2Umoi0SaGiQSZ8zKs/eggnea0iUlrPma4zaGuaZzoQ99KOzE1tROTbstKMzF+cGia1v5xC5R6CsBDnNBOjH9zqGvGfpDjW2knpiY8tEyIWEydeDknvGlaR1WYpAlbByknjrnZMPXjwz4EGTfKHBIgARLohEC6fl0oLS2eOnvo0Ki4FnEpclakpN7dPHrsONStY6idiFvZUhU5q51IqZahjlvTefEJ5e27NbZ5DmWhh0INIegLRqyQqtWqlp6pTRitZurUarWWHoxJCCG/fo17FHuLc+SSictk3PHYJM5xrIzGkiC1XI69xTmdBxnD6Xy4415jkvjNxR2UnLasDJMsn30O0mkuK0IRf+aWqUOScVvO2adVY2yIHKdrbQ0cHMYJHaSen3HNrJw+BJnV9P7KTz19nMV2f/WO0bZLwHlk0a6rPPXNZTHnEpTH8z6tk6JftayUXsluqGxqalkZQhBVKruqvmEsfOXRvwhlo1DFlbwG4Ls13Kdn5iGmQwiOW2OY8zCeMfKkXqSVbK7o3Roz4VJbcfSrU5TqCpnOkmquVfFFFE6chL5kFvOQqj+kxVSHkCZOVKZIB+k0Z6z0oT/cZnBlsJIk0RNAe5O0Y+U3F7uSnLasDJMsn30O0mkuK0J5c0Df0mj+bTHJakKc4CbNVIubMBXk0Ola7EEvJqne4kwTpEDIijk270+QWe3uu3xZmvSsS12s9l2/GHABAmYtvXr1qryhV8BVThOzmMQLSE4/Q1MtRb8aoSmC9bHHZ0QXakUoynLmxFOLp84ulJZ8Q7MVKn5mTjx15tzKgw8dFg+CVfw89vjMmXMr0zPzvls9EhIPNl/Njq9xqw3zp434k/m0vr6OLVK5IZPrR84njI5IjQVxzlDz61enZlZbqZfM9fV1/eKvr+HEs4GpmzMnqr+jrA2RNkEW068mQj3cp0+frtfr2ImX5tbW1hqNhqMezNXOWDnN6Xes0UdJ5LeKmRhXctjnIAeHpKFhrk+6NNYxuhTpXpCEc0mYICHi8WpsyzOxD0GamPf1oVkw5ZxqCXlfd5nBxwTMWRNX6EWOuSxy7nn6Ves/qE/oV+SgGoQmcuSdVxG+qK/3U0Uca/2K/V1U893qWWI2X3UYsVttmD8NraD3OczWoIjOJEkgan3/8SUnSRLRQJ3oV1zAJIFgEB4qtLv4mkumnEX6Sa5sI7V0G0eCjQ0pghCMm/CRyuYcuiyVneayvDnDrVUXJoCeFak+9aoXWznN5dGvunU412GYgdNFOt3nIAeHpIYgUw4zUIqEjDmhtJVJ94KkbiI1SF1BzkTTC10hhNDrIE1z+/1Qn2VyX23Wmf3eQcafk0Bt+0fV2MLIadVJNepXQy9Tv2L7UwygPvW+qXw9ADIxdYMThpKQfVy8Pmv0K8RxCMHo16x40B+z+Yp3GxZKS6luYdhWQhTG2tpas9mEPtNaQeZ0pVLBpc6/eOAN2tTTQCQXGsofqtkk0IYQSZIpl8DU1rUV0vElM87RV0QYxgkTiamg5Wa9Xteb3KZmfBiH1Mn+a+pwQ3XpNcVc2+LAQCbVquXsih2iX6lBatWbyiTVYZ+DHBySmkZLrW9usbQt0r0gCeepN2m6FNoUt4WmVA57HWRqo/s6EyevoGu5wu/rzjJ4h4DcH8oNbR+mASaehCRLegF54PRofxWl6FcRguYTVNi/1C+tSlchNH1DUbf65VT9fqp84gqP/vHNgaPHjvtugdtsvkq+4xaGbSVkxui9Rv0eXrzvmOcVAhE9qQpSmkst8sPOr1/bfTQfX9dj0fb/t/cGq21k3dvvpeyBPRDp/vpEkIFDDIGYeCCwY2wyEAhhQswBO8ecTDRpEPgKPNTon9k70gVodCaaaKKLOnxZL+tbrF31SFbbcbnzy6DZVbWeZ2/9akt6ele55N+IepA6vyZteuumo2mzHqTnvAfdoqRPt/2/Sjw723ygCJXuLr1G39xS1cjETVLjFw9SdJcGFjeFaksm0S22Tb7xC2mbOdmFQW5cIHy6QUaq/5q2f3Dd3Nwsl8sHfaT8ayDwQpyAfd/5VVPf/+iN9IFjH1PT7Z6O9+iD6YJhQ36NsdKG6CusMVb66H2FVQujiWk9+MbbDNzWE7O2jVYx/tr+ODbbE229r+0bdTKL6a1Oq3WirfsS+dW62/j1U3s+NL9u2UXj97pmUo/N9/jXgO9paxiiLd+ojYPcLb/ql1aPP67Et70WodLdtRluo2pj0ub5iwcpumsbYeMJdf7bMBHOW2b99HXSaChe2i8YpPhsiaN9ukHGXnR7f3///Px8PB4fHBzoyvroycnJeDw+OjqqD+k9BwcH4/H4/Px8f/+/D9vR9XbUTtzs5z+9tl27vaCXWUrp9/uj0Wg4HPZ6vfq1iD2/yct0AvV72Q+1NXaYtOkDZ5t0EXvf+WxGk061m/OrrZX6LwhcDC/9iaqWJn0zVabNJLTnGNjNAxZn/SldaTNWemhuG08ppXHx1W8h8F6S7W5nIl7Tt1nrH2F2yBfk7MtjYzTU3zGWPKLJ4z7/1fx9zJpJ2/d6ZLLNZU3rpf7WbOx9mwu1USgGmRbOo6qtHV9aOt1pM1a2udWXdJMqbiZ/4blR1cakzTN1Hf0tOPpjFlJlm6FWJZPUXZunVkWTVNlmaPu3zPpbfnmkruOoNJN/PkjrOn50tHk+0SDbumvcb1+u4/H45OSksaBtZ6/XGw6HO8TQUopliNFo1O/32/wb989ms//v578t/6faTV7Wyzw6Ohr//PfQ/6n417/M09PT+XzuP0605YeGT4PdJm1clrLPH/8cdmfR2PlsCs/nPdScXz0y7vBDWRZh24SWIO2ox0pDYBHWf0PL75G1o8LW1nGTm2PVtl72oIZ9CdldLx5ezSEeeqzf37JvF+tuS0+f3K7y6JZGuP0bQCfdaJuYtLEV+dX6ssFv8wXsXYhBiu5c3tgQLy2dmi2/zLRKdNc4PNspVIKJMPzFg9TdtY1TqwSTNkP7vy9/s8SyOCe3fBua/BkHueX/l/r/VvnHRZrJu5GM9Da2X9aKnU2GB300GYGX9TJ3XrH7HV5m+kBIb5mNE36H9Vf7dLI36WKxGI/Hy+Vy+353PpsbX8tzFbTm1+caEP1CAAIQgAAEIAABCEBAECC/CjgcggAEIAABCEAAAhDoHAHya+dOCQOCAAQgAAEIQAACEBAEyK8CDocgAAEIQAACEIAABDpHgPzauVPCgCAAAQhAAAIQgAAEBAHyq4DDIQhAAAIQgAAEIACBzhEgv3bulDAgCEAAAhCAAAQgAAFBgPwq4HAIAhCAAAQgAAEIQKBzBMivnTslDAgCEIAABCAAAQhAQBAgvwo4HIIABCAAAQhAAAIQ6BwB8mvnTgkDggAEIAABCEAAAhAQBMivAg6HIAABCEAAAhCAAAQ6R4D82rlTwoAgAAEIQAACEIAABAQB8quAwyEIQAACEIAABCAAgc4RIL927pQwIAhAAAIQgAAEIAABQYD8KuBwCAIQgAAEIAABCECgcwTIr507JQwIAhCAAAQgAAEIQEAQaM2vvd6rq2+T28nd7eTu+vvfr/tvosvx4MwO3U7uLoaX8ZAWvu6/uf7+t2mvvk16vVdRezG8dNvjwVk8pG2j8EG2sYsHtW9ublar1frnv8VicXh4WEo5PT1dLpe2c71er1arm5ubLW3n87kLZ7NZVMW+lsvl6elpPCraUfiiB2lkptOpeLF+6BFJRoB+dtbr9Xw+787pfhGDtLMTh1rPZHHi/OTWDaHS3dVWDNIn+WN9BLVBZj8EIACBf0igOb9ayvRgejG8jBE2bqbKtBkrSylv372/ndxZMN3b2x99ufasmTZjZSlF2Jpw9OV6b2+/lJJ80may3ZndfD7fJptuWXZ4eLhYLPzrfDqdrtdr//6Im6lSj3/L3rcsS13HUZVS4maq3G2Q9n8CDkGb+NHUdRzVPxmk+5dSLBI1JunnJdn9QcbTkc5U2oyV8XWltlZFk1SZfOKmUCWTWBkdUlurokmqTD5xU6iSSayMDqmtVdEkVSYfNiEAAQj8MgLN+fVieOmJ0EOhxVmLkm/fvfchvn333tOtEFqU9ExcSrElVYuz0cScjwdnnm6FrR6PtvWX8KDGdDrdJrzqrBN7rA1ns5nFWfu2sNU+k2wZ7GrP2GNsi0AWy2rDJx3kli8zjtASajo1/3yQqYv5fO7/p5EOPSPJNJIODlLPZDG70kuLm0Klu4smsa1VortoktpCpbtLPr6pVaI7d6gbQqW7q6123hMvXrW9xXY2bxPOZrO2Jec2yT/c/+t73O0qxD98meKqyD90Rg4BJ9CQX2OstDpbtrQ0GWOlR1tbVdXCOmjaTQgWlFNC9bsF3r57v41tvNkgjlDYOoIHNepPcyHfMtDM53O/uB+vSk+n09rBPv5ifT2Af8Egd8uvj04ysbXT0bYqXJ+sJLfN33OQNZw4kwWTRoZPRJJBGliPkjt/BImz1njIlnj9f9RPT0//53/+p7HysXbah2T83937+/vtb/fabRjxfyz1h8lu/rUq9XJzc/Of//ynLnvcPfFlllL+85//PDXYxx0/bi+FQEN+TUHT4uCHjwNbZI2J0JLl4NPn0Zfri+GlFqalUPMZfPp89W3yx59/mYNRM58PHwdX3ybHgzNtW0qxHGwru9a25eG04ptsdztD9sn+48ePxWLh/+PeeDXZPh910CylpKxpHzf39/fL5XI2m6V1Efua//Hjh16f+BcM0r9BNeR4Ep+CZPQvpaTP5Xj0GU93HEZnBylm8tevXxeLhWeX9BZIr843n+J0M0i/avQPP4L8NG3TSKdyG8k/r0nn+p8bbnSwiR2/LPzq0EbtzgW//mU+y9ncmQ/CF01A5deY/zx9en71PV7mQdP32D2vFny9Pq6nWjiO+dVXT71M2xp9q0l/ahaHUdvudtrsMyj+X7stI/mnkr17LXXplGkDiO92/ziz9Bbzq+8ppXhZ20v4dwwyvjqD3Lbw+XQk4xiMahpDF073ixikf4/WMznmV5/bsSy+QG8/xRuHQdb8BZPt/5DUz1pjow52jWWPuzMt+T+ueaObs/Wjztb3PHqj/i549C5qQ7t5wP+PtC5gDwQehUBrfvXlT+vG02dcN7WnB3hMbFzgdKE1bB3Xb59N+dXDcbw7Vtv6+qvdQmAPIrC1WB9Yo+1u+OoQE79Hk2f8u4d0yDddHj9P/cvbPuDu7+9Xq5VH5Ppz0N2s8e8bpFHSi9lPQTKCFYuvVvZcp/tFDFLMZM+vjW+B+Opi+ylON4P0t9g//AiKZ2pj+xfEuDQGnzxp/5NuWqrzC0rWiEshT9S7ncrtl1QeZRi24mCdpv/nfxR/TCBQSmnIr7bweTu585RpGdHvf72d3MW/7vKFUi20GOp/6WX0PVnG3GmHrN7vf20bT/1IgXgLgbDd7fT7x7rL9Udh/Ep2SWrU/7fqCxKN//e80fPfOsiN69mPTtLPVP2/BH4oNjaeGru+70/gMu0/PN0+gC4PUs9kceL81dUNodLd1Va2R6tEd22GT3G6X8QgBZD6kL2i6XZPx6vlu+3Z5q26m3ObauO6Q5vwsfbb/2Bv/BR9rO787rj4OJ1HNMcKAg35tZTisdIA+UKmP8oqRltfYdXCaGK2HnzjbQZ+SvyKv7aNadW0MdHGsdnRaOt9bd+o02odFqPbNp+S9fKDf9I9tDvr+qGq7g/SIG+8IPXoJP1Ublx8tcpnIfkiBqnnpDhx/urqhlDp7mor26NVors2w6d4JsaLGKQAUh/a8t1dC33PycnJeDw+OjryPRsbs9nsn6x99vv90Wg0HA57vd7Gvqygnj9bCr1sh5fp2t3GsMPLTD3W0zUV1Js7v8yDg4PxeHx+fr6//78fprn9v51f5v7+/vn5+Xg8Pjg42L47q3xBL/OhL+2X1TfnV1v79D/qvxhe+qOsLE36ZqpMm0loyTL+cZWv41q69c1Y6aG5cTzWowvNx1d5te1ulO3/Yn21QCSbdGtsW3f2Dvcrd8k/bqbKNkN/1um/Y5D2qrdZNkh8IrrEJFUKkv4XLRuvgj3j6X4Rg4ynI/FPm7FSnBqtiiapUngKVTKJlcJQq6JJqhSeQpVMYqUw1KpokiqF54MOpRvcH/T8gV6vNxwOHxpcLDTHT5UHPX/g6Oho/PPf9sHF0MUeH4Rot5dpf0ThHYlvK6+JjR1e5unp6Xw+tx/02f5zyTvd7WWa3BLhaDTq9/tuuE1jh5dpthZ8x+PxycnJNh15zct6mT7srjWa86tHxh1+KMsCZZvQgqkd9dBpUCxr+u9vxSVePZ7Y4+3kzrP1Nra7nQ/7QLebezx3+nvV9q/X63hId2QfbS703Gmqtu60Z5vKrtZ5Xy9ikBtXXh3FU5Bs+2GCTpF8EYNsm5PxUqPNzPQW8PObGk9xuhnker1O/AWTdEZ23oxdPDTk7baUlSbPxv9BjS9t5xW7efidxXQfUfRvbO/2MmOP23/a2wB2e5npgzHNpcaXFnfu9jJLKay/Rox1e7ezWft0Z09rfu3OEBkJBCAAAQhAAAIQgAAEnAD51VHQgAAEIAABCEAAAhB4AQTIry/gJDFECEAAAhCAAAQgAAEnQH51FDQgAAEIQAACEIAABF4AAfLrCzhJDBECEIAABCAAAQhAwAmQXx0FDQhAAAIQgAAEIACBF0CA/PoCThJDhAAEIAABCEAAAhBwAuRXR0EDAhCAAAQgAAEIQOAFECC/voCTxBAhAAEIQAACEIAABJwA+dVR0IAABCAAAQhAAAIQeAEEyK8v4CQxRAhAAAIQgAAEIAABJ0B+dRQ0IAABCEAAAhCAAAReAAHy6ws4SQwRAhCAAAQgAAEIQMAJkF8dBQ0IQAACEIAABCAAgRdAgPz6Ak4SQ4QABCAAAQhAAAIQcALkV0dBAwIQgAAEIAABCEDgBRBoza+93qurb5Pbyd3t5O76+9+v+2/iqzkenNmh28ndxfAyHtLC1/0319//Nu3Vt0mv9ypqL4aXbns8OIuHtG0Uvn33PgpLKfFosk2VW27e3NysVqv1z3/L5fL09DQK5/O5HVqv17PZLB4SbaHS3bV5apXors2wlCJUurs2T60S3bUZMsj1es2ctOmhZ1fbFNIq5mQ9u9pIsh8CEIDA0xFozq+WMj2YXgwvY4SNm6kybcbKUsrbd+9vJ3eWIPf29kdfrj3Cps1YWUoRtiYcfbne29v3Sg+p2nY3rNPp1IPp4eHhYrHwD/S0GStFX1oVTVKl8BSqZBIrhaFWRZNUKTyFKpnESmGoVdEkVQpPoUomsVIYalU0SZXCU6iSSawUhloVTVKl8BSqZBIrhaFWRZNUKTyFKpnESmGoVbcwSjQAACAASURBVNEkVQpPoUomsVIYalU0SZXCk0MQgAAEnpRAc369GF56IiylWAq0OGtRMq5xvn333tOtEEYTe0m2pGpZM5rY0ePBmadbYRvLTHgxvHShtt2BrH18z+dz156eni6XS1tnnU6nq9Xq5ubGj85mM0+3vjM1hEp3l3x8U6tEd+5QN4RKd1db2R6tEt21GZZShEp31+apVaK7NkMG6WR44+jZ5aBSQ6s6MifTmNmEAAQg8OgEGvJrjJXWn62GWihMedFSqa2qamEdfO0mBAvKKaH63QJv373Xtkloq7xteTra7obSri1Op1OXz2az9Xq9WCwODw/n87k17Kh9Q6/X61jvQm8Ile7OHVJDq0R3ySduCpXuLprEtlaJ7qJJaguV7i75+KZWie7coW4Ile6utrI9WiW6azO0ezDaZrLurs1TqxikcYsfJi+aZNvg2Q8BCEDgsQg05NcUNC2wfvg4sFAY86LFwcGnz6Mv1xfDSy1MS6HmM/j0+erb5I8//zIHe1Xm8+Hj4Orb5Hhwpm1Tnva7FN6+e59WfJPtbgTT8oZ97/748WO5XH79+nWxWPjSrH1h39/f++psY49pNSWpRHfppttoLlQM0kDFEwfJOHlKKczJepLwxqmZiDdOmlFsQgACEHh0Aiq/xvzn6dPzq+/xMg+avieuhnp9XE+19Bnzq+dRL9O2dtRv1Y0rrHEYte1uKD0axqufdpNA/Ibz2wZiWWOPMSvUKtGd+PIQKgYZz4gDbzw18Vp/rYJkzYQ5mSbSb/vuThzYhAAEIPDoBFrzqy9/WpeePuO6qT09wGNi4wKnC61h67h++2zKrx6OSykpv7aNx/9my59p4EvFPrBG291QWjS8v79frVZ+V0DKr/FiaPyOb+zRv+EaVaK7jVmBQZZSnD8k/X4AZ9I4IeP6K3OylMK7e7VaNX6YiI+gtqnFfghAAAKPRaAhv8YlTO/G1y/jTat21IOmFlq69TtTTevJ0h5x5cuonkr9/tfbyZ2n3lKKj8dH6I14SNh6/YMadn0//ZGWf83bs3X8FoJSSn3bX92dUOnuaivbo1WiuzZDfyhV40vT3bV5ahWDdG4+u3xPakDSgRiK6XSqmXh9amgVc9JxbZyTXkkDAhCAwBMRaMiv9sDUl/L8gcTF1lz9+Vm++utlMd36zu0bvlzqkria5Rfu/ejGK9TxInWt0t15fWpoFYM0XPHEJYC+CUlH4TNZM/H61NAq5qTh+tfMyXT2t9nc398/Pz8fj8cHBwfb1Meak5OT8Xh8dHQUd27TPjg4GI/H5+fn+/v/+/GL2//r9/uj0Wg4HPZ6ve1VpRRe5kZcnE2N6NdPWj2eZzzanF9trdRTYHwilaVbf0BVqkybSWjPMbBlVAuanpLTZqz0tdi28Tg+6z0u4mpbFz6oYU9DnP58BIF9K/uV2bQZK0UXWhVNUqXwFKpkEiuFoVZFk1QpPIUqmcRKYahV0SRVCk+hSiaxUhhqVTRJlcJTqJJJrBSGWhVNUqXwFKpkEiuFoVZFk1QpPIUqmcRKYahV0SRVCk+hSiaxUhhqVTRJlcLzoYcsEY7H45OTkwdpe73ecDjcLYZaVBqNRv1+/0GdHh0djX/+e2ja5mVqzpxNzaeU8usn7cYhPVdBc371yOg3lW7/Q1kWItuEFkztqIdXe/GWNe1QultAjMdvWmj8nTB/eG2b7W7c7QPdfmTLw6tZ2ee7//6WxdyNvWiV6E44C5Xurs1Tq0R3bYa29uysIGmgILnxkXM+o5iT/vC+LZl4WWo8BcnUhd5kYVLz8eDCMnMbqF+/MPmbTNo24M++vzW/PvvIGAAEIAABCEAAAhCAAARqAuTXmgl7IAABCEAAAhCAAAS6S4D82t1zw8ggAAEIQAACEIAABGoC5NeaCXsgAAEIQAACEIAABLpLgPza3XPDyCAAAQhAAAIQgAAEagLk15oJeyAAAQhAAAIQgAAEukuA/Nrdc8PIIAABCEAAAhCAAARqAuTXmgl7IAABCEAAAhCAAAS6S4D82t1zw8ggAAEIQAACEIAABGoC5NeaCXsgAAEIQAACEIAABLpLgPza3XPDyCAAAQhAAAIQgAAEagLk15oJeyAAAQhAAAIQgAAEukuA/Nrdc8PIIAABCEAAAhCAAARqAuTXmgl7IAABCEAAAhCAAAS6S4D82t1zw8ggAAEIQAACEIAABGoC5NeaCXsgAAEIQAACEIAABLpLgPza3XPDyCAAAQhAAAIQgAAEagKt+bXXe3X1bXI7ubud3F1///t1/00UHw/O7NDt5O5ieBkPaeHr/pvr73+b9urbpNd7FbUXw0u3PR6cxUPadm9vf/Tluh6MOQjb2MX27Zubm9Vqtf75b7lcnp6eRu18PrdD6/V6NpvFQ6ItVLq7Nk+tEt21GZZShEp31+apVaK7NkMGuV6vmZM2PfTsaptCWsWcrGdXG0n2QwACEHg6As351VKmB9OL4WWMsHEzVabNWFlKefvu/e3kzoKpJU6PsGkzVpZStK0VXP0/k8Gnz25oyLTtblin06kH08PDw8Vi4R/oaTNWir60KpqkSuEpVMkkVgpDrYomqVJ4ClUyiZXCUKuiSaoUnkKVTGKlMNSqaJIqhadQJZNYKQy1KpqkSuEpVMkkVgpDrYomqVJ4ClUyiZXCUKuiSaoUnkKVTGKlMNSqaJIqhSeHIAABCDwpgeb8ejG8HH253tvbt74tBVqctSj59t17H9bbd+893QphNDGtLalanI0mdvR4cOZhVNh68ejL9Z//6/+6+jZpG5tXuq3tedB/7eN7Pp+76vT0dLlc2jrrdDpdrVY3Nzd+dDabebr1nakhVLq75OObWiW6c4e6IVS6u9rK9miV6K7NsJQiVLq7Nk+tEt21GTJIJ8MbR88uB5UaWtWROZnGzCYEIACBRyfQkF9jrLT+bDXUYl+MlaUUS6W2qqqFdfC1mxAsKKeE6ncLvH33Xtv6GCwHXwwvfdm4lCJsd0Np1xan06nLZ7PZer1eLBaHh4fz+dwadtS+odfrdax3oTeESnfnDqmhVaK75BM3hUp3F01iW6tEd9EktYVKd5d8fFOrRHfuUDeESndXW9kerRLdtRnaPRhtM1l31+apVQzSuMUPkxdNsm3w7IcABCDwWAQa8msKmhZYP3wc2CJrTISWLAefPo++XF8ML7UwrbCaj13x/+PPv8zBXpX5fPg4uPo2OR6caVu/ecDu0I3xOq34JtvdCKblDfve/fHjx3K5/Pr162Kx8KVZ+8K+v7/31dnGHtNqSlKJ7tJNt9FcqBikgYonDpJx8pRSmJP1JOGNUzMRb5w0o9iEAAQg8OgEVH6N+c/Tp+dX3+NlHjR9j93zasHX6+N6qsXNmF89gHqZti2lHA/O/G4HL/Z1WVuOrW13Q+nRMF79tJsE4jec3zYQyxp7jFmhVonuxJeHUDHIeEYceOOpidf6axUkaybMyTSRftt3d+LAJgQgAIFHJ9CaX33507r09BnXTe3pAZ5WGxc4XWgNW8f1W1RTfvVwXEpJ+bVtPN67jdM2Lc76oUbb3VBaNLy/v1+tVn5XQMqv8WJo/I5v7NG/4RpVoruNWYFBllKcPyT9fgBn0jgh4/orc7KUwrt7tVo1fpiIj6C2qcV+CEAAAo9FoCG/WnC8ndx5yrQ1Tr//9XZy5+udMWhqoaVb/0svewGeLO0RV/HWVV9J3cbWn7plDe9F2O5G0K7vpz/S8q95e7aO30JQSqlv+6v7FSrdXW1le7RKdNdm6A+lanxpurs2T61ikM7NZ5fvSQ1IOhBDMZ1ONROvTw2tYk46ro1z0itpQAACEHgiAg35tf6zJ1/I9EdZxWjrK6xaGE3sxfgKa7zNwF+nX/HXtrHMtBZ8t3msgfe1fcOXS10SV7P8wr0f3XiFOl6krlW6O69PDa1ikIYrnrgE0Dch6Sh8JmsmXp8aWsWcNFz/mjmZzv42m/v7++fn5+Px+ODgYJv6WHNycjIej4+OjuLObdoHBwfj8fj8/Hx//78P29lGVUrp9/uj0Wg4HPZ6vS0lVsbL3IiLs6kR/fpJq8fzjEeb82uMgBYf4zOnLoaXvpkq02as9Oe/WvaNF/r9XlVf1rUnHnhKbrOtM3GySr0k292429MQpz8fQWDfyn5lNm3GStGXVkWTVCk8hSqZxEphqFXRJFUKT6FKJrFSGGpVNEmVwlOokkmsFIZaFU1SpfAUqmQSK4WhVkWTVCk8hSqZxEphqFXRJFUKT6FKJrFSGGpVNEmVwlOokkmsFIZaFU1SpfB86CFLhOPx+OTk5EHaXq83HA53i6EWlUajUb/ff1CnR0dH45//Hpq2eZmaM2dT8yml/PpJu3FIz1XQnF99nXWHH8qyrNkmtARpRz2t2ou3rGmH0t0LbeOxvjzmOsTjwZnfQqBtXfKghn2g249seXg1B/t899/fspi70VyrRHfCWah0d22eWiW6azO0tWdnBUkDBcmNj5zzGcWc9If3bcnEy1LjKUimLvQmC5OajwcXlpnbQP36hcnfZNK2AX/2/a359dlHxgAgAAEIQAACEIAABCBQEyC/1kzYAwEIQAACEIAABCDQXQLk1+6eG0YGAQhAAAIQgAAEIFATIL/WTNgDAQhAAAIQgAAEINBdAuTX7p4bRgYBCEAAAhCAAAQgUBMgv9ZM2AMBCEAAAhCAAAQg0F0C5NfunhtGBgEIQAACEIAABCBQEyC/1kzYAwEIQAACEIAABCDQXQLk1+6eG0YGAQhAAAIQgAAEIFATIL/WTNgDAQhAAAIQgAAEINBdAuTX7p4bRgYBCEAAAhCAAAQgUBMgv9ZM2AMBCEAAAhCAAAQg0F0C5NfunhtGBgEIQAACEIAABCBQEyC/1kzYAwEIQAACEIAABCDQXQLk1+6eG0YGAQhAAAIQgAAEIFATIL/WTNgDAQhAAAIQgAAEINBdAq35tdd7dfVtcju5u53cXX//+3X/TXwRx4MzO3Q7ubsYXsZDWvi6/+b6+9+mvfo26fVeRe3F8NJtjwdn8VCbbTQ0bRpPKUXYxi62b9/c3KxWq/XPf8vl8vT0NGrn87kdWq/Xs9ksHhJtodLdtXlqleiuzbCUIlS6uzZPrRLdtRkyyPV6zZy06aFnV9sU0irmZD272kiyHwIQgMDTEWjOrxYKPQheDC9jhI2bqTJtxspSytt3728ndxZM9/b2R1+uPcKmzVhZShG2dujtu/fGKFVq292wTqdTD6aHh4eLxcI/0NNmrBR9aVU0SZXCU6iSSawUhloVTVKl8BSqZBIrhaFWRZNUKTyFKpnESmGoVdEkVQpPoUomsVIYalU0SZXCU6iSSawUhloVTVKl8BSqZBIrhaFWRZNUKTyFKpnESmGoVdEkVQpPDkEAAhB4UgLN+fVieDn6cr23t299Wwq0OJvyoqVST7dCGE3M1pZULc6+fffeTezo8eDM062wrccTi7XtDmTt43s+n7v29PR0uVzaOut0Ol2tVjc3N350Npt5uvWdqSFUurvk45taJbpzh7ohVLq72sr2aJXors2wlCJUurs2T60S3bUZMkgnwxtHzy4HlRpa1ZE5mcbMJgQgAIFHJ9CQX2OstP5sNdTSZIyVpRRLpbaqqoV10LSbECwox9BZSvG7Bd6+e/9Q22gV28l2N5R2bXE6nbp8Nput1+vFYnF4eDifz61hR+0ber1ex3oXekOodHfukBpaJbpLPnFTqHR30SS2tUp0F01SW6h0d8nHN7VKdOcOdUOodHe1le3RKtFdm6Hdg9E2k3V3bZ5axSCNW/wwedEk2wbPfghAAAKPRaAhv6agaYH1w8eBrY/GRGjJcvDp8+jL9cXwUgvTUqj5DD59vvo2+ePPv8zBXpX5fPg4uPo2OR6cadt01KK23U6QVnyT7W4E0/KGfe/++PFjuVx+/fp1sVj40qx9Yd/f3/vqbGOPaTUlqUR36abbaC5UDNJAxRMHyTh5SinMyXqS8MapmYg3TppRbEIAAhB4dAIqv8b85+nT86vv8TKPkr4n3l3g9XE91cJxzK++vutl2taO+l99+f21vjZstz3Utruh9GgYr37aTQLxG85vG4hljT3GrFCrRHfiy0OoGGQ8Iw688dTEa/21CpI1E+Zkmki/7bs7cWATAhCAwKMTaM2vvvxpXXr6jOum9vQAT6uNC5wutIat4/qfW6X86uHYr/X7+mvbeDzd2jgt9do9CT6wRtvdUFo0vL+/X61WfldAyq/xYmj8jm/s0b/hGlWiu41ZgUGWUpw/JP1+AGfSOCHj+itzspTCu3u1WjV+mIiPoLapxX4IQAACj0WgIb9aBLyd3HnKLKX4+mW8adUG4QulWmhBM/2RlidLe8SVP/HAnzng97+2jSflV3/KgQ1e2O5G0K7vpz/S8q95e7aO30JQSqlv+6v7FSrdXW1le7RKdNdm6A+lanxpurs2T61ikM7NZ5fvSQ1IOhBDMZ1ONROvTw2tYk46ro1z0itpQAACEHgiAg351R6Y+nKfP+ArvvHuBcfnQdz3PKjhy6WuiqtZfuHej268Qh0vUtcq3Z3Xp4ZWMUjDFU9cAuibkHQUPpM1E69PDa1iThquf82cTGd/m839/f3z8/PxeHxwcLBNfaw5OTkZj8dHR0dx5zbtg4OD8Xh8fn6+v//fh+1soyql9Pv90Wg0HA57vd6WEivjZW7ExdnUiH79pNXjecajzfnVFjX9FwQuhpf+KCtLt76ZKtNmEtZ/XOUp2a71+2as9LXYxvGk9dd4/4DfAttmuxt3exri9OcjCOxb2a/Mps1YKfrSqmiSKoWnUCWTWCkMtSqapErhKVTJJFYKQ62KJqlSeApVMomVwlCrokmqFJ5ClUxipTDUqmiSKoWnUCWTWCkMtSqapErhKVTJJFYKQ62KJqlSeApVMomVwlCrokmqFJ4PPWSJcDwen5ycPEjb6/WGw+FuMdSi0mg06vf7D+r06Oho/PPfQ9M2L1Nz5mxqPqWUXz9pNw7puQqa86tHxh1+KMsCZZvQgqkd9VhpL94irP8lVrx7QYwndmdaj7nb2O7G3T7Q7Ue2PLyalX2+++9vWczd2ItWie6Es1Dp7to8tUp012Zoa8/OCpIGCpIbHznnM4o56Q/v25KJl6XGU5BMXehNFiY1Hw8uLDO3gfr1C5O/yaRtA/7s+1vz67OPjAFAAAIQgAAEIAABCECgJkB+rZmwBwIQgAAEIAABCECguwTIr909N4wMAhCAAAQgAAEIQKAmQH6tmbAHAhCAAAQgAAEIQKC7BMiv3T03jAwCEIAABCAAAQhAoCZAfq2ZsAcCEIAABCAAAQhAoLsEyK/dPTeMDAIQgAAEIAABCECgJkB+rZmwBwIQgAAEIAABCECguwTIr909N4wMAhCAAAQgAAEIQKAmQH6tmbAHAhCAAAQgAAEIQKC7BMiv3T03jAwCEIAABCAAAQhAoCZAfq2ZsAcCEIAABCAAAQhAoLsEyK/dPTeMDAIQgAAEIAABCECgJkB+rZmwBwIQgAAEIAABCECguwTIr909N4wMAhCAAAQgAAEIQKAmQH6tmbAHAhCAAAQgAAEIQKC7BMiv3T03jAwCEIAABCAAAQhAoCbQml97vVdX3ya3k7vbyd31979f999E8fHgzA7dTu4uhpfxkBa+7r+5/v63aa++TXq9V1F7Mbx02+PBWTykbePR28ld0grb2MX27Zubm9Vqtf75b7lcnp6eRu18PrdD6/V6NpvFQ6ItVLq7Nk+tEt21GZZShEp31+apVaK7NkMGuV6vmZM2PfTsaptCWsWcrGdXG0n2QwACEHg6As351VKmB9OL4WWMsHEzVabNWFlKefvuvYfLvb390Zdrj7BpM1aWUrax9dGWUj58HFjg1ra7YZ1Opx5MDw8PF4uFf6CnzVgp+tKqaJIqhadQJZNYKQy1KpqkSuEpVMkkVgpDrYomqVJ4ClUyiZXCUKuiSaoUnkKVTGKlMNSqaJIqhadQJZNYKQy1KpqkSuEpVMkkVgpDrYomqVJ4ClUyiZXCUKuiSaoUnhyCAAQg8KQEmvPrxfBy9OV6b2/f+rYUaAHRouTbd+99WG/fvfd0K4TRxLS2aGprpdHEjh4PzjzdClszieHVB2aJ2cdW28bKLdv28T2fz73+9PR0uVzaOut0Ol2tVjc3N350Npt5uvWdqSFUurvk45taJbpzh7ohVLq72sr2aJXors2wlCJUurs2T60S3bUZMkgnwxtHzy4HlRpa1ZE5mcbMJgQgAIFHJ9CQX2OstP5sNdTSZIyVpRRLpbaqqoV18LWbECwop4RqVreTu7fv3mtbG1vM05GRsI1l27ft2uJ0OnXJbDZbr9eLxeLw8HA+n1vDjto39Hq9jvUu9IZQ6e7cITW0SnSXfOKmUOnuoklsa5XoLpqktlDp7pKPb2qV6M4d6oZQ6e5qK9ujVaK7NkO7B6NtJuvu2jy1ikEat/hh8qJJtg2e/RCAAAQei0BDfk1B0wLrh48DW8iMidCS5eDT59GX64vhpRamFVbzGXz6fPVt8seff5mDvSrz+fBxcPVtcjw407YXw0tfpk1Q0opvsk3FW26m5Q373v3x48dyufz69etisfClWfvCvr+/99XZxi7SakpSie7STbfRXKgYpIGKJw6ScfKUUpiT9SThjVMzEW+cNKPYhAAEIPDoBFR+jfnP06fnV9/jZR40fU+8gu/1cT3VwnHMr76+62Xadsv8WtvuhtKjYbz6aTcJxG84v20gljX2GLNCrRLdiS8PoWKQ8Yw48MZTE6/11ypI1kyYk2ki/bbv7sSBTQhAAAKPTqA1v/ryp3Xp6TOum9rTAzytNi5wutAato7rl/tTfvVwXEpJ+VWMZ+P6a6PtbigtGt7f369WK78rIOXXeDE0fsc39ujfcI0q0d3GrMAgSynOH5J+P4AzaZyQcf2VOVlK4d29Wq0aP0zER1Db1GI/BCAAgcci0JBfLTjavafeja9fxptW7agHTS20dJv+msqTpT3iKv4Zli+7alsbjwdiH7A1hG2q3HLTru+nP9Lyr3l7to7fQlBKqW/7qzsSKt1dbWV7tEp012boD6VqfGm6uzZPrWKQzs1nl+9JDUg6EEMxnU41E69PDa1iTjqujXPSK2lAAAIQeCICDfm1lOKx0nr1FVZ/lFXMi77CqoXRxGw9+MbbDPx1emLWthZzY/B1h422sXLLti+Xen1czfIL93504xXqeJG6VunuvD41tIpBGq544hJA34Sko/CZrJl4fWpoFXPScP1r5mQ6+9ts7u/vn5+fj8fjg4ODbepjzcnJyXg8Pjo6iju3aR8cHIzH4/Pz8/39/z5sZxtVKaXf749Go+Fw2Ov1tpRYGS9zIy7Opkb06yetHs8zHm3OrxYK/VcA0j2mcTNVps1YaWnSl3UtzvpTutJmeqqAtrUl2Bhh0/NfvZdkuxt3exri9OcjCOxb2a/Mps1YKfrSqmiSKoWnUCWTWCkMtSqapErhKVTJJFYKQ62KJqlSeApVMomVwlCrokmqFJ5ClUxipTDUqmiSKoWnUCWTWCkMtSqapErhKVTJJFYKQ62KJqlSeApVMomVwlCrokmqFJ4PPWSJcDwen5ycPEjb6/WGw+FuMdSi0mg06vf7D+r06Oho/PPfQ9M2L1Nz5mxqPqWUXz9pNw7puQqa86uvs+7wQ1mWNduEliDtqMdKe/EWYf33t+IS78bxxE79JxK2sd2Nu32g249seXg1K/t899/fspi7sRetEt0JZ6HS3bV5apXors3Q1p6dFSQNFCQ3PnLOZxRz0h/etyUTL0uNpyCZutCbLExqPh5cWGZuA/XrFyZ/k0nbBvzZ97fm12cfGQOAAAQgAAEIQAACEIBATYD8WjNhDwQgAAEIQAACEIBAdwmQX7t7bhgZBCAAAQhAAAIQgEBNgPxaM2EPBCAAAQhAAAIQgEB3CZBfu3tuGBkEIAABCEAAAhCAQE2A/FozYQ8EIAABCEAAAhCAQHcJkF+7e24YGQQgAAEIQAACEIBATYD8WjNhDwQgAAEIQAACEIBAdwmQX7t7bhgZBCAAAQhAAAIQgEBNgPxaM2EPBCAAAQhAAAIQgEB3CZBfu3tuGBkEIAABCEAAAhCAQE2A/FozYQ8EIAABCEAAAhCAQHcJkF+7e24YGQQgAAEIQAACEIBATYD8WjNhDwQgAAEIQAACEIBAdwmQX7t7bhgZBCAAAQhAAAIQgEBNgPxaM2EPBCAAAQhAAAIQgEB3CbTm117v1dW3ye3k7nZyd/3979f9N/FFHA/O7NDt5O5ieBkPaeHr/pvr73+b9urbpNd7FbUXw0u3PR6cxUNttnEkpn377n0UllKEbarccvPm5ma1Wq1//lsul6enp1E4n8/t0Hq9ns1m8ZBoC5Xurs1Tq0R3bYalFKHS3bV5apXors2QQa7Xa+akTQ89u9qmkFYxJ+vZ1UaS/RCAAASejkBzfrWU6cH0YngZI2zcTJVpM1aWUt6+e387ubNgure3P/py7RE2bcbKUoqwPR6cuYl34SPXtrthnU6nHkwPDw8Xi4V/oKfNWCn60qpokiqFp1Alk1gpDLUqmqRK4SlUySRWCkOtiiapUngKVTKJlcJQq6JJqhSeQpVMYqUw1KpokiqFp1Alk1gpDLUqmqRK4SlUySRWCkOtiiapUngKVTKJlcJQq6JJqhSeHIIABCDwpASa8+vF8HL05Xpvb9/6thRoodCiZFzjfPvuvadbIYwmZmtLqhZno4kdjcFU2MYyF95O7myE2tbqH/Rf+/iez+euOj09XS6Xts46nU5Xq9XNzY0fnc1mnm59Z2oIle4u+fimVonu3KFuCJXurrayPVolumszLKUIle6uzVOrRHdthgzSyfDG0bPLQaWGVnVkTqYxswkBCEDg0Qk05NcYK60/Ww21Zc6UFy2V2qqqFtbB1y79W1BOCdXv5LgC9QAAIABJREFUFnj77r22TeMppVi9pW1huxtKu7Y4nU5dPpvN1uv1YrE4PDycz+fWsKP2Db1er2O9C70hVLo7d0gNrRLdJZ+4KVS6u2gS21oluosmqS1Uurvk45taJbpzh7ohVLq72sr2aJXors3Q7sFom8m6uzZPrWKQxi1+mLxokm2DZz8EIACBxyLQkF9T0LSA+OHjwBZZYyK0pDj49Hn05fpieKmFaSnUfAafPl99m/zx51/mYK/KfD58HFx9mxwPzrRtW34dfbnu9V4J290IpuUN+9798ePHcrn8+vXrYrHwpVn7wr6/v/fV2cYe02pKUonu0k230VyoGKSBiicOknHylFKYk/Uk4Y1TMxFvnDSj2IQABCDw6ARUfo1X/D19en71PV7mQdP32A2pFny9Pq6nWvqM+dXzqJdpW693NNZ7yq9e5rZe/6CGR8N49dNuEojfcH7bQCxr7ChmhVoluhNfHkLFIOMZceCNpyZe669VkKyZMCfTRPpt392JA5sQgAAEHp1Aa3715U/r0tNnXDe1pwd4Wk3rpkloDraO67fPpvzq4dhvA/D117bxeDB1NJZQY35ttPX6BzUsGt7f369WK78rIOXXeDE0fsc3duTfcI0q0d3GrMAgSynOH5J+P4AzaZyQcf2VOVlK4d29Wq0aP0zER1Db1GI/BCAAgcci0JBfLf/5n0BZTx4T402rdshXNLXQ0q3/pZdpPVnaI678uQH+zAG//1WMJz5/wIX2Z2HCdjeCdn0//ZGWf83bs3X8FoJSSn3bX92vUOnuaivbo1WiuzZDfyhV40vT3bV5ahWDdG4+u3xPakDSgRiK6XSqmXh9amgVc9JxbZyTXkkDAhCAwBMRaMiv9sDUl/v8gfjQLl82dnwexH3Pgxq+XOqquJrlF+796MYr1PEida3S3Xl9amgVgzRc8cQlgL4JSUfhM1kz8frU0CrmpOH618zJdPa32dzf3z8/Px+PxwcHB9vUx5qTk5PxeHx0dBR3btM+ODgYj8fn5+f7+/992M42qlJKv98fjUbD4bDX620psTJe5kZcnE2N6NdPWj2eZzzanF9trdR/QeBieBnXOONmqkybsdIfzmo3D/hdqvaUrrRpTzzw2wyEbcqjtuDqI9e2u3G3pyFOfz6CwL6V/cps2oyVoi+tiiapUngKVTKJlcJQq6JJqhSeQpVMYqUw1KpokiqFp1Alk1gpDLUqmqRK4SlUySRWCkOtiiapUngKVTKJlcJQq6JJqhSeQpVMYqUw1KpokiqFp1Alk1gpDLUqmqRK4fnQQ5YIx+PxycnJg7S9Xm84HO4WQy0qjUajfr//oE6Pjo7GP/89NG3zMjVnzqbmU0r59ZN245Ceq6A5v/pV+B1+KMuyZpvQgqkdjUu8pRTLmnYo3S0gxpN+fyt5brTdjbt9oNuPbHl4NSv7fPff37KYu7EXrRLdCWeh0t21eWqV6K7N0NaenRUkDRQkNz5yzmcUc9If3rclEy9LjacgmbrQmyxMaj4eXFhmbgP16xcmf5NJ2wb82fe35tdnHxkDgAAEIAABCEAAAhCAQE2A/FozYQ8EIAABCEAAAhCAQHcJkF+7e24YGQQgAAEIQAACEIBATYD8WjNhDwQgAAEIQAACEIBAdwmQX7t7bhgZBCAAAQhAAAIQgEBNgPxaM2EPBCAAAQhAAAIQgEB3CZBfu3tuGBkEIAABCEAAAhCAQE2A/FozYQ8EIAABCEAAAhCAQHcJkF+7e24YGQQgAAEIQAACEIBATYD8WjNhDwQgAAEIQAACEIBAdwmQX7t7bhgZBCAAAQhAAAIQgEBNgPxaM2EPBCAAAQhAAAIQgEB3CZBfu3tuGBkEIAABCEAAAhCAQE2A/FozYQ8EIAABCEAAAhCAQHcJkF+7e24YGQQgAAEIQAACEIBATYD8WjNhDwQgAAEIQAACEIBAdwmQX7t7bhgZBCAAAQhAAAIQgEBNoDW/9nqvrr5Nbid3t5O76+9/v+6/ieLjwZkdup3cXQwv4yEtfN1/c/39b9NefZv0eq+i9mJ46bbHg7N4qM12b29/9OXaVdYYfbne29t3ubD1mgc1bm5uVqvV+ue/5XJ5enoa5fP53A6t1+vZbBYPibZQ6e7aPLVKdNdmWEoRKt1dm6dWie7aDBnker1mTtr00LOrbQppFXOynl1tJNkPAQhA4OkINOdXS5keTC+GlzHCxs1UmTZjZSnl7bv3t5M7C6aWOz3Cps1YWUoRtiZMgdV5aVsve1BjOp16MD08PFwsFv6BnjZjpehCq6JJqhSeQpVMYqUw1KpokiqFp1Alk1gpDLUqmqRK4SlUySRWCkOtiiapUngKVTKJlcJQq6JJqhSeQpVMYqUw1KpokiqFp1Alk1gpDLUqmqRK4SlUySRWCkOtiiapUnhyCAIQgMCTEmjOrxfDy5gILQVanLUo+fbdex/W23fvPd0KYTQxrS2pWpyNJnb0eHDm6XajbRytD8wSs4+tto2VW7bt43s+n3v96enpcrm0ddbpdLparW5ubvzobDbzdOs7U0OodHfJxze1SnTnDnVDqHR3tZXt0SrRXZthKUWodHdtnlolumszZJBOhjeOnl0OKjW0qiNzMo2ZTQhAAAKPTqAhv8ZYaf3ZaqilyRgrSymWSm1VVQvr4Gs3IVj0TAnV7xZ4++69trUBtOVXYbsbSru2OJ1OXT6bzdbr9WKxODw8nM/n1rCj9g29Xq9jvQu9IVS6O3dIDa0S3SWfuClUurtoEttaJbqLJqktVLq75OObWiW6c4e6IVS6u9rK9miV6K7N0O7BaJvJurs2T61ikMYtfpi8aJJtg2c/BCAAgcci0JBfU9C0wPrh48AWMmMitGQ5+PR59OX6YniphWmF1XwGnz5ffZv88edf5mCvynw+fBxcfZscD860rcivacU32e5GMC1v2Pfujx8/lsvl169fF4uFL83aF/b9/b2vzjb2mFZTkkp0l266jeZCxSANVDxxkIyTp5TCnKwnCW+cmol446QZxSYEIACBRyeg8mvMf54+Pb/6Hi/zoOl74hV8r4/rqRaOY3719V0v07bWV/r7LbvVIQ6jtt0NpUfDePXTbhKI33B+20Asa+wxZoVaJboTXx5CxSDjGXHgjacmXuuvVZCsmTAn00T6bd/diQObEIAABB6dQGt+9eVP69LTZ1w3tacHeExsXOB0oTVsHddvn0351cNxKSXl17bxWO+N9w/4wBptd0Np0fD+/n61WvldASm/xouh8Tu+sUf/hmtUie42ZgUGWUpx/pD0+wGcSeOEjOuvzMlSCu/u1WrV+GEiPoLaphb7IQABCDwWgYb8asHxdnLnKbOU4uuX8aZVG4QHTS20dJv+msqTpT3iyp944M8c8Ptf28Yj8mspRdjuRtCu76c/0vKveXu2jt9CUEqpb/ur+xUq3V1tZXu0SnTXZugPpWp8abq7Nk+tYpDOzWeX70kNSDoQQzGdTjUTr08NrWJOOq6Nc9IraUAAAhB4IgIN+dViX1zR9IXMGCt9QL7CqoXRxLQefONtBm7riXkb2zhad9hoGyu3bPtyqdfH1Sy/cO9HN16hjhepa5XuzutTQ6sYpOGKJy4B9E1IOgqfyZqJ16eGVjEnDde/Zk6ms7/N5v7+/vn5+Xg8Pjg42KY+1pycnIzH46Ojo7hzm/bBwcF4PD4/P9/f/z/PC99G2O/3R6PRcDjs9Xrb1HsNL9NRtDU4m21kbP+vn7R6PM94tDm/2lqp/4LAxfDSH2VladI3U2XaTEJ7joEt66Z107QZKz00N44nCRPKdDTZpuItN+1piNOfjyCwb2W/Mps2Y6Uw16pokiqFp1Alk1gpDLUqmqRK4SlUySRWCkOtiiapUngKVTKJlcJQq6JJqhSeQpVMYqUw1KpokiqFp1Alk1gpDLUqmqRK4SlUySRWCkOtiiapUngKVTKJlcJQq6JJqhSeDz1kiXA8Hp+cnDxI2+v1hsPhbjHUotJoNOr3+w/q9OjoaPzz30PTNi9Tc+Zsaj6llF8/aTcO6bkKmvOrR0b7uyhPqz5K8YtWFmHbhJYgG38ly7Km/yVWvHtBjCepaudUkGz9FT2oYR/o9iNbHl7NwT7f/fe3LOZuNNcq0Z1wFirdXZunVonu2gxt7dlZQdJAQXLjI+d8RjEn/eF9WzLxstR4CpKpC73JwqTm48GFZeY2UL9+YfI3mbRtwJ99f2t+ffaRMQAIQAACEIAABCAAAQjUBMivNRP2QAACEIAABCAAAQh0lwD5tbvnhpFBAAIQgAAEIAABCNQEyK81E/ZAAAIQgAAEIAABCHSXAPm1u+eGkUEAAhCAAAQgAAEI1ATIrzUT9kAAAhCAAAQgAAEIdJcA+bW754aRQQACEIAABCAAAQjUBMivNRP2QAACEIAABCAAAQh0lwD5tbvnhpFBAAIQgAAEIAABCNQEyK81E/ZAAAIQgAAEIAABCHSXAPm1u+eGkUEAAhCAAAQgAAEI1ATIrzUT9kAAAhCAAAQgAAEIdJcA+bW754aRQQACEIAABCAAAQjUBMivNRP2QAACEIAABCAAAQh0lwD5tbvnhpFBAAIQgAAEIAABCNQEyK81E/ZAAAIQgAAEIAABCHSXQGt+7fVeXX2b3E7ubid319//ft1/E1/E8eDMDt1O7i6Gl/GQFr7uv7n+/rdpr75Ner1XUXsxvHTb48FZPCRso8rkoy/Xe3v7Lo8FydZrHtS4ublZrVbrn/+Wy+Xp6WmUz+dzO7Rer2ezWTwk2kKlu2vz1CrRXZthKUWodHdtnlolumszZJDr9Zo5adNDz662KaRVzMl6drWRZD8EIACBpyPQnF8tZXowvRhexggbN1Nl2oyVpZS3797fTu4sQe7t7Y++XHuETZuxspSibS+GlymwOi9t62UPakynUw+mh4eHi8XCP9DTZqwUXWhVNEmVwlOokkmsFIZaFU1SpfAUqmQSK4WhVkWTVCk8hSqZxEphqFXRJFUKT6FKJrFSGGpVNEmVwlOokkmsFIZaFU1SpfAUqmQSK4WhVkWTVCk8hSqZxEphqFXRJFUKTw5BAAIQeFICzfk1JUJLgRZnLUq+fffeh/X23XtPt0IYTUxrS6oWZ6OJHT0enHm6FballHTUB2aJ2cdW28bKLdv28T2fz73+9PR0uVzaOut0Ol2tVjc3N350Npt5uvWdqSFUurvk45taJbpzh7ohVLq72sr2aJXors2wlCJUurs2T60S3bUZMkgnwxtHzy4HlRpa1ZE5mcbMJgQgAIFHJ9CQX2OstP5sNdTSZIyVpRRLpbaqqoV18LWbEGzpNGVQv1vg7bv32lbnV2G7G0q7tjidTl0+m83W6/VisTg8PJzP59awo/YNvV6vY70LvSFUujt3SA2tEt0ln7gpVLq7aBLbWiW6iyapLVS6u+Tjm1olunOHuiFUurvayvZoleiuzdDuwWibybq7Nk+tYpDGLX6YvGiSbYNnPwQgAIHHItCQX1PQtMD64ePAFjJjIrRkOfj0efTl+mJ4qYVphdV8Bp8+X32b/PHnX+Zgr8p8PnwcXH2bHA/OtK3Ir2nFN9nuRjAtb9j37o8fP5bL5devXxeLhS/N2hf2/f29r8429phWU5JKdJduuo3mQsUgDVQ8cZCMk6eUwpysJwlvnJqJeOOkGcUmBCAAgUcnoPJrzH+ePj2/+h4v86Dpe+IVfK+P66kWjmN+9fVdL9O2ll/9r76sEW+xtdseatvdUHo0jFc/7SaB+A3ntw3EssYeY1aoVaI78eUhVAwynhEH3nhq4rX+WgXJmglzMk2k3/bdnTiwCQEIQODRCbTmV1/+tC49fcZ1U3t6gKfVxgVOF1rD1nH99tmUXz0cl1JSfm0bzzbrr422u6G0aHh/f79arfyugJRf48XQ+B3f2KN/wzWqRHcbswKDLKU4f0j6/QDOpHFCxvVX5mQphXf3arVq/DARH0FtU4v9EIAABB6LQEN+teB4O7nzlFlK8fXLeNOqDcKDphZauk1/TeXJ0h5x5U888GcO+P2vbeMR+dWXZhttdyNo1/fTH2n517w9W8dvISil1Lf91f0Kle6utrI9WiW6azP0h1I1vjTdXZunVjFI5+azy/ekBiQdiKGYTqeaidenhlYxJx3XxjnplTQgAAEIPBGBhvxaJ0JfYY2x0gfkK6xaGE1M68E33mbgtp6YtW191B022sbKLdu+XOr1cTXLL9z70Y1XqONF6lqlu/P61NAqBmm44olLAH0Tko7CZ7Jm4vWpoVXMScP1r5mT6exvs7m/v39+fj4ejw8ODrapjzUnJyfj8fjo6Cju3KZ9cHAwHo/Pz8/39//P88K3Efb7/dFoNBwOe73eNvVew8t0FG0NzmYbGdv/6yetHs8zHm3Or7ZW6o/6vxhe+qOsLC/6ZqpMm0lozzGwZV2Ls/7c1rQZKz00i/G4T0KpbVPxlpv2NMTpz0cQ2LeyX5lNm7FSmGtVNEmVwlOokkmsFIZaFU1SpfAUqmQSK4WhVkWTVCk8hSqZxEphqFXRJFUKT6FKJrFSGGpVNEmVwlOokkmsFIZaFU1SpfAUqmQSK4WhVkWTVCk8hSqZxEphqFXRJFUKz4ceskQ4Ho9PTk4epO31esPhcLcYalFpNBr1+/0HdXp0dDT++e+haZuXqTlzNjWfUsqvn7Qbh/RcBc351SOj/TmUp1UfpfhFK4uwbUILpnY0hU7LmnYo3S2gx+M3IfjwYkPbxsrt2/aBbj+y5eHV5Pb57r+/ZTF3o7NWie6Es1Dp7to8tUp012Zoa8/OCpIGCpIbHznnM4o56Q/v25KJl6XGU5BMXehNFiY1Hw8uLDO3gfr1C5O/yaRtA/7s+1vz67OPjAFAAAIQgAAEIAABCECgJkB+rZmwBwIQgAAEIAABCECguwTIr909N4wMAhCAAAQgAAEIQKAmQH6tmbAHAhCAAAQgAAEIQKC7BMiv3T03jAwCEIAABCAAAQhAoCZAfq2ZsAcCEIAABCAAAQhAoLsEyK/dPTeMDAIQgAAEIAABCECgJkB+rZmwBwIQgAAEIAABCECguwTIr909N4wMAhCAAAQgAAEIQKAmQH6tmbAHAhCAAAQgAAEIQKC7BMiv3T03jAwCEIAABCAAAQhAoCZAfq2ZsAcCEIAABCAAAQhAoLsEyK/dPTeMDAIQgAAEIAABCECgJkB+rZmwBwIQgAAEIAABCECguwTIr909N4wMAhCAAAQgAAEIQKAmQH6tmbAHAhCAAAQgAAEIQKC7BMiv3T03jAwCEIAABCAAAQhAoCbQml97vVdX3ya3k7vbyd31979f999E8fHgzA7dTu4uhpfxkBa+7r+5/v63aa++TXq9V1F7Mbx02+PBWTxUSjFtPZhSihhPKUXbpl622by5uVmtVuuf/5bL5enpaVTN53M7tF6vZ7NZPCTaQqW7a/PUKtFdm2EpRah0d22eWiW6azNkkOv1mjlp00PPrrYppFXMyXp2tZFkPwQgAIGnI9CcXy0pejC9GF7G1Bg3U2XajJWllLfv3t9O7iyY7u3tj75ce4RNm7GylGJHR1+uB58+x5EYl9hLGoC23Q3rdDr1YHp4eLhYLPwDPW3GStGXVkWTVCk8hSqZxEphqFXRJFUKT6FKJrFSGGpVNEmVwlOokkmsFIZaFU1SpfAUqmQSK4WhVkWTVCk8hSqZxEphqFXRJFUKT6FKJrFSGGpVNEmVwlOokkmsFIZaFU1SpfDkEAQgAIEnJdCcXy+Gl6Mv13t7+9a3pUCLsxYQ375778N6++69Z0ohjCamtZVai7PRxI4eD8483V4ML63seHDmfVmZHo+29ZewfcM+vufzuUtOT0+Xy6Wts06n09VqdXNz40dns5mnW9+ZGkKlu0s+vqlVojt3qBtCpburrWyPVonu2gxLKUKlu2vz1CrRXZshg3QyvHH07HJQqaFVHZmTacxsQgACEHh0Ag35NcZK689WQy1NxljpK6O2qqqFddC0i/4WlFPw9ZsQYlC2+wRSfhXjsTsHYhBvs90eq11bnE6nLpnNZuv1erFYHB4ezudza9hR+4Zer9ex3oXeECrdnTukhlaJ7pJP3BQq3V00iW2tEt1Fk9QWKt1d8vFNrRLduUPdECrdXW1le7RKdNdmaPdgtM1k3V2bp1YxSOMWP0xeNMm2wbMfAhCAwGMRaMivKWhaQPzwcWDBMQZNi4ODT59HX64vhpdamJZCzWfw6fPVt8kff/5lDvaqzOfDx8HVt0m6C7ZefxXjSSu+wnZ7mml5w753f/z4sVwuv379ulgsfGnWvrDv7+99dbaxl7SaklSiu3TTbTQXKgZpoOKJg2ScPKUU5mQ9SXjj1EzEGyfNKDYhAAEIPDoBlV9j/vP06XnR93iZ51ffY/e8WvD1+rhMa+E45ldfT41l/rJFfnV/790btnBr68eNtu6/seHRMF79tJsE4jec3zYQyxrNY1aoVaI78eUhVAwynhEH3nhq4rX+WgXJmglzMk2k3/bdnTiwCQEIQODRCbTm17T86ekwrpva0wM8JjYucLrQGraO63cFpPzq4biU0hg02/KrreOm8fjANtpuj9Wi4f39/Wq18rsCUn6NF0Pjd3xjL/4N16gS3W3MCgyylOL8Ien3AziTxgkZ11+Zk6UU3t2r1arxw0R8BLVNLfZDAAIQeCwCDfnVguPt5M5TZly/jDet2iA8aGqhpdt096onS3vElT/xwJ+WFcfQdv/r7eSuvsnVbjzY0nZ7mnZ9P/2Rln/N27N1/BaCUkp921/dl1Dp7mor26NVors2Q38oVeNL0921eWoVg3RuPrt8T2pA0oEYiul0qpl4fWpoFXPScW2ck15JAwIQgMATEWjIr/WfPflCZmOs9BVWLYwm9mI8+MbbDPx1+o0Evqcxv/pNC14WxxPbVtBo69qNDV8u9cq4muUX7v3oxivU8SJ1rdLdeX1qaBWDNFzxxCWAvglJR+EzWTPx+tTQKuak4frXzMl09rfZ3N/fPz8/H4/HBwcH29THmpOTk/F4fHR0FHdu0z44OBiPx+fn5/v7/33YzjaqUkq/3x+NRsPhsNfrbSmxMl7mRlycTY3o109aPZ5nPNqcXy0U+t9OXQwv/VFWFlJ9M1WmzSS05xjYkqrFWV83TZuxMtKp7x/Q49nSNnaxsW1PQ5z+fASBfSv7ldm0GSuFrVZFk1QpPIUqmcRKYahV0SRVCk+hSiaxUhhqVTRJlcJTqJJJrBSGWhVNUqXwFKpkEiuFoVZFk1QpPIUqmcRKYahV0SRVCk+hSiaxUhhqVTRJlcJTqJJJrBSGWhVNUqXwfOghS4Tj8fjk5ORB2l6vNxwOd4uhFpVGo1G/339Qp0dHR+Of/x6atnmZmjNnU/Mppfz6SbtxSM9V0JxffZ11hx/KsgjbJrRgakc9vNqLt6zpv78V7xyIP6/lBVEufmFL2O4M3T7Q7Ue2PLyam32+++9vWczd2JFWie6Es1Dp7to8tUp012Zoa8/OCpIGCpIbHznnM4o56Q/v25KJl6XGU5BMXehNFiY1Hw8uLDO3gfr1C5O/yaRtA/7s+1vz67OPjAFAAAIQgAAEIAABCECgJkB+rZmwBwIQgAAEIAABCECguwTIr909N4wMAhCAAAQgAAEIQKAmQH6tmbAHAhCAAAQgAAEIQKC7BMiv3T03jAwCEIAABCAAAQhAoCZAfq2ZsAcCEIAABCAAAQhAoLsEyK/dPTeMDAIQgAAEIAABCECgJkB+rZmwBwIQgAAEIAABCECguwTIr909N4wMAhCAAAQgAAEIQKAmQH6tmbAHAhCAAAQgAAEIQKC7BMiv3T03jAwCEIAABCAAAQhAoCZAfq2ZsAcCEIAABCAAAQhAoLsEyK/dPTeMDAIQgAAEIAABCECgJkB+rZmwBwIQgAAEIAABCECguwTIr909N4wMAhCAAAQgAAEIQKAmQH6tmbAHAhCAAAQgAAEIQKC7BFrza6/36urb5HZydzu5u/7+9+v+m/gijgdnduh2cncxvIyHtPB1/831979Ne/Vt0uu9itqL4aXbHg/O4qFSimnrwViZadNg4iFzrm1TL9ts3tzcrFar9c9/y+Xy9PQ0qubzuR1ar9ez2SweEm2h0t21eWqV6K7NsJQiVLq7Nk+tEt21GTLI9XrNnLTpoWdX2xTSKuZkPbvaSLIfAhCAwNMRaM6vlhQ9C14ML2NqjJupMm3GylLK23fvbyd3liD39vZHX649wqbNWFlKsaOjL9eDT5/jSIyLFX/4OLj6NvEx2yFtuxvW6XTqwfTw8HCxWPgHetqMlaIvrYomqVJ4ClUyiZXCUKuiSaoUnkKVTGKlMNSqaJIqhadQJZNYKQy1KpqkSuEpVMkkVgpDrYomqVJ4ClUyiZXCUKuiSaoUnkKVTGKlMNSqaJIqhadQJZNYKQy1KpqkSuHJIQhAAAJPSqA5v14ML0dfrvf29q1vS4EWDS2hvn333of19t17z5RCGE1Mayu1FmejiR09Hpx5ur0YXlrZ8eDM+7Ky1/03l//3/9vrvTK3lF+1rb+E7Rv28T2fz11yenq6XC5tnXU6na5Wq5ubGz86m8083frO1BAq3V3y8U2tEt25Q90QKt1dbWV7tEp012ZYShEq3V2bp1aJ7toMGaST4Y2jZ5eDSg2t6sicTGNmEwIQgMCjE2jIrzFWWn+2wGlpMsZKXxm1VVUtrIOv3YRgQTkFX7O6ndzFoFxKqfOrE2nMr1vausnGhl1bnE6nXjmbzdbr9WKxODw8nM/n1rCj9g29Xq9jvQu9IVS6O3dIDa0S3SWfuClUurtoEttaJbqLJqktVLq75OObWiW6c4e6IVS6u9rK9miV6K7N0O7BaJvJurs2T61ikMYtfpi8aJJtg2c/BCAAgcci0JBfU9C0wPrh48AWPmMitMg4+PR59OX6YniphWkp1HwGnz5ffZv88edf5mBRewbGAAAMo0lEQVSvynzsfoB0u+qD8mta8RW229NMyxv2vfvjx4/lcvn169fFYuFLs/aFfX9/76uzjb2k1ZSkEt2lm26juVAxSAMVTxwk4+QppTAn60nCG6dmIt44aUaxCQEIQODRCaj8GvOfp0/Pr77Hyzy/+h6759WCr9fHZVoLxzG/+vpuLPOXvXN+1bbuv7Hh0TBe/bSbBOI3nN82EMsazWNWqFWiO/HlIVQMMp4RB954auK1/loFyZoJczJNpN/23Z04sAkBCEDg0Qm05te0/OnpM66b2tMDPK02LnC60Bq2jut3BaT86uG4lPKI+XWj7fZYLRre39+vViu/KyDl13gxNH7HN/bi33CNKtHdxqzAIEspzh+Sfj+AM2mckHH9lTlZSuHdvVqtGj9MxEdQ29RiPwQgAIHHItCQXy04pntPff0y3rRqg/CgqYWWbtNfX3myrJ9+5au58aU+aP21lLKlbexCt+36fvojLf+at2fr+C0EpZT6tr/aX6h0d7WV7dEq0V2boT+UqvGl6e7aPLWKQTo3n12+JzUg6UAMxXQ61Uy8PjW0ijnpuDbOSa+kAQEIQOCJCDTkV4t9nXr+gL/4h+ZXX/2NDv5YA9+5fcOXS10SV7P8wr0f3XiFOl6krlW6O69PDa1ikIYrnrgE0Dch6Sh8JmsmXp8aWsWcNFz/mjmZzv42m/v7++fn5+Px+ODgYJv6WHNycjIej4+OjuLObdoHBwfj8fj8/Hx//78P29lGVUrp9/uj0Wg4HPZ6vS0lVsbL3IiLs6kR/fpJq8fzjEeb86utffrfTl0ML2Pmi5upMm3GSn/+q908YHcdeEpOm/bEA7/NwAE9NL9uaev+2zTsaYjTn48gsG9lvzKbNmOlcNaqaJIqhadQJZNYKQy1KpqkSuEpVMkkVgpDrYomqVJ4ClUyiZXCUKuiSaoUnkKVTGKlMNSqaJIqhadQJZNYKQy1KpqkSuEpVMkkVgpDrYomqVJ4ClUyiZXCUKuiSaoUng89ZIlwPB6fnJw8SNvr9YbD4W4x1KLSaDTq9/sP6vTo6Gj8899D0zYvU3PmbGo+pZRfP2k3Dum5Cprzq//Y1Q4/lGURtk1owdSOeni1F29Z0w7Vdy/4fm+Y3G9a8P3W8OwrbHeGbh/o9iNbHl7NzT7f/fe3LOZu7EirRHfCWah0d22eWiW6azO0tWdnBUkDBcmNj5zzGcWc9If3bcnEy1LjKUimLvQmC5OajwcXlpnbQP36hcnfZNK2AX/2/a359dlHxgAgAAEIQAACEIAABCBQEyC/1kzYAwEIQAACEIAABCDQXQLk1+6eG0YGAQhAAAIQgAAEIFATIL/WTNgDAQhAAAIQgAAEINBdAuTX7p4bRgYBCEAAAhCAAAQgUBMgv9ZM2AMBCEAAAhCAAAQg0F0C5NfunhtGBgEIQAACEIAABCBQEyC/1kzYAwEIQAACEIAABCDQXQLk1+6eG0YGAQhAAAIQgAAEIFATIL/WTNgDAQhAAAIQgAAEINBdAuTX7p4bRgYBCEAAAhCAAAQgUBMgv9ZM2AMBCEAAAhCAAAQg0F0C5NfunhtGBgEIQAACEIAABCBQEyC/1kzYAwEIQAACEIAABCDQXQLk1+6eG0YGAQhAAAIQgAAEIFATIL/WTNgDAQhAAAIQgAAEINBdAuTX7p4bRgYBCEAAAhCAAAQgUBNoza+93qurb5Pbyd3t5O76+9+v+2+i+HhwZoduJ3cXw8t4SAtf999cf//btFffJr3eq6i9GF667fHgLB4qpZi2Hkzs8XZy9/bd+yTUtql4m82bm5vVarX++W+5XJ6enkbVfD63Q+v1ejabxUOiLVS6uzZPrRLdtRmWUoRKd9fmqVWiuzZDBrler5mTNj307GqbQlrFnKxnVxtJ9kMAAhB4OgLN+dWSogfTi+FlTI1xM1WmzVhZSnn77v3t5M6C6d7e/ujLtUfYtBkrSyl2dPTlevDpcxxJKcXCq2dWC9a+qW13wzqdTj2YHh4eLhYL/0BPm7FS9KVV0SRVCk+hSiaxUhhqVTRJlcJTqJJJrBSGWhVNUqXwFKpkEiuFoVZFk1QpPIUqmcRKYahV0SRVCk+hSiaxUhhqVTRJlcJTqJJJrBSGWhVNUqXwFKpkEiuFoVZFk1QpPDkEAQhA4EkJNOfXi+Hl6Mv13t6+9W0p0OKsJVQPiJZKPVMKYTQxW4ueFmffvnvvJnb0eHDm6fZieGllx4OzVJbomKcnb22btNts2sf3fD734tPT0+Vyaeus0+l0tVrd3Nz40dls5unWd6aGUOnuko9vapXozh3qhlDp7mor26NVors2w1KKUOnu2jy1SnTXZsggnQxvHD27HFRqaFVH5mQaM5sQgAAEHp1AQ36NsdL6s9VQS5MxVvrKqK2qamEdfG2t1IJyCr5mVd8M8ND8uqXt9ljt2uJ0OnXJbDZbr9eLxeLw8HA+n1vDjto39Hq9jvUu9IZQ6e7cITW0SnSXfOKmUOnuoklsa5XoLpqktlDp7pKPb2qV6M4d6oZQ6e5qK9ujVaK7NkO7B6NtJuvu2jy1ikEat/hh8qJJtg2e/RCAAAQei0BDfk1B0wLrh48DW/iMidBS5uDT59GX64vhpRampVDzGXz6fPVt8seff5mDvSrz+fBxcPVtku6C3ZhfTRtvUfC1WGG7Pc20vGHfuz9+/Fgul1+/fl0sFr40a1/Y9/f3vjrb2EtaTUkq0V266TaaCxWDNFDxxEEyTp5SCnOyniS8cWom4o2TZhSbEIAABB6dgMqv8Yq/p0/Pr77Hyzy/+p54d4HXx2VaC8cxv/r6bizzl63zq/XrNxjEYWhb99/Y8GgYr37aTQLxG85vG4hljeYxK9Qq0Z348hAqBhnPiANvPDXxWn+tgmTNhDmZJtJv++5OHNiEAAQg8OgEWvNrWv709BnXTe3pAR4TGxc4XWgNW8f122dTfvVw7H+Ytf36qw0j3nLgA9touz1Wi4b39/er1crvCkj5NV4Mjd/xjb34N1yjSnS3MSswyFKK84ek3w/gTBonZFx/ZU6WUnh3r1arxg8T8RHUNrXYDwEIQOCxCDTk18Z7T339Mt60aoPwhVIttHTri6Om9WRpj7jya/3+tCxPulYv1l/NIeXdLW23p2nX99MfafnXvD1bx28hKKXUt/3VfQmV7q62sj1aJbprM/SHUjW+NN1dm6dWMUjn5rPL96QGJB2IoZhOp5qJ16eGVjEnHdfGOemVNCAAAQg8EYGG/FpK8VhpvfpCZmOs9BVWLYwmZuvBN95m4K/TE7PvKaW05dfG8Lq9bexCt3251MviapZfuPejG69Qx4vUtUp35/WpoVUM0nDFE5cA+iYkHYXPZM3E61NDq5iThutfMyfT2d9mc39///z8fDweHxwcbFMfa05OTsbj8dHRUdy5Tfvg4GA8Hp+fn+/v//dhO9uoSin9fn80Gg2Hw16vt6XEyniZG3FxNjWiXz9p9Xie8WhzfrW1Ul/LvBhe+qOsLKT6ZqpMm0lozzGwJVWLs/6UrrQZKyOdxvzaFl798QjeS5tt7GJj256GOP35CAL7VvYrs2kzVgpbrYomqVJ4ClUyiZXCUKuiSaoUnkKVTGKlMNSqaJIqhadQJZNYKQy1KpqkSuEpVMkkVgpDrYomqVJ4ClUyiZXCUKuiSaoUnkKVTGKlMNSqaJIqhadQJZNYKQy1KpqkSuH50EOWCMfj8cnJyYO0vV5vOBzuFkMtKo1Go36//6BOj46Oxj//PTRt8zI1Z86m5lNK+fWTduOQnqugOb/6OusOP5RlEbZNaAnSjnqstBdvEdZ/fyveORB/7ssLTB6780P1XbB+KNruDN0+0O1Htjy8mpt9vvvvb1nM3diRVonuhLNQ6e7aPLVKdNdmaGvPzgqSBgqSGx855zOKOekP79uSiZelxlOQTF3oTRYmNR8PLiwzt4H69QuTv8mkbQP+7Ptb8+uzj4wBQAACEIAABCAAAQhAoCZAfq2ZsAcCEIAABCAAAQhAoLsEyK/dPTeMDAIQgAAEIAABCECgJkB+rZmwBwIQgAAEIAABCECguwTIr909N4wMAhCAAAQgAAEIQKAmQH6tmbAHAhCAAAQgAAEIQKC7BMiv3T03jAwCEIAABCAAAQhAoCZAfq2ZsAcCEIAABCAAAQhAoLsEyK/dPTeMDAIQgAAEIAABCECgJkB+rZmwBwIQgAAEIAABCECguwTIr909N4wMAhCAAAQgAAEIQKAmQH6tmbAHAhCAAAQgAAEIQKC7BMiv3T03jAwCEIAABCAAAQhAoCZAfq2ZsAcCEIAABCAAAQhAoLsE/n9IqYV4PcRuVgAAAABJRU5ErkJggg==;" parent="1" vertex="1">
          <mxGeometry x="1050" y="190" width="141.08" height="90" as="geometry" />
        </mxCell>
        <mxCell id="5Oz1r2imxajkxTDogwbM-54" value="" style="rounded=0;whiteSpace=wrap;html=1;" parent="1" vertex="1">
          <mxGeometry x="887" y="190" width="63" height="100" as="geometry" />
        </mxCell>
        <mxCell id="5Oz1r2imxajkxTDogwbM-55" value="Address" style="text;strokeColor=none;align=center;fillColor=none;html=1;verticalAlign=middle;whiteSpace=wrap;rounded=0;" parent="1" vertex="1">
          <mxGeometry x="887" y="190" width="60" height="30" as="geometry" />
        </mxCell>
        <mxCell id="5Oz1r2imxajkxTDogwbM-56" value="Address" style="text;strokeColor=none;align=center;fillColor=none;html=1;verticalAlign=middle;whiteSpace=wrap;rounded=0;" parent="1" vertex="1">
          <mxGeometry x="887" y="220" width="60" height="30" as="geometry" />
        </mxCell>
        <mxCell id="5Oz1r2imxajkxTDogwbM-57" value="Address" style="text;strokeColor=none;align=center;fillColor=none;html=1;verticalAlign=middle;whiteSpace=wrap;rounded=0;" parent="1" vertex="1">
          <mxGeometry x="887" y="250" width="60" height="30" as="geometry" />
        </mxCell>
        <mxCell id="5Oz1r2imxajkxTDogwbM-58" value="" style="rounded=0;whiteSpace=wrap;html=1;" parent="1" vertex="1">
          <mxGeometry x="950" y="190" width="70" height="100" as="geometry" />
        </mxCell>
        <mxCell id="5Oz1r2imxajkxTDogwbM-59" value="Value" style="text;strokeColor=none;align=center;fillColor=none;html=1;verticalAlign=middle;whiteSpace=wrap;rounded=0;" parent="1" vertex="1">
          <mxGeometry x="950" y="190" width="60" height="30" as="geometry" />
        </mxCell>
        <mxCell id="5Oz1r2imxajkxTDogwbM-60" value="Value" style="text;strokeColor=none;align=center;fillColor=none;html=1;verticalAlign=middle;whiteSpace=wrap;rounded=0;" parent="1" vertex="1">
          <mxGeometry x="950" y="220" width="60" height="30" as="geometry" />
        </mxCell>
        <mxCell id="5Oz1r2imxajkxTDogwbM-61" value="Value" style="text;strokeColor=none;align=center;fillColor=none;html=1;verticalAlign=middle;whiteSpace=wrap;rounded=0;" parent="1" vertex="1">
          <mxGeometry x="950" y="250" width="60" height="30" as="geometry" />
        </mxCell>
        <mxCell id="5Oz1r2imxajkxTDogwbM-62" value="" style="rounded=0;whiteSpace=wrap;html=1;" parent="1" vertex="1">
          <mxGeometry x="887" y="393" width="63" height="100" as="geometry" />
        </mxCell>
        <mxCell id="5Oz1r2imxajkxTDogwbM-63" value="Address" style="text;strokeColor=none;align=center;fillColor=none;html=1;verticalAlign=middle;whiteSpace=wrap;rounded=0;" parent="1" vertex="1">
          <mxGeometry x="887" y="393" width="60" height="30" as="geometry" />
        </mxCell>
        <mxCell id="5Oz1r2imxajkxTDogwbM-64" value="Address" style="text;strokeColor=none;align=center;fillColor=none;html=1;verticalAlign=middle;whiteSpace=wrap;rounded=0;" parent="1" vertex="1">
          <mxGeometry x="887" y="423" width="60" height="30" as="geometry" />
        </mxCell>
        <mxCell id="5Oz1r2imxajkxTDogwbM-65" value="Address" style="text;strokeColor=none;align=center;fillColor=none;html=1;verticalAlign=middle;whiteSpace=wrap;rounded=0;" parent="1" vertex="1">
          <mxGeometry x="887" y="453" width="60" height="30" as="geometry" />
        </mxCell>
        <mxCell id="5Oz1r2imxajkxTDogwbM-66" value="" style="rounded=0;whiteSpace=wrap;html=1;" parent="1" vertex="1">
          <mxGeometry x="950" y="393" width="70" height="100" as="geometry" />
        </mxCell>
        <mxCell id="5Oz1r2imxajkxTDogwbM-67" value="Value" style="text;strokeColor=none;align=center;fillColor=none;html=1;verticalAlign=middle;whiteSpace=wrap;rounded=0;" parent="1" vertex="1">
          <mxGeometry x="950" y="393" width="60" height="30" as="geometry" />
        </mxCell>
        <mxCell id="5Oz1r2imxajkxTDogwbM-68" value="Value" style="text;strokeColor=none;align=center;fillColor=none;html=1;verticalAlign=middle;whiteSpace=wrap;rounded=0;" parent="1" vertex="1">
          <mxGeometry x="950" y="453" width="60" height="30" as="geometry" />
        </mxCell>
        <mxCell id="5Oz1r2imxajkxTDogwbM-69" value="Value" style="text;strokeColor=none;align=center;fillColor=none;html=1;verticalAlign=middle;whiteSpace=wrap;rounded=0;" parent="1" vertex="1">
          <mxGeometry x="950" y="428" width="60" height="30" as="geometry" />
        </mxCell>
      </root>
    </mxGraphModel>
  </diagram>
</mxfile>
